<?xml version="1.0" encoding="UTF-8"?>
<svg width="250px" height="150px" viewBox="0 0 250 150" version="1.1" xmlns="http://www.w3.org/2000/svg" xmlns:xlink="http://www.w3.org/1999/xlink">
    <!-- Generator: Sketch 51.3 (57544) - http://www.bohemiancoding.com/sketch -->
    <title>Artboard 3 Copy 2</title>
    <desc>Created with Sketch.</desc>
    <defs></defs>
    <g id="Artboard-3-Copy-2" stroke="none" stroke-width="1" fill="none" fill-rule="evenodd">
        <g id="Group-17" transform="translate(70.000000, 18.000000)">
            <path d="M102.752833,46.4709214 C102.603549,44.700156 102.265173,43.0716932 101.787466,41.6075799 C100.692721,34.4503607 95.8758425,31.8979332 93.3778331,29.1881711 L95.2986133,16.0171641 C95.5374668,15.2956299 95.0398553,14.6221979 93.2982153,14.2644371 C91.8352377,13.9617936 88.6803812,17.3279514 89.2576104,18.4483338 L88.9988525,18.5515533 C89.0486136,19.1227679 89.0685181,19.6999954 89.0685181,20.2772228 L86.6003654,14.7414514 C86.4013208,13.9828383 85.6449514,13.6962289 84.0824515,14.4107482 C82.7488528,15.0170375 82.0521968,19.7721488 83.1170853,20.3904636 L82.9678019,20.630975 C85.2667667,23.7065149 86.8193144,27.671947 87.6154927,30.0199398 C87.4861137,30.4568689 87.4064959,30.7084038 87.4064959,30.7084038 C79.9025154,33.6676964 61.739698,60.7342511 13.7500511,58.3922711 C6.64415978,58.0465359 4.22576819,60.2702645 2.51398485,62.5260612 C1.1803862,64.2827967 2.67322051,68.0468006 4.35514717,69.1250935 C6.87306104,70.7315094 10.9932837,73.1205895 17.3428057,74.8202036 C23.0553849,76.820457 31.2062603,78.3607322 42.5717055,77.5740594 L42.2532342,77.876703 L42.113903,77.9548692 L35.197104,81.664758 C33.2464672,82.6177845 31.2162125,83.5457577 29.0963878,84.4406607 C22.5478213,87.2085463 21.3137449,90.2640436 20.7265634,93.0449569 C20.2787131,95.2085576 23.2345251,97.958405 25.2150186,98.1999185 C28.1708305,98.5596835 32.9180436,98.9274656 39.3670878,97.7078722 C42.4920876,97.3581285 46.1346034,96.6165516 50.3145394,95.1975342 C48.5231383,96.5604323 46.642167,97.9103027 44.6517213,99.2391283 C38.8296675,103.130403 38.1031548,106.465495 37.9538713,109.41677 C37.8443968,111.713654 41.0490145,114.06766 42.9598424,113.998513 C45.8260843,113.897298 50.3742528,113.518492 56.3256856,111.235638 C63.4614336,109.135171 73.3041878,104.094453 85.1075311,91.8203529 C103.648533,72.5483728 103.519154,55.7907391 102.752833,46.4709214" id="Fill-2470" fill="#C1A23F"></path>
            <path d="M79.1760392,3 C79.1760392,3 86.1413421,11.1208594 89.4656912,13.4849583 C92.7900403,15.8490573 99.8938578,15.702547 103.604069,24.800142 C107.31428,33.897737 114.012448,50.1474291 102.802663,75.9960408 C91.6027728,101.844652 78.6318749,108.353898 72.8538396,110.768827 C71.0828322,111.504369 67.283576,110.43594 66.6008972,108.256224 C65.7203404,105.454588 65.2454334,102.092823 69.3217186,96.4277561 C96.8663255,58.1466949 85.013438,26.5403261 86.6657186,18.5221237 C86.6657186,18.5221237 82.6784785,12.8839669 77.8304693,9.75940945 L79.1760392,3" id="Fill-2471" fill="#C49C33"></path>
            <path d="M79.1760392,3 L77.8304693,9.75940606 C82.6784785,12.8839619 86.6657186,18.5221159 86.6657186,18.5221159 C85.013438,26.5403143 96.8663255,58.1466672 69.3217186,96.4277092 C65.2454334,102.092773 65.7203404,105.454536 66.6008972,108.256172 C67.1450615,109.972435 69.6086416,111 71.4983758,111 C72.0029645,111 72.4778715,110.92525 72.8538396,110.768773 C78.6318749,108.353845 91.6027728,101.844603 102.802663,75.9960041 C114.012448,50.1474054 107.31428,33.8977215 103.604069,24.800131 C99.8938578,15.7025406 92.7900403,15.8490509 89.4656912,13.4849531 C86.1413421,11.1208553 79.1760392,3 79.1760392,3 M90.7123221,18.5270992 C90.9695634,18.6277628 91.2169108,18.7264329 91.4741521,18.8241065 C94.7787135,20.0948589 97.8952908,21.2968411 99.9433273,26.3160639 L99.9730089,26.3948007 C103.604069,35.2890708 109.678921,50.1753122 99.1716034,74.4003378 C91.7116057,91.6138002 82.6586907,102.284134 71.5082697,107.013326 L71.4983758,107.013326 C71.0630444,107.013326 70.5386679,106.837912 70.2616388,106.678445 C69.7867318,105.090752 69.4602332,103.022665 72.527341,98.7668903 C94.9370158,67.619005 92.3151333,40.9222414 90.9003062,26.5791844 C90.5935954,23.4466552 90.3066724,20.4875463 90.5441259,19.3334041 L90.7123221,18.5270992" id="Fill-2472" fill="#865F2C"></path>
            <path d="M91.4831348,21.4115971 C95.3483966,42.9234708 101.635755,62.4410522 75.0532488,98.8920615 C71.1173425,104.288087 70.4815422,106.013531 71.3292759,108.680947 C71.9953523,110.757499 74.2862517,109.931894 75.981719,109.230682 C81.5626324,106.931427 94.0767961,100.73287 104.8854,76.1192092 C115.704097,51.5065519 109.679133,35.8381153 105.66249,27.369395 C101.040323,17.6346803 91.3822141,15.2010016 91.4831348,21.4115971" id="Fill-2473" fill="#F2C425"></path>
            <path d="M73.480788,107 C73.3037756,107 73.1267632,106.968886 72.9595848,106.902642 C72.1925309,106.61057 71.809004,105.741377 72.0941907,104.96352 C72.644896,103.474049 73.6971366,101.714586 75.8409538,98.6904775 C84.7702474,86.1223123 90.4149771,74.8187923 93.0996656,64.1325397 C93.2963461,63.3275829 94.102736,62.8407948 94.8894579,63.0475543 C95.6860138,63.2543138 96.158047,64.0753295 95.9515325,64.8802863 C93.1783378,75.9399104 87.3762637,87.5766544 78.2306215,100.45797 C76.2736508,103.209075 75.3000824,104.823003 74.8575514,106.024416 C74.6313688,106.627632 74.0708295,107 73.480788,107" id="Fill-2474" fill="#EFE393"></path>
            <path d="M96.4568676,60 L96.1878687,59.9789676 C95.3055523,59.8417566 94.7137547,59.066564 94.8643941,58.2483052 C96.9948654,46.4661793 95.0257934,36.7201858 92.9491219,26.401311 C92.6370831,24.8619428 92.3250444,23.31957 92.0237656,21.7661803 C91.8731262,20.9499245 92.4541639,20.1687227 93.3257203,20.0234993 C94.2080367,19.8782759 95.0473133,20.421111 95.2087127,21.2383683 C95.4992315,22.7827442 95.8112702,24.3161031 96.1233089,25.847459 C98.1569406,35.9690302 100.276652,46.4371346 98.0493411,58.7470725 C97.9202216,59.4812019 97.2315844,60 96.4568676,60" id="Fill-2475" fill="#EFE393"></path>
            <path d="M104.999101,54.5263102 C105.022336,55.3545171 104.592485,56.0140153 104.034842,55.9997736 C103.488815,55.9844365 103.024112,55.3008371 103.000877,54.4726301 C102.977642,53.6444231 103.41911,52.984925 103.965136,53.0002622 C104.511162,53.0155993 104.975866,53.6991987 104.999101,54.5263102" id="Fill-2478" fill="#C4B633"></path>
            <path d="M101.999101,48.5262928 C102.022336,49.3545095 101.59249,50.0140154 101.034852,49.9997736 C100.488832,49.9844363 100.024134,49.3008288 100.000899,48.4726121 C99.9776643,47.6443953 100.40751,46.9859849 100.965148,47.0002268 C101.522785,47.0155641 101.975866,47.6991716 101.999101,48.5262928" id="Fill-2479" fill="#C4B633"></path>
            <path d="M101.9991,59.5274055 C102.022343,60.3556124 101.592354,61.0140149 101.034529,60.9997732 C100.488326,60.9844361 100.023473,60.3008368 100.00023,59.4726299 C99.9886088,58.6444231 100.418598,57.984925 100.964801,58.0002622 C101.522626,58.0155993 101.975858,58.6991987 101.9991,59.5274055" id="Fill-2480" fill="#C4B633"></path>
            <path d="M91.8603775,80.5091292 C91.8703775,80.7851948 91.6803775,81.0050249 91.4503775,80.9999126 C91.2103775,80.9948003 91.0103775,80.7669365 91.0003775,80.4908708 C90.9903775,80.2148052 91.1803775,79.9949751 91.4103775,80.0000874 C91.6503775,80.0051997 91.8503775,80.2330635 91.8603775,80.5091292" id="Fill-2481" fill="#C4B633"></path>
            <path d="M92.8603775,92.5087581 C92.8703775,92.7846349 92.6803775,93.0043147 92.4503775,92.9999357 C92.2103775,92.9948268 92.0103775,92.767119 92.0003775,92.4912421 C91.9903775,92.2146354 92.1803775,91.9956856 92.4103775,92.0000646 C92.6503775,92.0051734 92.8503775,92.2328813 92.8603775,92.5087581" id="Fill-2482" fill="#C4B633"></path>
            <path d="M75.8603774,105.509129 C75.8703774,105.785195 75.6903774,106.005025 75.4503774,105.999913 C75.2103774,105.9948 75.0103774,105.766937 75.0003774,105.490871 C74.9903774,105.214805 75.1803774,104.994975 75.4203774,105.000087 C75.6503774,105.0052 75.8503774,105.233063 75.8603774,105.509129" id="Fill-2483" fill="#C4B633"></path>
            <path d="M78.8603971,102.509129 C78.8603971,102.785195 78.6803971,103.005025 78.4403971,102.999913 C78.2003971,102.9948 78.0103971,102.766936 78.0003971,102.491601 C77.9903971,102.215535 78.1703971,101.994975 78.4103971,102.000087 C78.6503971,102.005199 78.8503971,102.233063 78.8603971,102.509129" id="Fill-2484" fill="#C4B633"></path>
            <path d="M101.860378,51.509129 C101.870378,51.7851948 101.680378,52.0050249 101.450378,51.9999126 C101.210378,51.9948003 101.010378,51.7669365 101.000378,51.4908707 C100.990378,51.2155353 101.180378,50.9949748 101.410378,51.0000871 C101.650378,51.0051994 101.850378,51.2330632 101.860378,51.509129" id="Fill-2485" fill="#C4B633"></path>
            <path d="M91.999401,86.0363045 C92.0224631,87.1409308 91.3767242,88.0199849 90.5580195,87.9996543 C89.7277838,87.9793238 89.0359206,87.0683217 89.0013275,85.9636955 C88.9667343,84.8590692 89.6124732,83.9800151 90.442709,84.0003457 C91.2729447,84.0197081 91.9648078,84.9316783 91.999401,86.0363045" id="Fill-2486" fill="#C4B633"></path>
            <path d="M74,91 L77,86 C76.0693431,87.6512279 75.0729927,89.3186127 74,90.9989229 C74,91 74,91 74,91" id="Fill-2487" fill="#968239"></path>
            <path d="M74,90 C74.9962547,88.4713376 75.9213483,86.9544341 76.7854468,85.4522293 L76.7956126,85.44439 C75.9213483,86.9485546 74.9962547,88.4683978 74,90 M81.8887105,84.6075453 C83.8913858,80.8975992 85.5484216,77.2748653 86.9004815,73.7618814 C89.2792937,71.1141597 91.3023007,68.5213131 93,66 C91.8512574,69.7452229 90.2755484,73.6923077 88.1813804,77.8990691 C85.7517389,80.755512 83.6575709,82.9397354 81.8887105,84.6075453" id="Fill-2488" fill="#997E38"></path>
            <path d="M74,91 C75.0039401,89.3965361 75.9361702,87.8053829 76.8171789,86.2306439 L79.4499606,81.7741838 C80.8431836,80.4784865 82.2671395,79.083278 83.7115839,77.5834289 C84.8794326,76.3800616 85.9755713,75.1838754 87,74 C85.6375099,77.6778106 83.9676911,81.4705208 81.9495666,85.354535 C76.5303388,90.6727415 74.0921986,90.9897411 74,91" id="Fill-2489" fill="#6F522C"></path>
            <path d="M88,78 C90.0896195,73.6785589 91.661906,69.6238734 92.8081536,65.7765527 C94.0456952,63.8951705 95.1209363,62.0540534 96.0440207,60.2542079 C96.1758899,60.3166187 96.3077591,60.3619168 96.4599158,60.3860758 L96.7135104,60.4072149 C97.4438629,60.4072149 98.093065,59.8857832 98.2147904,59.1479271 C98.5292477,57.2856708 98.752411,55.4656928 98.894424,53.6819533 C99.5436261,51.8660018 100.050815,50.1054147 100.446423,48.4142847 C100.588436,48.9045111 100.902893,49.25381 101.257926,49.2638762 C101.268069,49.2638762 101.278213,49.2638762 101.278213,49.2638762 C101.754971,49.2638762 102.120147,48.6629211 102.09986,47.9099656 C102.079572,47.1499637 101.683965,46.5218297 101.197063,46.507737 L101.186919,46.507737 C101.05505,46.507737 100.933325,46.5520285 100.821743,46.6325585 C101.673821,42.2144814 101.785402,38.2926704 101.663677,35 C103.864878,43.9750685 104.098185,55.6368191 96.449772,66.782171 C96.6526477,66.0745137 96.8555234,65.3698762 97.0279677,64.6672519 C97.2409872,63.8599387 96.7540855,63.0365194 95.932439,62.8291547 C95.8107136,62.7969427 95.6788445,62.7818433 95.557119,62.7818433 C94.8774855,62.7818433 94.2587147,63.2358312 94.0862704,63.9173163 C93.1023233,67.6992064 91.7532001,71.5596133 89.9983254,75.5247091 C89.3085481,76.4004729 88.6390584,77.2238921 88,78 M101.815834,51.0828476 C101.572383,51.0828476 101.389795,51.3838285 101.399939,51.7592996 C101.410082,52.1398038 101.612958,52.4538708 101.856409,52.4609172 C101.856409,52.4609172 101.856409,52.4609172 101.866553,52.4609172 C102.09986,52.4609172 102.282448,52.160943 102.272304,51.7844652 C102.26216,51.403961 102.059285,51.089894 101.815834,51.0828476" id="Fill-2490" fill="#BA9936"></path>
            <path d="M90,76 C91.7351346,71.9548938 93.0690821,68.016589 94.041961,64.1583853 C94.2124656,63.4631487 94.824276,63 95.4962646,63 C95.6166208,63 95.7470066,63.0154041 95.8673628,63.0482661 C96.6797668,63.2598152 97.1611915,64.0998499 96.9505682,64.9234537 C96.7800636,65.6402559 96.57947,66.3591121 96.3788764,67.0810491 C96.3086687,67.1888775 96.2384609,67.2967059 96.1582235,67.4045343 C93.9216048,70.7061379 91.8655205,73.5497275 90,76" id="Fill-2491" fill="#B8AB36"></path>
            <path d="M96.7046263,61 L96.4377224,60.9779973 C96.2775801,60.9528514 96.13879,60.9057027 96,60.8407424 C97.227758,58.4843586 98.2099644,56.2013172 99,54 C98.8505338,55.8566083 98.6156584,57.7509355 98.2846975,59.6892681 C98.1565836,60.4572669 97.4733096,61 96.7046263,61" id="Fill-2492" fill="#B8AB36"></path>
            <path d="M101.005645,50 C101.005645,50 100.993381,50 100.981117,50 C100.551878,49.9890431 100.171695,49.6088386 100,49.0752374 C100.171695,48.4189189 100.318863,47.7724617 100.453767,47.1358656 C100.58867,47.0482104 100.735838,47 100.895269,47 L100.907533,47 C101.496203,47.0153397 101.974498,47.6990504 101.999026,48.5262966 C102.023554,49.3458729 101.582051,50 101.005645,50" id="Fill-2493" fill="#97913B"></path>
            <path d="M101.460397,52 C101.450397,52 101.450397,52 101.450397,52 C101.210397,51.9948868 101.010397,51.7669832 101.000397,51.4908692 C100.990397,51.2184076 101.170397,51 101.410397,51 C101.650397,51.0051132 101.850397,51.2330168 101.860397,51.5091308 C101.870397,51.7823229 101.690397,52 101.460397,52" id="Fill-2494" fill="#97913B"></path>
            <path d="M71.0928413,33.7252194 C63.8626759,45.5234256 51.4267913,59.6671735 27.4326146,69.8207812 C20.8606435,72.6023984 19.6340085,75.673054 19.0456227,78.4677635 C18.5968538,80.643105 21.5587285,83.4055872 23.5432842,83.6482989 C30.0653921,84.444917 45.2337806,85.3069968 68.4102006,68.9929429 C88.0862233,55.1503187 92.4542405,40.8232781 94,31 C86.3011204,31.3132089 78.622186,32.159175 71.0928413,33.7252194" id="Fill-2495" fill="#C49C33"></path>
            <path d="M94,31 C86.3011204,31.3132102 78.622186,32.1591799 71.0928413,33.7252309 C63.8626759,45.5234865 51.4267913,59.6672937 27.4326146,69.820944 C20.8606435,72.6025729 19.6340085,75.6732414 19.0456227,78.4679626 C18.5968538,80.6433132 21.5587285,83.405807 23.5432842,83.6485197 C24.969372,83.8227492 26.8143108,84 29.0581552,84 C37.0861321,84 50.3098554,81.7380382 68.4102006,68.9931023 C88.0862233,55.1504199 92.4542405,40.8233193 94,31 M89.0535696,35.3174667 C86.8496157,43.8607532 81.464389,54.8946148 66.1364382,65.6877779 C52.6733715,75.1656596 40.1975964,79.971573 29.0581552,79.971573 C27.003791,79.971573 25.3483324,79.8084217 24.1316701,79.6623912 C23.8125455,79.5324744 23.3139134,79.1094896 23.0645974,78.7721088 C23.4236125,77.2997188 24.2712871,75.5312393 28.9783741,73.5361608 C48.7242053,65.1801961 63.3141805,53.3295709 73.5461112,37.3407441 C78.4526511,36.3940638 83.6483976,35.7162809 89.0535696,35.3174667" id="Fill-2496" fill="#865F2C"></path>
            <path d="M78.7057924,32.2867946 C72.5881094,46.6461846 62.3454739,60.5773087 31.2489124,73.6389229 C25.0315928,76.2474522 23.6067904,77.3775155 23.0488258,79.9980243 C22.6203888,82.0375289 25.1013384,82.4418359 26.9745052,82.6704441 C33.1420065,83.4171644 47.4797034,84.2247802 69.3897767,68.9269985 C89.5960653,54.8151841 93.1331622,40.2042253 94,31 C88.8886459,31.179692 83.7772919,31.5909871 78.7057924,32.2867946" id="Fill-2497" fill="#F2C425"></path>
            <path d="M26.511652,81 C26.0601478,81 25.618677,80.7994131 25.3176742,80.4163828 C24.8059695,79.7561594 24.9263706,78.8066474 25.5785433,78.2945964 C26.8327216,77.3168611 28.6889055,76.3613013 32.1905713,74.8876425 C46.7490731,68.7531096 57.6353408,62.0611667 65.4413465,54.4277757 C66.0433521,53.8461744 66.9965276,53.859278 67.5784663,54.4570069 C68.1503717,55.0567518 68.1403382,56.0143276 67.5483661,56.5959289 C59.4614244,64.4974411 48.2741539,71.3940028 33.3544488,77.676708 C30.1537858,79.021346 28.4380699,79.891228 27.4347272,80.682488 C27.1537913,80.8961786 26.8327216,81 26.511652,81" id="Fill-2498" fill="#EFE393"></path>
            <path d="M70.4586868,53 C70.1264971,53 69.7845371,52.8792131 69.5109692,52.6326064 C68.8954412,52.0880587 68.8270492,51.133842 69.3546446,50.5027303 C73.2236774,45.8856502 76.535804,40.3052943 79.1835511,33.9166725 C79.5059705,33.1506821 80.3657556,32.7933541 81.1082973,33.1224985 C81.8508389,33.4506363 82.2025692,34.3374136 81.8801498,35.1044106 C79.1151591,41.7788947 75.646708,47.6229688 71.5724993,52.47659 C71.2793907,52.8228458 70.878809,53 70.4586868,53" id="Fill-2499" fill="#EFE393"></path>
            <path d="M79.7662776,51.3509265 C79.4103293,51.8681361 78.7775323,52.1299734 78.3523718,51.9360198 C77.9370988,51.7420662 77.8777741,51.1658624 78.2337224,50.6486528 C78.5896707,50.1322513 79.2224677,49.870414 79.6476282,50.0635594 C80.0629012,50.257513 80.1222259,50.8337168 79.7662776,51.3509265" id="Fill-2500" fill="#C4B633"></path>
            <path d="M80.7578797,44.3509704 C80.4115254,44.8674118 79.7781917,45.1300776 79.3526707,44.936109 C78.9370454,44.7421404 78.8776704,44.1658921 79.2339206,43.6494507 C79.5901708,43.1322011 80.2235045,42.8695353 80.6490255,43.0643121 C81.0646507,43.2582807 81.1240258,43.8345291 80.7578797,44.3509704" id="Fill-2501" fill="#C4B633"></path>
            <path d="M74.7626217,54.3508007 C74.4060713,54.8681105 73.7722039,55.1299986 73.3562284,54.9360074 C72.9303488,54.7420163 72.8808279,54.1657008 73.2373783,53.6491993 C73.5939287,53.1318895 74.2178919,52.8700014 74.6437716,53.0639926 C75.0696512,53.2579837 75.1191721,53.8342992 74.7626217,54.3508007" id="Fill-2502" fill="#C4B633"></path>
            <path d="M55.8796662,67.6751445 C55.7013939,67.9337015 55.3844654,68.0645959 55.176481,67.9684451 C54.9684967,67.8706782 54.9387847,67.5830336 55.1170569,67.3244767 C55.2953292,67.0659198 55.6122578,66.9350253 55.8202421,67.0319842 C56.0381305,67.128943 56.0579385,67.4165876 55.8796662,67.6751445" id="Fill-2503" fill="#C4B633"></path>
            <path d="M49.8825582,77.6759465 C49.7036998,77.9336932 49.3857294,78.0645864 49.1770612,77.9684364 C48.9683931,77.8706705 48.9385834,77.5830284 49.1174418,77.3244738 C49.2963002,77.0659192 49.6142706,76.9350259 49.8229388,77.0319839 C50.0316069,77.1289419 50.0614166,77.4173919 49.8825582,77.6759465" id="Fill-2504" fill="#C4B633"></path>
            <path d="M28.8829431,79.6754004 C28.7046708,79.9340553 28.3877422,80.0649993 28.1797579,79.9680037 C27.9618695,79.8710081 27.9420615,79.5824463 28.1203338,79.3245996 C28.2986061,79.0659447 28.6056306,78.9350007 28.823519,79.0319963 C29.0315033,79.1281836 29.0612153,79.4167455 28.8829431,79.6754004" id="Fill-2505" fill="#C4B633"></path>
            <path d="M32.8829431,79.6754004 C32.7046708,79.9340553 32.3877422,80.0649993 32.1797579,79.9680037 C31.9618695,79.8710081 31.9420615,79.5832545 32.1203338,79.3245996 C32.2986061,79.0659447 32.6056306,78.9350007 32.823519,79.0319963 C33.0315033,79.1289919 33.0612153,79.4167455 32.8829431,79.6754004" id="Fill-2506" fill="#C4B633"></path>
            <path d="M78.8837137,47.6754004 C78.6967763,47.9340553 78.3917731,48.0649993 78.1753192,47.9680037 C77.9687041,47.8710081 77.9391877,47.5832545 78.1162863,47.3245996 C78.2933849,47.0659447 78.6082269,46.9350007 78.8246808,47.0319963 C79.0312959,47.1289919 79.0608123,47.4167455 78.8837137,47.6754004" id="Fill-2507" fill="#C4B633"></path>
            <path d="M52.6493244,71.7015259 C52.1090437,72.7361338 51.1660083,73.2598639 50.5373181,72.8721537 C49.8988045,72.4833724 49.8202182,71.332023 50.3506756,70.2974151 C50.8909563,69.2638782 51.8339917,68.7401481 52.4626819,69.1278583 C53.1011955,69.5155685 53.1797818,70.667989 52.6493244,71.7015259" id="Fill-2508" fill="#C4B633"></path>
            <path d="M80.4078027,21.2103171 C67.452799,25.8199415 48.9784448,29.0003332 23.9367621,21.8890532 C17.0799921,19.9405525 14.215519,21.5461968 12.0297364,23.3422061 C10.3330102,24.7415386 10.9418355,28.7252508 12.3491202,30.1534868 C16.9502424,34.8378619 28.2783851,44.9660788 56.4939439,46.8089318 C80.4377449,48.3727158 92.714058,40.0185813 100,33.3926823 C93.7919782,28.8328917 87.2645727,24.6946948 80.4078027,21.2103171" id="Fill-2509" fill="#C49C33"></path>
            <path d="M18.4273923,21 C15.3034199,21 13.5068863,22.1272281 12.0297364,23.3421628 C10.3330102,24.7414804 10.9418355,28.7251505 12.3491202,30.1533714 C16.9502424,34.8376969 28.2783851,44.9658067 56.4939439,46.8086403 C58.4801116,46.9392034 60.3864334,47 62.2129093,47 C82.4438741,47 93.3228833,39.4701959 100,33.3925327 C93.7919782,28.8327903 87.2645727,24.6946372 80.4078027,21.2102963 C72.9222459,23.8733852 63.5902517,26.0590716 52.2221861,26.0590716 C43.9182084,26.0590716 34.5163491,24.8919768 23.9367621,21.8890252 C21.7210373,21.2581362 19.9245037,21 18.4273923,21 M18.4273923,24.98666 C19.6350622,24.98666 21.1221928,25.2348296 22.8488612,25.7241921 C32.9493725,28.592594 42.8303075,30.0467283 52.2221861,30.0467283 C61.8935255,30.0467283 71.0259048,28.5696707 80.0884189,25.5378158 C84.5098878,27.8670219 88.9912411,30.5809407 93.4626137,33.6416989 C87.2346305,38.3011078 77.6730792,43.01334 62.2129093,43.01334 C60.4463178,43.01334 58.6098612,42.9515467 56.7534432,42.8309503 C37.8698785,41.597079 24.2960689,36.5609307 15.2734777,27.4384559 C15.1038051,27.1384598 14.9740554,26.5065742 14.9840362,26.0889715 C15.84238,25.4451259 16.7506276,24.98666 18.4273923,24.98666" id="Fill-2510" fill="#865F2C"></path>
            <path d="M88.1993149,25 C74.3977944,32.3948436 57.6538177,36.8805026 25.0666162,27.6304544 C18.5611859,25.783242 16.7396655,25.7732517 14.6579278,27.4766033 C13.0465828,28.8023203 14.7379946,30.6655172 16.0691057,32.0192071 C20.4427565,36.4619077 31.1817207,46.0666127 57.9540683,47.8139218 C82.6446783,49.4263613 94.5546199,40.2132773 101,33.5617144 C96.876558,30.5016757 92.6029908,27.6254592 88.1993149,25" id="Fill-2511" fill="#F2C425"></path>
            <path d="M56.6606795,37 C47.1181995,37 36.3453997,35.1922197 23.9521788,31.527772 C20.6313158,30.5458706 18.7608297,30.1381319 17.4804969,30.1204493 C16.6502812,30.1090077 15.9901096,29.4006657 16.0001122,28.5394217 C16.0101148,27.6844186 16.6802889,27 17.5005021,27 L17.5205073,27 C19.100918,27.0228833 21.1414484,27.4503849 24.772392,28.5258997 C39.9263304,33.0058248 52.5396085,34.6482213 63.3524186,33.5508633 C64.1726318,33.4634907 64.9128241,34.0938215 64.9928449,34.9509049 C65.0728657,35.8090285 64.4727098,36.5714583 63.642494,36.6557104 C61.3919091,36.8845434 59.071306,37 56.6606795,37" id="Fill-2512" fill="#EFE393"></path>
            <path d="M68.523902,36 C67.8001878,36 67.1682121,35.4829252 67.0255079,34.742195 C66.8726106,33.9070781 67.423041,33.1037654 68.2486867,32.9478222 C74.3238081,31.8080005 80.5416336,29.5324609 86.749266,26.18276 C87.4933664,25.7816166 88.4209437,26.0627247 88.8184768,26.8116625 C89.2160099,27.5606002 88.9407947,28.4931816 88.1865011,28.8953509 C81.7138466,32.3938135 75.1902264,34.7750251 68.8093104,35.9733255 C68.7175719,35.9907665 68.6156404,36 68.523902,36" id="Fill-2513" fill="#EFE393"></path>
            <path d="M76.8931645,40.8551275 C76.0950992,41.1413 75.2735614,40.990409 75.0505726,40.5179642 C74.83932,40.04656 75.3087702,39.4315492 76.1068355,39.1453767 C76.9049008,38.8581636 77.7264386,39.0100952 77.9494274,39.4814994 C78.16068,39.9539442 77.6912298,40.5679143 76.8931645,40.8551275" id="Fill-2514" fill="#C4B633"></path>
            <path d="M80.8931645,35.8548309 C80.0950992,36.141029 79.2735614,35.9911653 79.0505726,35.5186783 C78.83932,35.0461912 79.3087702,34.4321663 80.1068355,34.1449275 C80.9049008,33.8587294 81.7264386,34.0096338 81.9494274,34.4810801 C82.16068,34.9535671 81.6912298,35.5686328 80.8931645,35.8548309" id="Fill-2515" fill="#C4B633"></path>
            <path d="M70.8931645,39.8555227 C70.0950992,40.1407039 69.2735614,39.9908277 69.0505726,39.5193419 C68.83932,39.0468153 69.3087702,38.4316981 70.1068355,38.1444353 C70.9049008,37.8592541 71.7264386,38.0091303 71.9494274,38.4816569 C72.16068,38.9531427 71.6912298,39.5682599 70.8931645,39.8555227" id="Fill-2516" fill="#C4B633"></path>
            <path d="M46.6296058,37.8913862 C46.3625393,38.0283862 46.0876178,37.9563862 46.0169237,37.7303862 C45.9462296,37.5033862 46.1033276,37.2073862 46.3703942,37.0693862 C46.6374607,36.9323862 46.9123822,37.0043862 46.9830763,37.2313862 C47.0537704,37.4583862 46.8966724,37.7533862 46.6296058,37.8913862" id="Fill-2517" fill="#C4B633"></path>
            <path d="M36.6296058,41.8903862 C36.3625393,42.0283862 36.0876178,41.9563862 36.0169237,41.7293862 C35.9462296,41.5023862 36.1033276,41.2073862 36.3703942,41.0693862 C36.6374607,40.9323862 36.9123822,41.0043862 36.9830763,41.2313862 C37.0537704,41.4583862 36.8966724,41.7533862 36.6296058,41.8903862" id="Fill-2518" fill="#C4B633"></path>
            <path d="M18.6306103,30.8908303 C18.3642681,31.0288303 18.0900922,30.9568303 18.0195898,30.7298303 C17.9412539,30.5028303 18.1057594,30.2078303 18.3721017,30.0698303 C18.6384439,29.9318303 18.9126198,30.0048303 18.9831222,30.2318303 C19.0536245,30.4578303 18.8969526,30.7538303 18.6306103,30.8908303" id="Fill-2519" fill="#C4B633"></path>
            <path d="M21.6296058,32.8913862 C21.3625393,33.0283862 21.0876178,32.9563862 21.0169237,32.7303862 C20.9462296,32.5023862 21.1033276,32.2073862 21.3703942,32.0693862 C21.6374607,31.9323862 21.9123822,32.0043862 21.9830763,32.2313862 C22.0537704,32.4583862 21.8966724,32.7533862 21.6296058,32.8913862" id="Fill-2520" fill="#C4B633"></path>
            <path d="M77.6324926,36.8911032 C77.3675074,37.0291032 77.086935,36.9561032 77.0167918,36.7291032 C76.9466487,36.5021032 77.1025223,36.2071032 77.3675074,36.0701032 C77.6324926,35.9321032 77.9052714,36.0041032 77.9832082,36.2311032 C78.0533513,36.4581032 77.8974777,36.7531032 77.6324926,36.8911032" id="Fill-2521" fill="#C4B633"></path>
            <path d="M42.5186665,39.7816967 C41.4502135,40.2120235 40.361014,39.9865157 40.0705607,39.2779248 C39.7801075,38.5703683 40.4128806,37.6476484 41.4813335,37.2173216 C42.5394131,36.7880293 43.638986,37.0145715 43.9294393,37.722128 C44.2198925,38.430719 43.5871194,39.3524044 42.5186665,39.7816967" id="Fill-2522" fill="#C4B633"></path>
            <path d="M84.5423678,0 C84.5423678,0 88.2563255,10.0911642 90.560171,13.4875366 C92.8540861,16.8849085 99.5868758,19.2577714 99.9046476,29.1170466 C100.222419,38.9773214 100.848033,56.6098716 81.2951373,76.9281348 C61.7422421,97.246398 47.2836258,98.7756651 40.9977026,98.9985583 C39.0910719,99.0665257 35.8934933,96.7196504 36.0027273,94.4287482 C36.1516829,91.4861584 36.8765997,88.1587529 42.6858652,84.2776128 C81.9406113,58.0601766 81.8214468,24.1784133 86.1709482,17.2307428 C86.1709482,17.2307428 84.3834819,10.5209582 80.9177833,5.87318547 L84.5423678,0 Z" id="Fill-2523" fill="#C49C33"></path>
            <path d="M86.1709646,17.6363436 C81.8214684,24.5495889 81.9406327,58.2634705 42.6859333,84.3510012 C36.8766747,88.2129105 36.1517587,91.5238289 36.0028034,94.4518384 C35.8935695,96.6985686 39.001771,99 40.9183299,99 C47.2836884,98.7772167 61.7422875,97.2555269 81.2951595,77.0379393 C100.848032,56.8203517 100.222419,39.2751695 99.9046477,29.4637517 C99.5868763,19.6533284 92.8540946,17.2922229 90.5601822,13.9116847 C88.2563395,10.5321411 86.1709646,17.6363436 86.1709646,17.6363436 Z M89.9742912,19.0625547 C90.1728983,19.2475445 90.3814358,19.4295505 90.5899733,19.610562 C93.2413785,21.9607272 95.7537587,24.180604 95.9325051,29.5930456 L95.9325051,29.6785785 C96.2502765,39.2692021 96.766655,55.3225316 78.4451472,74.2700553 C65.4165194,87.7365122 53.1823202,94.5244419 41.0474245,95.0167533 C40.7197227,94.9063562 40.2232049,94.5483116 39.9948067,94.2658541 C40.1040406,92.6148705 40.5211156,90.567054 44.8805421,87.6668924 C76.8165687,66.4388232 83.6685148,40.5611465 87.3427467,26.6580741 C88.1471056,23.6216565 88.9018127,20.7533211 89.5274251,19.7587527 L89.9742912,19.0625547" id="Fill-2524" fill="#865F2C"></path>
            <path d="M89.7637809,21.34784 C85.8756627,42.7771199 84.9135518,63.1862436 47.8177301,88.0060424 C42.3327062,91.6796047 41.1424659,93.0708176 41.0036045,95.8562439 C40.8944992,98.0245758 43.2848984,98.0485795 45.1000148,97.9835695 C51.0313788,97.7715371 64.6993046,96.3253157 83.1678661,77.0903717 C101.646346,57.8564278 101.517404,41.1328682 100.753666,31.8304444 C99.8709045,21.1368077 91.8169454,15.5109466 89.7637809,21.34784" id="Fill-2525" fill="#F2C425"></path>
            <path d="M43.4784666,96 C43.1416132,96 42.784945,95.8771275 42.5075363,95.6273539 C41.8932743,95.0784563 41.8239222,94.1236767 42.368832,93.4952141 C43.3992069,92.2916681 44.9943066,91.0145999 48.0656166,88.9428892 C60.8363217,80.3307365 70.0700665,71.7286553 76.2919461,62.6471699 C76.7675038,61.9612997 77.6888967,61.7951197 78.3626035,62.2715024 C79.0363102,62.7488922 79.2047368,63.6905789 78.7291792,64.3744348 C72.2893357,73.77418 62.7979971,82.634092 49.7102536,91.4607681 C46.9163522,93.3451486 45.440142,94.5104229 44.607916,95.4823241 C44.3106925,95.8247556 43.8945795,96 43.4784666,96" id="Fill-2526" fill="#EFE393"></path>
            <path d="M81.4434402,61 C81.2019747,61 80.9508507,60.933188 80.7190438,60.7955148 C80.033282,60.3754091 79.7918165,59.446115 80.1974785,58.7202938 C85.9636733,48.2662416 87.5959797,38.3912266 89.3345308,27.936162 C89.5953135,26.3762032 89.8560962,24.8132075 90.1265375,23.2451503 C90.2714168,22.4201234 91.0247889,21.8734798 91.8167956,22.0253252 C92.5991436,22.1761584 93.120709,22.966767 92.9758297,23.7917938 C92.7053884,25.3507403 92.4446057,26.9056376 92.1838231,28.4554734 C90.493565,38.7131389 88.7260379,49.3180243 82.6990605,60.2407728 C82.4382778,60.7276905 81.9456883,61 81.4434402,61" id="Fill-2527" fill="#EFE393"></path>
            <path d="M89.8708538,57.8649333 C89.5979547,58.6678991 88.9866608,59.1559763 88.5063584,58.9546725 C88.026056,58.7533688 87.8623166,57.939157 88.1242997,57.1350667 C88.3971988,56.3321009 89.0084927,55.8440237 89.4887951,56.0453275 C89.9690974,56.2466312 90.1437528,57.060843 89.8708538,57.8649333" id="Fill-2530" fill="#C4B633"></path>
            <path d="M89.8679328,50.8647673 C89.6055073,51.6678505 88.9931813,52.1559991 88.512068,51.9546659 C88.0309548,51.7544575 87.8560045,50.9390019 88.1293643,50.1359186 C88.4027241,49.3328354 89.0150501,48.8446868 89.4961634,49.0448952 C89.9772767,49.2473532 90.1412926,50.0616841 89.8679328,50.8647673" id="Fill-2531" fill="#C4B633"></path>
            <path d="M85.8679328,60.8649333 C85.6055073,61.6678991 84.9931813,62.1559763 84.512068,61.9546725 C84.0309548,61.7533688 83.8560045,60.939157 84.1293643,60.1350667 C84.4027241,59.3321009 85.0150501,58.8440237 85.4961634,59.0453275 C85.9772767,59.2466312 86.1412926,60.060843 85.8679328,60.8649333" id="Fill-2532" fill="#C4B633"></path>
            <path d="M69.8557404,77.6215401 C69.7357404,77.8891075 69.4557404,78.0517465 69.2357404,77.985042 C69.0157404,77.917588 68.9357404,77.6462732 69.0557404,77.3787058 C69.1857404,77.1111384 69.4657404,76.9477499 69.6857404,77.0152038 C69.9057404,77.0826578 69.9757404,77.3539727 69.8557404,77.6215401" id="Fill-2533" fill="#C4B633"></path>
            <path d="M65.8557404,88.6217476 C65.7257404,88.8894913 65.4557404,89.0522374 65.2357404,88.984739 C65.0157404,88.9179906 64.9357404,88.646497 65.0557404,88.3787533 C65.1857404,88.1102596 65.4657404,87.9482634 65.6757404,88.0150118 C65.8957404,88.0817603 65.9757404,88.3540039 65.8557404,88.6217476" id="Fill-2534" fill="#C4B633"></path>
            <path d="M45.8526124,94.621447 C45.7326124,94.8890802 45.4526124,95.0517592 45.2326124,94.9850383 C45.0126124,94.9175678 44.9326124,94.6461862 45.0626124,94.378553 C45.1826124,94.1109198 45.4626124,93.9482408 45.6826124,94.0149617 C45.9026124,94.0824322 45.9826124,94.3538138 45.8526124,94.621447" id="Fill-2535" fill="#C4B633"></path>
            <path d="M49.8526124,93.6211212 C49.7326124,93.8888109 49.4526124,94.052274 49.2326124,93.9847892 C49.0126124,93.9173045 48.9326124,93.6466155 49.0626124,93.378176 C49.1826124,93.1104864 49.4626124,92.9477731 49.6826124,93.0152579 C49.9026124,93.0819928 49.9826124,93.3534316 49.8526124,93.6211212" id="Fill-2536" fill="#C4B633"></path>
            <path d="M88.8526124,53.621447 C88.7326124,53.8890802 88.4526124,54.0517592 88.2326124,53.9850383 C88.0126124,53.9175678 87.9326124,53.6461862 88.0626124,53.378553 C88.1826124,53.1109198 88.4626124,52.9482408 88.6826124,53.0149617 C88.9026124,53.0824322 88.9826124,53.3538138 88.8526124,53.621447" id="Fill-2537" fill="#C4B633"></path>
            <path d="M67.8087104,82.4856949 C67.396005,83.5567684 66.483709,84.2085534 65.766905,83.9392947 C65.0392403,83.6710295 64.789445,82.5850523 65.1912896,81.5139788 C65.603995,80.4429053 66.516291,79.7921138 67.233095,80.060379 C67.9607597,80.3286442 68.210555,81.4156149 67.8087104,82.4856949" id="Fill-2538" fill="#C4B633"></path>
            <path d="M51,54 L56.9501661,48 C57.269103,48.0249368 57.5880399,48.0487893 57.9069767,48.0715576 C58.6146179,48.1225154 59.3122924,48.162631 60,48.194073 C58.9634551,49.3411637 57.8770764,50.4871702 56.730897,51.6288399 C54.9169435,52.4658475 53.0033223,53.2616552 51,54" id="Fill-2539" fill="#96813A"></path>
            <path d="M33,68 L40.0876133,64.0820116 L50.2921882,54.2560928 C52.2874407,53.5535783 54.1933535,52.7963894 56,52 C50.0738023,57.6438427 42.5891239,63.1587363 33,68" id="Fill-2540" fill="#7C6E3A"></path>
            <path d="M42.7064131,69 C41.4776023,68.9584098 40.2288108,68.8620423 39,68.6977104 C49.2300999,63.1317264 57.811795,56.379915 64.914921,48.3175056 C66.6832098,48.2718578 68.3815662,48.1633176 70,48 C64.2355785,55.1727852 55.8636803,62.1913825 42.7064131,69" id="Fill-2541" fill="#7F6B39"></path>
            <path d="M38.9705237,68 C36.8933835,67.7298774 34.8664158,67.2690799 33,66.5490839 C44.5597366,60.9917076 53.0990906,54.5137296 59.5412355,48 C60.7253057,48.0496549 61.8792725,48.0734892 63.0131703,48.0734892 C63.6854813,48.0734892 64.3477579,48.0645514 65,48.0476687 C57.8654751,55.9408114 49.2458451,62.5508714 38.9705237,68" id="Fill-2542" fill="#5F482D"></path>
            <path d="M53.9670954,76 C56.5040383,73.4433325 59.1594376,70.2670799 59.169309,68.1944319 C59.169309,67.708404 59.0212384,67.2836317 58.6954831,66.941203 C58.6954831,66.941203 57.5504038,67.2464767 55.6847143,67.6059767 C55.6945857,67.5999515 55.6945857,67.5939264 55.6945857,67.5879012 C55.8722704,67.2665605 55.8525277,66.9090689 55.6353575,66.7885661 C55.595872,66.761453 55.5366437,66.7494027 55.4872869,66.7494027 C55.2898594,66.7494027 55.0726892,66.9030437 54.93449,67.1520828 C54.8160335,67.3659753 54.7864194,67.5959348 54.8456476,67.7616261 C53.8683817,67.9373593 52.7331738,68.1171093 51.4893808,68.2727588 C57.8564164,64.4698916 63.1770864,60.4270231 67.5797188,56.0778767 C68.1621298,55.4984591 68.1720012,54.5444787 67.6093329,53.9469857 C67.3131917,53.6437204 66.9282082,53.4920877 66.5432246,53.4920877 C66.1681125,53.4920877 65.8028717,53.6336785 65.5067305,53.9178642 C60.0972181,59.2772257 53.1773856,64.1716472 44.5498056,68.7336819 C44.5399342,68.7336819 44.5300628,68.7336819 44.5300628,68.7336819 C44.0266228,68.7336819 43.5133114,68.7256484 43,68.707573 C56.0005983,61.9674504 64.2728089,55.0194605 69.9685911,47.9188338 C70.2746036,47.8877039 70.5904876,47.8545656 70.8866288,47.819419 C70.3042178,48.5936494 69.702064,49.3437792 69.0801675,50.0708127 C68.5471134,50.7004398 68.616213,51.6524118 69.2381095,52.1956785 C69.5145079,52.441705 69.860006,52.5622078 70.1956327,52.5622078 C70.6201017,52.5622078 71.024828,52.3854704 71.3209692,52.0400291 C72.6141191,50.521694 73.8381693,48.9049482 75.0128627,47.195817 C75.338618,47.1335573 75.6742447,47.0682849 76,47 C73.4038289,52.4668098 69.9685911,58.2870944 65.2895603,64.1465425 C65.2895603,64.1475467 65.2895603,64.1475467 65.2895603,64.1475467 C65.2895603,64.1475467 64.3221657,65.3555871 62.7921029,67.1390284 C60.2058032,70.1114305 57.2838768,73.0768032 53.9670954,76" id="Fill-2543" fill="#937C39"></path>
            <path d="M44,69 C52.8208099,64.510278 59.8956242,59.6934379 65.4262922,54.4190275 C65.729066,54.1393464 66.102487,54 66.4860005,54 C66.8796065,54 67.2732124,54.1492291 67.5759862,54.4476874 C68.1512564,55.0357096 68.1411639,55.9745685 67.5457088,56.5448017 C63.0444717,60.8250099 57.6046359,64.803795 51.0949993,68.5463829 C48.9654902,68.8053103 46.523115,68.9990117 44,69" id="Fill-2544" fill="#8F8A3B"></path>
            <path d="M70.4056051,52 C70.0855038,52 69.7559878,51.8877246 69.492375,51.6584955 C68.8992461,51.1523204 68.8333429,50.2653443 69.3417391,49.6787051 C69.9348679,49.0013099 70.5091673,48.3023952 71.0646372,47.5810254 C72.429775,47.4266467 73.7384244,47.2311003 75,47 C73.8796455,48.5924401 72.7122173,50.0988024 71.4788859,51.5134731 C71.1964436,51.8353293 70.8104391,52 70.4056051,52" id="Fill-2545" fill="#8F8A3B"></path>
            <path d="M55.1186357,67.3978175 C55.257044,67.1517857 55.4745428,67 55.6722689,67 C55.7217004,67 55.7810183,67.0119048 55.8205635,67.0386905 C56.0380623,67.1577381 56.0578349,67.5109127 55.8798814,67.828373 C55.8798814,67.8343254 55.8798814,67.8402778 55.8699951,67.8462302 C55.6030648,67.8968254 55.3262481,67.9484127 55.0296589,68 C54.9703411,67.8363095 55,67.609127 55.1186357,67.3978175 Z" id="Fill-2546" fill="#7C793C"></path>
            <path d="M84.7115385,23 C84.4711538,22.8927173 84.2403846,22.7870008 84,22.6812843 L84.9038462,22 C84.9423077,22.0430697 84.9711538,22.0853563 85,22.128426 C84.9038462,22.4087706 84.8076923,22.6985121 84.7115385,23" id="Fill-2547" fill="#96813A"></path>
            <path d="M85.1,22.35 C85.07,22.295 85.04,22.241 85,22.186 L85.2,22 C85.17,22.115 85.14,22.232 85.1,22.35" id="Fill-2548" fill="#7C6E3A"></path>
            <path d="M75,31 L80.1553273,26 C81.1103979,26.5288565 82.055199,27.0759494 83,27.640206 C82.9897304,27.6992062 82.9691913,27.7592791 82.9589217,27.8182793 C80.4531451,29.0197383 77.8138639,30.0978331 75,31" id="Fill-2549" fill="#7F6B39"></path>
            <path d="M83.8854167,27 C82.9270833,26.5218182 81.96875,26.0581818 81,25.61 L84.2291667,23 C84.4895833,23.1227273 84.7395833,23.2454545 85,23.37 C84.65625,24.4681818 84.2916667,25.6836364 83.8854167,27" id="Fill-2550" fill="#5F482D"></path>
            <path d="M63.5883234,49 C62.446482,49 61.2844311,48.9757669 60.0920659,48.9252813 C59.3948353,48.8959996 58.6875,48.8586403 57.9700599,48.8111838 C57.6467066,48.7899798 57.3233533,48.7677661 57,48.7445427 L70.5303144,36.2170401 C74.5621257,35.4122993 78.6545659,34.1370324 82.7571108,32.4053755 C82.5651198,33.0546206 82.363024,33.7190114 82.1407186,34.3955188 C82.0497754,34.3753246 81.9487275,34.3652274 81.8476796,34.3652274 C81.6253743,34.3652274 81.3929641,34.4106645 81.1504491,34.5055775 C80.4633234,34.7842581 80.0591317,35.3799885 80.241018,35.8383979 C80.3622754,36.1392922 80.7159431,36.3048851 81.1302395,36.3048851 C81.2616018,36.3048851 81.4030689,36.2887297 81.5445359,36.2554092 C80.3521707,39.7995 78.8667665,43.6687181 76.9064371,47.7338206 C76.572979,47.802481 76.2294162,47.8681123 75.8959581,47.9307145 C74.5419162,48.1801135 73.1373503,48.3911434 71.6721557,48.5577459 C71.369012,48.5930859 71.0456587,48.6264064 70.7324102,48.6577075 C69.0954341,48.8202712 67.3776198,48.9283104 65.5890719,48.9737475 C64.9322605,48.9909126 64.2653443,49 63.5883234,49 M76.8963323,39.1240023 C76.6740269,39.1240023 76.4416168,39.1704491 76.1991018,39.2653621 C75.511976,39.543033 75.1077844,40.1397731 75.2896707,40.5971728 C75.4109281,40.8980671 75.7645958,41.0646697 76.1788922,41.0646697 C76.4011976,41.0646697 76.6336078,41.0192326 76.8761228,40.9243196 C77.5632485,40.645639 77.9674401,40.0499086 77.7855539,39.5914992 C77.6642964,39.2906049 77.3106287,39.1240023 76.8963323,39.1240023 M71.369012,38.5989518 C71.1467066,38.5989518 70.9142964,38.6443889 70.6717814,38.7393019 C69.9846557,39.0179825 69.5804641,39.6147226 69.7623503,40.073132 C69.8836078,40.3730166 70.2372754,40.5396192 70.6515719,40.5396192 C70.8738772,40.5396192 71.1062874,40.4941821 71.3488024,40.3992692 C72.0359281,40.1205885 72.4401198,39.5238484 72.2582335,39.0664487 C72.136976,38.7655544 71.7833084,38.5989518 71.369012,38.5989518 M78.3716317,36.7542071 C78.260479,36.7542071 78.1392216,36.7764208 78.0179641,36.824887 C77.6744012,36.9632176 77.4723054,37.2610828 77.5632485,37.4902875 C77.6238772,37.6407347 77.8057635,37.7245408 78.0078593,37.7245408 C78.119012,37.7245408 78.2402695,37.7013174 78.3615269,37.6538609 C78.7050898,37.5145206 78.9071856,37.2166554 78.8162425,36.9874507 C78.7556138,36.8370036 78.5737275,36.7542071 78.3716317,36.7542071 M75.1380988,31.9429272 L76.1687874,30.9948072 C78.9375,30.145639 81.5344311,29.130878 84,28 C83.9393713,28.2039619 83.8888473,28.4069141 83.8282186,28.6139052 C80.9281437,29.9649005 78.0179641,31.0765939 75.1380988,31.9429272" id="Fill-2551" fill="#937C39"></path>
            <path d="M70,36 L74.5045593,31.5027888 C77.3199088,30.5912351 80.1648936,29.4215139 83,28 C82.6838906,29.2600266 82.3381459,30.5922975 81.9528875,31.9893758 C77.9422492,33.811421 73.9414894,35.1532537 70,36" id="Fill-2552" fill="#8F8A3B"></path>
            <path d="M76.083363,41 C75.6021765,41 75.1914076,40.8283039 75.0505726,40.5182102 C74.83932,40.0468262 75.3087702,39.4318418 76.1068355,39.1456816 C76.3885056,39.0478668 76.6584394,39 76.916637,39 C77.3978235,39 77.8085924,39.1716961 77.9494274,39.4817898 C78.16068,39.9542144 77.6912298,40.5681582 76.8931645,40.855359 C76.6114944,40.9531738 76.3415606,41 76.083363,41" id="Fill-2553" fill="#7C793C"></path>
            <path d="M79.9600076,36 C79.5336107,36 79.1696133,35.8292556 79.0448142,35.5190005 C78.8576156,35.04633 79.2736125,34.4320666 79.9808074,34.1447163 C80.2304056,34.0468506 80.4696039,34 80.6984022,34 C80.8024014,34 80.9064007,34.0104112 81,34.0312337 C80.8024014,34.6600729 80.6048029,35.2982821 80.3864045,35.9489849 C80.2408055,35.983342 80.0952066,36 79.9600076,36" id="Fill-2554" fill="#7C793C"></path>
            <path d="M70.083363,40 C69.6021765,40 69.1914076,39.8283039 69.0505726,39.5192508 C68.83932,39.0468262 69.3087702,38.4318418 70.1068355,38.144641 C70.3885056,38.0468262 70.6584394,38 70.916637,38 C71.3978235,38 71.8085924,38.1716961 71.9494274,38.4817898 C72.16068,38.9531738 71.6912298,39.5681582 70.8931645,39.855359 C70.6114944,39.9531738 70.3415606,40 70.083363,40" id="Fill-2555" fill="#7C793C"></path>
            <path d="M77.3597138,36.961 C77.2038402,36.961 77.0635539,36.878 77.0167918,36.729 C76.9466487,36.502 77.1025223,36.207 77.3675074,36.07 C77.4610316,36.022 77.5545558,36 77.6402862,36 C77.7961598,36 77.9364461,36.082 77.9832082,36.231 C78.0533513,36.458 77.8974777,36.753 77.6324926,36.891 C77.5389684,36.938 77.4454442,36.961 77.3597138,36.961" id="Fill-2556" fill="#7C793C"></path>
            <path d="M74,59 C82.2329579,46.3743744 85.3770006,34.5745746 87.4931832,26.6446446 C88.309425,23.5885886 89.0752816,20.7017017 89.7101363,19.7007007 L90.163604,19 C90.3651452,19.1861862 90.5767635,19.3693694 90.7883817,19.5515516 C90.8589212,19.6156156 90.9294606,19.6796797 91,19.7437437 C90.5263782,20.1301301 90.1333729,20.7137137 89.8411381,21.5105105 C87.8761114,32.2112112 86.6366331,42.6546547 81.2252519,53.5215215 C79.219917,55.2842843 76.8518079,57.0970971 74,59" id="Fill-2557" fill="#7F6B39"></path>
            <path d="M49,80 C49,80 51.2054394,78.2046418 53.5196673,75.9005822 C56.8426613,73.0083366 59.7700607,70.0743616 62.3612048,67.1334317 C59.1469993,70.8423814 53.4405484,77.0670186 49,80 M64.8633401,64.1726306 C78.5311306,47.259303 81.6167678,30.669875 84.0298944,22.2037724 L90.6956619,16 C90.6956619,16 91.8626658,17.2598308 93,19.4178375 C92.6538548,19.3164946 92.3274893,19.2658232 92.0110137,19.2658232 C91.3978422,19.2658232 90.8440099,19.452612 90.3594066,19.8440736 C90.2901776,19.7804859 90.2209485,19.7168982 90.1517195,19.6533106 C89.9440324,19.4724831 89.7363452,19.2906621 89.538548,19.1058604 L89.0935042,19.8013506 C88.4704428,20.794908 87.7188132,23.6603276 86.9177343,26.6936583 C84.8408631,34.56462 81.7552259,46.2766747 73.6752079,58.8084142 C71.1532929,60.5133587 68.2456732,62.2918264 64.8633401,64.1726306" id="Fill-2558" fill="#5F482D"></path>
            <path d="M81,53 C86.1919319,42.2471013 87.3811453,31.9131853 89.2664837,21.3247101 C89.5468673,20.5362699 89.923935,19.9588067 90.3783499,19.5764726 C90.8521016,19.1862145 91.3935321,19 91.992973,19 C92.3023619,19 92.6214192,19.0505156 92.9598132,19.1515469 C93.9943322,21.1672202 94.9998461,23.9693527 94.9998461,27.2617841 C95.0095145,29.4597098 94.564768,31.8755462 93.3852229,34.4211385 C91.5385581,38.4079124 89.9529402,41.9776846 87.5648449,45.4989221 C89.3921729,39.500437 90.3880183,33.6079357 91.3645269,27.8283517 C91.6255738,26.3118919 91.8866206,24.7904795 92.1573359,23.2651052 C92.3023619,22.4578454 91.7802682,21.6842627 90.9971276,21.5366777 C90.9004436,21.5198392 90.813428,21.5119152 90.7264124,21.5119152 C90.0399558,21.5119152 89.4308465,22.0131096 89.3051573,22.7302336 C89.034442,24.2645225 88.7733952,25.7938589 88.5123483,27.3202237 C87.0910932,35.7068112 85.7278486,43.7110645 82.1118662,51.959972 C81.7541354,52.304667 81.3770677,52.6523335 81,53" id="Fill-2559" fill="#937C39"></path>
            <path d="M83,53 C86.5909661,44.6015615 87.9447795,36.4522121 89.356202,27.9135979 C89.6154429,26.3595641 89.8746837,24.8025049 90.1435261,23.2404034 C90.2683458,22.5102798 90.8732411,22 91.5549486,22 C91.6413622,22 91.7277759,22.0080677 91.823791,22.0252115 C92.6015136,22.1754717 93.1199953,22.9630774 92.9759726,23.7849707 C92.7071302,25.3379961 92.4478894,26.8869876 92.1886485,28.4309369 C91.2188956,34.3152895 90.2299397,40.3146064 88.4152537,46.4218282 C86.9750266,48.6041314 85.2467542,50.7682824 83,53" id="Fill-2560" fill="#8F8A3B"></path>
            <path d="M94,2 C94,2 91.7439146,12.2620504 91.8943203,16.3397462 C92.044726,20.4184466 96.607032,26.3054379 91.5233196,34.3684057 C86.4396072,42.4323782 77.4052386,56.8866495 49.3796447,61.515874 C21.3440237,66.1450985 7.94789001,58.7863595 2.37285235,55.2390957 C0.678281553,54.1581396 -0.825775369,50.3848394 0.517848814,48.6247697 C2.24250075,46.3623969 4.67907296,44.1331762 11.8383839,44.4797653 C60.1888004,46.8265249 78.4881596,19.6941257 86.0485524,16.7275241 C86.0485524,16.7275241 88.1442051,10.3090963 87.6528798,4.54064861 L94,2" id="Fill-2561" fill="#C49C33"></path>
            <path d="M94,2 L85.4945086,5.75643659 C85.9858338,11.5249148 86.0485524,16.7276021 86.0485524,16.7276021 C78.8090251,19.5716568 61.6828303,44.6236495 17.6841518,44.6236495 C15.7890401,44.6236495 13.8337661,44.5774374 11.8383839,44.4799901 C11.3370316,44.4558794 10.8657604,44.4448287 10.4045163,44.4448287 C4.34818044,44.4448287 2.1221762,46.5203557 0.517848814,48.6250165 C-0.825775369,50.3850955 0.678281553,54.1584157 2.37285235,55.2393775 C6.68448219,57.9809618 15.6687155,63 32.4640178,63 C37.3973245,63 43.0124704,62.5670125 49.3796447,61.5161891 C77.4052386,56.8869401 86.4396072,42.4325922 91.5233196,34.3685771 C96.607032,26.3055665 92.044726,20.4185441 91.8943203,16.3398221 C91.7439146,12.2621047 94,2 94,2 Z M88.5352599,20.0689394 C88.6455574,20.4557148 88.7558549,20.845504 88.8761794,21.2413208 C89.8889111,24.6680501 90.8515075,27.9049078 88.134178,32.2237319 L88.0840428,32.2940547 C83.1507361,40.1239954 74.8884501,53.2291502 48.7178596,57.5519928 C42.9723622,58.5003458 37.507622,58.9815547 32.4640178,58.9815547 C17.5738543,58.9815547 9.44191988,54.9621047 4.61891069,51.9060771 C4.38828863,51.6509058 4.11755838,51.0551713 4.03734201,50.6432806 C4.89966798,49.5824111 6.25331921,48.463274 10.4045163,48.463274 C10.7955711,48.463274 11.216707,48.4733202 11.637843,48.494417 C13.6733334,48.5928689 15.6987967,48.6420949 17.6841518,48.6420949 C53.1097058,48.6420949 71.8502551,33.0414855 81.9274364,24.6600132 C84.1534407,22.8014822 86.4596613,20.8806653 87.5125011,20.4687747 L88.5352599,20.0689394 Z" id="Fill-2562" fill="#865F2C"></path>
            <path d="M85.8306511,21.7389807 C70.8901944,36.6327137 59.0315809,52.4538286 13.5320059,50.2188079 C6.79982418,49.8881058 5.02452292,50.2966797 3.38885209,52.451806 C2.13217817,54.1285772 4.1867403,55.5788123 5.78251671,56.6083377 C11.0386053,59.9871631 23.6352653,66.9956218 50.0154442,62.5862596 C76.3856494,58.1779088 85.3120238,44.6646298 89.6704881,36.7318232 C94.6872102,27.6137478 90.7576108,18.2752042 85.8306511,21.7389807" id="Fill-2563" fill="#F2C425"></path>
            <path d="M22.7831466,53 C20.084881,53 17.2870485,52.933114 14.3896489,52.7974308 C10.9645443,52.6378598 9.05285804,52.6799025 7.8082706,52.9407581 C7.00177795,53.1089287 6.20524199,52.619705 6.0359781,51.8476489 C5.85675751,51.0736818 6.36454918,50.3102253 7.17104184,50.1410991 C8.71433026,49.8181351 10.775367,49.7598487 14.5389994,49.9347079 C30.190931,50.6628103 42.7861558,49.3996195 53.0315996,46.0753829 C53.8082221,45.8231269 54.6545416,46.2244432 54.9233725,46.973567 C55.1822467,47.7236462 54.7640653,48.5367895 53.9874427,48.7909565 C45.2952441,51.6106812 35.0298869,53 22.7831466,53" id="Fill-2564" fill="#EFE393"></path>
            <path d="M58.4844437,47 C57.9188169,47 57.3730366,46.6663055 57.1249547,46.1054994 C56.7974865,45.3494572 57.134878,44.467906 57.8890471,44.1371998 C68.5168772,39.4594997 75.2051662,32.7368 82.280463,25.6196435 C83.3323304,24.5558054 84.3941211,23.4899751 85.4658351,22.4281293 C86.0513084,21.8503895 86.9940198,21.8583583 87.5695699,22.4460591 C88.14512,23.034756 88.14512,23.981054 87.5596466,24.5597898 C86.4879326,25.6136669 85.4360652,26.6725245 84.3841978,27.7293898 C77.4279803,34.7309984 70.2336042,41.9696795 59.0897636,46.874491 C58.8912981,46.9601559 58.6829093,47 58.4844437,47" id="Fill-2565" fill="#EFE393"></path>
            <path d="M90.6015552,3.30147189 C90.6015552,3.30147189 86.1168987,19.1753137 88.923842,17.9304275 C91.7415399,16.6855414 91.7415399,16.6855414 91.7415399,16.6855414 L94,2 L90.6015552,3.30147189" id="Fill-2566" fill="#F2C425"></path>
            <path d="M91.0027959,0.0294847306 C88.344207,-0.547356903 81.89386,7.53765544 86.7752037,6.97158151 C89.8115156,6.61778531 93.341773,4.56730558 93.9228854,2.71987411 C94.257025,1.61233817 93.5451624,0.578637966 91.0027959,0.0294847306" id="Fill-2567" fill="#7B7967"></path>
            <path d="M65.0936699,49.7252232 C64.8608511,49.3455596 65.07704,48.7124706 65.5759373,48.3119255 C66.0748346,47.9113804 66.6651964,47.8942956 66.9063301,48.2739592 C67.1391489,48.6536227 66.92296,49.2867118 66.4240627,49.688206 C65.9251654,50.0887511 65.3264886,50.1058359 65.0936699,49.7252232 Z" id="Fill-2568" fill="#C4B633"></path>
            <path d="M70.4231517,43.688095 C69.9234652,44.0886137 69.3321695,44.1056975 69.0989825,43.7260589 C68.8574674,43.3454711 69.0739982,42.7133728 69.5736847,42.311905 C70.0733711,41.9113863 70.6729949,41.8943025 70.9061819,42.2739411 C71.139369,42.6545289 70.9228382,43.2866272 70.4231517,43.688095" id="Fill-2569" fill="#C4B633"></path>
            <path d="M61.4220545,50.688095 C60.9214176,51.0886137 60.3289973,51.1056975 60.0953668,50.7260589 C59.8617363,50.3454711 60.070335,49.7133728 60.5793158,49.311905 C61.0716087,48.9113863 61.672373,48.8943025 61.9060035,49.2739411 C62.139634,49.6545289 61.9226914,50.2866272 61.4220545,50.688095" id="Fill-2570" fill="#C4B633"></path>
            <path d="M37.7120314,53.8439569 C37.4625827,54.0443326 37.1632443,54.0528795 37.0468349,53.8629498 C36.9304256,53.6730202 37.03852,53.3567873 37.2879686,53.1564116 C37.5374173,52.9560358 37.8367557,52.9465393 37.9531651,53.1374186 C38.0695744,53.3273482 37.96148,53.6435811 37.7120314,53.8439569" id="Fill-2571" fill="#C4B633"></path>
            <path d="M28.7120314,60.8439529 C28.4625827,61.0443337 28.1632443,61.0528808 28.0468349,60.8629464 C27.9304256,60.673012 28.03852,60.3567712 28.2879686,60.1563904 C28.5374173,59.95506 28.8367557,59.9474626 28.9531651,60.137397 C29.0695744,60.3273314 28.96148,60.6435722 28.7120314,60.8439529" id="Fill-2572" fill="#C4B633"></path>
            <path d="M8.71203136,53.8440475 C8.4625827,54.0443069 8.16324432,54.0528487 8.04683495,53.8630294 C7.93042557,53.672261 8.03851999,53.3562119 8.28796864,53.1559525 C8.5374173,52.9556931 8.83675568,52.9471513 8.95316505,53.1369706 C9.06957443,53.3267899 8.96148001,53.6437881 8.71203136,53.8440475" id="Fill-2573" fill="#C4B633"></path>
            <path d="M12.7120314,54.8439365 C12.4625827,55.0443384 12.1632443,55.0528863 12.0468349,54.862932 C11.9304256,54.6729776 12.03852,54.3567036 12.2879686,54.155352 C12.5374173,53.9558999 12.8367557,53.947352 12.9531651,54.1363566 C13.0695744,54.3272607 12.96148,54.6435347 12.7120314,54.8439365" id="Fill-2574" fill="#C4B633"></path>
            <path d="M67.7172644,46.8440475 C67.4581083,47.0443069 67.1655127,47.0528487 67.0484745,46.8630294 C66.9314362,46.6732101 67.0317547,46.3562119 67.2909108,46.1559525 C67.541707,45.9556931 67.8343026,45.9471513 67.9513409,46.1369706 C68.0683791,46.327739 67.9680606,46.6437881 67.7172644,46.8440475" id="Fill-2575" fill="#C4B633"></path>
            <path d="M33.8466073,56.5320161 C32.8532114,57.1331004 31.6611364,57.158578 31.1865139,56.5886332 C30.7229292,56.0186883 31.1534007,55.0694092 32.1467966,54.468325 C33.1512302,53.8662971 34.3433052,53.8417631 34.80689,54.411708 C35.2815124,54.9816528 34.8510409,55.9299883 33.8466073,56.5320161" id="Fill-2576" fill="#C4B633"></path>
        </g>
    </g>
</svg>