<?xml version="1.0" encoding="UTF-8"?>
<svg width="112px" height="115px" viewBox="0 0 112 115" version="1.1" xmlns="http://www.w3.org/2000/svg" xmlns:xlink="http://www.w3.org/1999/xlink">
    <!-- Generator: Sketch 51.3 (57544) - http://www.bohemiancoding.com/sketch -->
    <title>Artboard 2</title>
    <desc>Created with Sketch.</desc>
    <defs>
        <polygon id="path-1" points="0.623655868 0.658867057 40.257 0.658867057 40.257 92.3678428 0.623655868 92.3678428"></polygon>
    </defs>
    <g id="Artboard-2" stroke="none" stroke-width="1" fill="none" fill-rule="evenodd">
        <g id="Group-162">
            <path d="M103.5405,46.9714 C103.3945,45.2044 103.0465,43.5794 102.5645,42.1174 C101.4735,34.9764 96.6255,32.4294 94.1145,29.7254 L96.0475,16.5824 C96.2835,15.8634 95.7865,15.1904 94.0435,14.8324 C92.5675,14.5314 89.3945,17.8904 89.9815,19.0084 L89.7245,19.1124 C89.7715,19.6814 89.7885,20.2574 89.7905,20.8324 L87.3125,15.3104 C87.1105,14.5524 86.3525,14.2664 84.7755,14.9804 C83.4405,15.5844 82.7405,20.3284 83.8115,20.9464 L83.6625,21.1854 C85.9655,24.2554 87.5265,28.2124 88.3265,30.5554 C88.2015,30.9924 88.1195,31.2424 88.1195,31.2424 C80.5835,34.1964 62.3255,61.2034 14.1065,58.8674 C6.9705,58.5224 4.5425,60.7414 2.8175,62.9924 C1.4765,64.7454 2.9765,68.5004 4.6715,69.5774 C7.1975,71.1814 11.3395,73.5644 17.7175,75.2594 C23.4615,77.2564 31.6445,78.7924 43.0715,78.0084 L42.7465,78.3104 C42.7015,78.3364 42.6565,78.3624 42.6115,78.3884 L35.6545,82.0904 C33.7005,83.0414 31.6645,83.9674 29.5335,84.8614 C22.9435,87.6224 21.7075,90.6714 21.1225,93.4464 C20.6655,95.6064 23.6375,98.3494 25.6305,98.5904 C28.6015,98.9494 33.3655,99.3164 39.8525,98.0984 C42.9855,97.7494 46.6525,97.0114 50.8525,95.5944 C49.0505,96.9544 47.1585,98.3014 45.1595,99.6274 C39.3095,103.5104 38.5825,106.8384 38.4325,109.7844 C38.3155,112.0754 41.5365,114.4234 43.4645,114.3554 C46.3355,114.2544 50.9115,113.8764 56.8905,111.5984 C64.0585,109.5024 73.9495,104.4724 85.8115,92.2244 C104.4385,72.9924 104.3125,56.2724 103.5405,46.9714" id="Fill-1" fill="#BFBEBE"></path>
            <path d="M79.6806,3.3796 C79.6806,3.3796 86.7156,11.5266 90.0766,13.8996 C93.4366,16.2726 100.6136,16.1236 104.3666,25.2526 C108.1186,34.3806 114.8856,50.6846 103.5596,76.6186 C92.2336,102.5546 79.1286,109.0846 73.2836,111.5086 C71.5016,112.2466 67.6616,111.1746 66.9696,108.9866 C66.0796,106.1766 65.5956,102.8036 69.7156,97.1186 C97.5566,58.7106 85.5776,26.9986 87.2506,18.9536 C87.2506,18.9536 83.2146,13.2956 78.3186,10.1616 L79.6806,3.3796 Z" id="Fill-3" fill="#CDA12B"></path>
            <path d="M79.6806,3.3796 L78.3186,10.1616 C83.2146,13.2956 87.2506,18.9536 87.2506,18.9536 C85.5776,26.9986 97.5566,58.7106 69.7156,97.1186 C65.5956,102.8036 66.0796,106.1766 66.9696,108.9866 C67.5146,110.7096 70.0116,111.7396 71.9176,111.7396 C72.4326,111.7396 72.9046,111.6646 73.2836,111.5086 C79.1286,109.0846 92.2336,102.5546 103.5596,76.6186 C114.8856,50.6846 108.1186,34.3806 104.3666,25.2526 C100.6136,16.1236 93.4366,16.2726 90.0766,13.8996 C86.7156,11.5266 79.6806,3.3796 79.6806,3.3796 M91.3346,18.9576 C91.5936,19.0596 91.8526,19.1576 92.1096,19.2566 C95.4456,20.5316 98.5966,21.7366 100.6666,26.7736 L100.6996,26.8536 C104.3676,35.7766 110.5086,50.7126 99.8936,75.0186 C92.3516,92.2896 83.2016,102.9956 71.9266,107.7396 L71.9176,107.7396 C71.4796,107.7396 70.9486,107.5646 70.6656,107.4036 C70.1866,105.8116 69.8596,103.7356 72.9536,99.4666 C95.6086,68.2146 92.9556,41.4286 91.5316,27.0376 C91.2206,23.8946 90.9256,20.9256 91.1666,19.7676 L91.3346,18.9576" id="Fill-5" fill="#926728"></path>
            <g id="Group-9" transform="translate(71.000000, 17.357000)">
                <mask id="mask-2" fill="white">
                    <use xlink:href="#path-1"></use>
                </mask>
                <g id="Clip-8"></g>
                <path d="M20.9208,4.0597 C24.7478,25.5027 30.9788,44.9587 4.6388,81.2957 C0.7408,86.6727 0.1088,88.3947 0.9508,91.0537 C1.6058,93.1227 3.8748,92.2997 5.5608,91.6017 C11.0898,89.3087 23.4888,83.1297 34.2038,58.5947 C44.9188,34.0587 38.9458,18.4407 34.9668,9.9987 C30.3918,0.2947 20.8148,-2.1313 20.9208,4.0597" id="Fill-7" fill="#F9FF00" mask="url(#mask-2)"></path>
            </g>
            <path d="M74.0243,107.1042 C73.8483,107.1042 73.6703,107.0732 73.4963,107.0072 C72.7203,106.7162 72.3293,105.8512 72.6203,105.0762 C73.1783,103.5912 74.2473,101.8382 76.4303,98.8262 C85.5073,86.3032 91.2473,75.0412 93.9763,64.3942 C94.1823,63.5922 94.9953,63.1082 95.8013,63.3142 C96.6043,63.5202 97.0883,64.3362 96.8823,65.1392 C94.0573,76.1582 88.1623,87.7522 78.8603,100.5852 C76.8733,103.3282 75.8783,104.9352 75.4283,106.1322 C75.2023,106.7342 74.6303,107.1042 74.0243,107.1042" id="Fill-10" fill="#F0E394"></path>
            <path d="M96.5702,60.9079 C96.4872,60.9079 96.4032,60.9009 96.3192,60.8869 C95.5032,60.7499 94.9522,59.9749 95.0892,59.1589 C97.0682,47.3939 95.2412,37.6639 93.3052,27.3609 C93.0172,25.8239 92.7272,24.2839 92.4512,22.7329 C92.3052,21.9179 92.8482,21.1379 93.6642,20.9929 C94.4752,20.8469 95.2582,21.3889 95.4042,22.2059 C95.6792,23.7479 95.9662,25.2789 96.2542,26.8069 C98.1522,36.9139 100.1152,47.3659 98.0482,59.6569 C97.9242,60.3889 97.2892,60.9079 96.5702,60.9079" id="Fill-12" fill="#F0E394"></path>
            <path d="M78.9999,6.7702 C78.9999,6.7702 89.2129,19.7122 89.6449,16.8062 L90.0759,13.8992 L79.6809,3.3792 L78.9999,6.7702 Z" id="Fill-14" fill="#F9FF00"></path>
            <path d="M77.1889,3.9587 C75.9009,5.2397 77.7549,12.1467 79.2629,9.1477 C80.2049,7.2737 80.4379,4.4437 79.6809,3.3797 C79.2269,2.7407 78.4159,2.7377 77.1889,3.9587" id="Fill-16" fill="#82806F"></path>
            <path d="M104.4906,55.0641 C104.5086,55.8201 104.1376,56.4211 103.6626,56.4081 C103.1886,56.3941 102.7896,55.7701 102.7716,55.0141 C102.7536,54.2581 103.1236,53.6571 103.5986,53.6701 C104.0736,53.6841 104.4726,54.3081 104.4906,55.0641" id="Fill-18" fill="#CBBC2D"></path>
            <path d="M101.8808,48.4928 C101.8988,49.2488 101.5278,49.8508 101.0528,49.8368 C100.5788,49.8228 100.1798,49.1998 100.1618,48.4428 C100.1438,47.6868 100.5138,47.0858 100.9888,47.0988 C101.4638,47.1128 101.8628,47.7368 101.8808,48.4928" id="Fill-20" fill="#CBBC2D"></path>
            <path d="M102.1518,60.0143 C102.1698,60.7703 101.7988,61.3713 101.3248,61.3583 C100.8498,61.3443 100.4508,60.7203 100.4328,59.9643 C100.4148,59.2083 100.7858,58.6063 101.2598,58.6193 C101.7348,58.6343 102.1338,59.2573 102.1518,60.0143" id="Fill-22" fill="#CBBC2D"></path>
            <path d="M92.4999,81.4753 C92.5089,81.8533 92.3239,82.1543 92.0859,82.1473 C91.8489,82.1403 91.6489,81.8293 91.6409,81.4513 C91.6319,81.0733 91.8169,80.7723 92.0539,80.7793 C92.2919,80.7863 92.4909,81.0973 92.4999,81.4753" id="Fill-24" fill="#CBBC2D"></path>
            <path d="M92.7695,92.9089 C92.7785,93.2869 92.5935,93.5879 92.3555,93.5809 C92.1185,93.5739 91.9185,93.2619 91.9095,92.8839 C91.9005,92.5059 92.0855,92.2049 92.3235,92.2119 C92.5615,92.2189 92.7605,92.5309 92.7695,92.9089" id="Fill-26" fill="#CBBC2D"></path>
            <path d="M76.0917,105.7106 C76.1007,106.0886 75.9157,106.3906 75.6777,106.3836 C75.4407,106.3766 75.2407,106.0646 75.2327,105.6866 C75.2227,105.3086 75.4087,105.0076 75.6457,105.0146 C75.8837,105.0216 76.0827,105.3326 76.0917,105.7106" id="Fill-28" fill="#CBBC2D"></path>
            <path d="M79.4145,103.0036 C79.4235,103.3816 79.2385,103.6826 79.0005,103.6756 C78.7635,103.6686 78.5635,103.3576 78.5555,102.9796 C78.5465,102.6006 78.7315,102.2996 78.9685,102.3066 C79.2065,102.3136 79.4055,102.6256 79.4145,103.0036" id="Fill-30" fill="#CBBC2D"></path>
            <path d="M102.0497,52.3415 C102.0587,52.7195 101.8737,53.0205 101.6357,53.0135 C101.3987,53.0065 101.1987,52.6955 101.1907,52.3175 C101.1807,51.9385 101.3667,51.6375 101.6037,51.6445 C101.8417,51.6515 102.0407,51.9635 102.0497,52.3415" id="Fill-32" fill="#CBBC2D"></path>
            <path d="M92.1547,86.7262 C92.1817,87.8672 91.6227,88.7752 90.9057,88.7542 C90.1897,88.7342 89.5877,87.7922 89.5607,86.6512 C89.5337,85.5102 90.0927,84.6022 90.8087,84.6222 C91.5257,84.6432 92.1277,85.5852 92.1547,86.7262" id="Fill-34" fill="#CBBC2D"></path>
            <path d="M94.8583,20.0934 C94.8583,20.0934 111.8013,44.9564 96.0923,67.5554 C80.3843,90.1544 74.0243,90.7344 74.0243,90.7344 L81.7383,77.7054 L94.8583,20.0934 Z" id="Fill-36" fill="#CBBC2D"></path>
            <path d="M71.0112,34.4509 C63.7552,46.1659 51.2862,60.2099 27.2332,70.2919 C20.6432,73.0539 19.4072,76.1019 18.8222,78.8779 C18.3652,81.0369 21.3372,83.7799 23.3302,84.0209 C29.8712,84.8119 45.0822,85.6679 68.3232,69.4699 C88.0452,55.7239 92.4242,41.4979 93.9812,31.7439 C86.2622,32.0549 78.5592,32.8949 71.0112,34.4509" id="Fill-38" fill="#CDA12B"></path>
            <path d="M93.9814,31.7438 C86.2624,32.0558 78.5594,32.8948 71.0114,34.4508 C63.7554,46.1658 51.2864,60.2098 27.2324,70.2918 C20.6434,73.0538 19.4074,76.1018 18.8214,78.8778 C18.3654,81.0368 21.3364,83.7798 23.3304,84.0208 C24.7614,84.1938 26.6074,84.3698 28.8614,84.3698 C36.9104,84.3698 50.1664,82.1248 68.3234,69.4698 C88.0444,55.7238 92.4244,41.4978 93.9814,31.7438 M89.0154,36.0308 C86.8124,44.5148 81.4134,55.4708 66.0364,66.1878 C52.5344,75.5978 40.0264,80.3698 28.8614,80.3698 C26.7944,80.3698 25.1434,80.2088 23.9204,80.0628 C23.5994,79.9338 23.1044,79.5148 22.8524,79.1798 C23.2124,77.7178 24.0544,75.9618 28.7794,73.9808 C48.5744,65.6828 63.2134,53.9158 73.4734,38.0398 C78.3944,37.0988 83.5994,36.4278 89.0154,36.0308" id="Fill-40" fill="#926728"></path>
            <path d="M79.5136,32.9997 C73.3646,47.3847 63.0906,61.3397 31.8766,74.4237 C25.6426,77.0357 24.2096,78.1687 23.6546,80.7937 C23.2226,82.8367 25.7036,83.2417 27.5906,83.4697 C33.7776,84.2177 48.1686,85.0277 70.1556,69.7027 C90.4376,55.5667 93.9846,40.9317 94.8586,31.7107 C89.7246,31.8917 84.5966,32.3037 79.5136,32.9997" id="Fill-42" fill="#F9FF00"></path>
            <path d="M26.9442,80.9489 C26.4972,80.9489 26.0542,80.7499 25.7582,80.3689 C25.2512,79.7149 25.3692,78.7719 26.0232,78.2639 C27.2702,77.2949 29.1162,76.3469 32.6042,74.8849 C47.1232,68.7989 57.9662,62.1589 65.7542,54.5869 C66.3482,54.0099 67.2982,54.0219 67.8752,54.6159 C68.4532,55.2109 68.4392,56.1599 67.8452,56.7369 C59.7842,64.5769 48.6352,71.4179 33.7642,77.6509 C30.5822,78.9849 28.8722,79.8489 27.8642,80.6339 C27.5902,80.8449 27.2652,80.9489 26.9442,80.9489" id="Fill-44" fill="#F0E394"></path>
            <path d="M70.5038,53.236 C70.1568,53.236 69.8078,53.116 69.5248,52.872 C68.8978,52.33 68.8278,51.382 69.3698,50.756 C73.3318,46.168 76.7178,40.624 79.4338,34.278 C79.7588,33.516 80.6378,33.162 81.4018,33.489 C82.1638,33.814 82.5178,34.696 82.1918,35.458 C79.3548,42.089 75.8048,47.895 71.6398,52.716 C71.3438,53.06 70.9248,53.236 70.5038,53.236" id="Fill-46" fill="#F0E394"></path>
            <path d="M79.8974,51.9235 C79.5374,52.5635 78.9004,52.8865 78.4734,52.6475 C78.0474,52.4065 77.9934,51.6945 78.3534,51.0545 C78.7124,50.4145 79.3504,50.0905 79.7764,50.3305 C80.2034,50.5695 80.2574,51.2835 79.8974,51.9235" id="Fill-48" fill="#CBBC2D"></path>
            <path d="M80.7846,45.1813 C80.4246,45.8213 79.7866,46.1453 79.3606,45.9053 C78.9346,45.6653 78.8806,44.9523 79.2406,44.3133 C79.5996,43.6733 80.2376,43.3493 80.6636,43.5883 C81.0906,43.8283 81.1446,44.5413 80.7846,45.1813" id="Fill-50" fill="#CBBC2D"></path>
            <path d="M75.3002,54.9294 C74.9402,55.5694 74.3022,55.8934 73.8762,55.6544 C73.4492,55.4134 73.3962,54.7004 73.7562,54.0614 C74.1152,53.4214 74.7532,53.0974 75.1792,53.3374 C75.6062,53.5764 75.6602,54.2894 75.3002,54.9294" id="Fill-52" fill="#CBBC2D"></path>
            <path d="M55.8124,68.1999 C55.6324,68.5189 55.3134,68.6809 55.1004,68.5609 C54.8874,68.4419 54.8604,68.0859 55.0404,67.7649 C55.2204,67.4459 55.5394,67.2839 55.7514,67.4029 C55.9654,67.5229 55.9924,67.8799 55.8124,68.1999" id="Fill-54" fill="#CBBC2D"></path>
            <path d="M50.3695,77.8737 C50.1895,78.1937 49.8705,78.3547 49.6575,78.2357 C49.4445,78.1157 49.4175,77.7597 49.5975,77.4387 C49.7775,77.1197 50.0965,76.9577 50.3095,77.0777 C50.5225,77.1967 50.5495,77.5547 50.3695,77.8737" id="Fill-56" fill="#CBBC2D"></path>
            <path d="M28.7777,80.5329 C28.5977,80.8529 28.2787,81.0149 28.0657,80.8949 C27.8527,80.7749 27.8257,80.4189 28.0057,80.0989 C28.1857,79.7789 28.5047,79.6169 28.7167,79.7369 C28.9307,79.8569 28.9577,80.2139 28.7777,80.5329" id="Fill-58" fill="#CBBC2D"></path>
            <path d="M33.1576,79.8727 C32.9776,80.1917 32.6586,80.3537 32.4456,80.2337 C32.2326,80.1147 32.2056,79.7577 32.3856,79.4377 C32.5656,79.1177 32.8846,78.9567 33.0976,79.0757 C33.3106,79.1957 33.3376,79.5527 33.1576,79.8727" id="Fill-60" fill="#CBBC2D"></path>
            <path d="M79.0238,48.4753 C78.8438,48.7953 78.5248,48.9573 78.3128,48.8373 C78.0988,48.7173 78.0718,48.3613 78.2518,48.0403 C78.4318,47.7213 78.7508,47.5593 78.9638,47.6793 C79.1768,47.7993 79.2038,48.1563 79.0238,48.4753" id="Fill-62" fill="#CBBC2D"></path>
            <path d="M52.8847,72.4167 C52.3417,73.3827 51.3797,73.8707 50.7367,73.5097 C50.0927,73.1467 50.0107,72.0707 50.5537,71.1047 C51.0967,70.1407 52.0597,69.6507 52.7027,70.0137 C53.3467,70.3757 53.4277,71.4517 52.8847,72.4167" id="Fill-64" fill="#CBBC2D"></path>
            <path d="M80.3071,21.7546 C67.3261,26.3796 48.8191,29.5696 23.7331,22.4356 C16.8611,20.4816 13.9931,22.0916 11.8031,23.8946 C10.0981,25.2966 10.7081,29.2946 12.1151,30.7276 C16.7321,35.4276 28.0821,45.5896 56.3511,47.4396 C80.3391,49.0076 92.6401,40.6256 99.9431,33.9766 C93.7191,29.4016 87.1751,25.2506 80.3071,21.7546" id="Fill-66" fill="#CDA12B"></path>
            <path d="M18.2055,21.5436 C15.0755,21.5436 13.2835,22.6756 11.8025,23.8946 C10.0985,25.2966 10.7075,29.2946 12.1155,30.7276 C16.7315,35.4276 28.0825,45.5896 56.3515,47.4396 C58.3375,47.5686 60.2475,47.6306 62.0775,47.6306 C82.3455,47.6306 93.2445,40.0746 99.9435,33.9776 C93.7185,29.4016 87.1755,25.2506 80.3075,21.7546 C72.8085,24.4266 63.4635,26.6196 52.0725,26.6196 C43.7465,26.6196 34.3275,25.4486 23.7325,22.4356 C21.5085,21.8026 19.7035,21.5436 18.2055,21.5436 M18.2055,25.5436 C19.4225,25.5436 20.9145,25.7926 22.6385,26.2826 C32.7575,29.1606 42.6605,30.6196 52.0725,30.6196 C61.7585,30.6196 70.9105,29.1386 79.9915,26.0966 C84.4225,28.4336 88.9095,31.1556 93.3885,34.2276 C87.1475,38.9016 77.5675,43.6306 62.0775,43.6306 C60.3095,43.6306 58.4705,43.5686 56.6125,43.4466 C37.6855,42.2096 24.0875,37.1566 15.0465,28.0026 C14.8765,27.7016 14.7515,27.0676 14.7635,26.6486 C15.6145,26.0036 16.5255,25.5436 18.2055,25.5436" id="Fill-68" fill="#926728"></path>
            <path d="M87.8554,25.9284 C74.0734,33.3294 57.3364,37.8214 24.7824,28.5624 C18.2814,26.7124 16.4544,26.7024 14.3824,28.4074 C12.7704,29.7354 14.4564,31.5994 15.7874,32.9544 C20.1554,37.4014 30.8934,47.0154 57.6364,48.7654 C82.3064,50.3784 94.2124,41.1574 100.6494,34.4974 C96.5264,31.4354 92.2624,28.5564 87.8554,25.9284" id="Fill-70" fill="#F9FF00"></path>
            <path d="M56.9394,37.5231 C47.4024,37.5231 36.6294,35.7851 24.2434,32.2621 C20.9234,31.3181 19.0494,30.9261 17.7714,30.9101 C16.9434,30.8981 16.2814,30.2171 16.2924,29.3891 C16.3024,28.5681 16.9724,27.9101 17.7924,27.9101 L17.8124,27.9101 C19.3924,27.9311 21.4254,28.3421 25.0634,29.3771 C40.2064,33.6831 52.8194,35.2621 63.6324,34.2071 C64.4444,34.1241 65.1904,34.7291 65.2714,35.5531 C65.3514,36.3781 64.7494,37.1121 63.9234,37.1921 C61.6704,37.4131 59.3444,37.5231 56.9394,37.5231" id="Fill-72" fill="#F0E394"></path>
            <path d="M69.122,36.445 C68.414,36.445 67.784,35.941 67.649,35.219 C67.498,34.405 68.034,33.622 68.849,33.47 C74.807,32.359 80.912,30.141 86.996,26.877 C87.726,26.486 88.635,26.759 89.027,27.49 C89.419,28.219 89.144,29.129 88.414,29.52 C82.059,32.93 75.66,35.252 69.399,36.42 C69.306,36.436 69.214,36.445 69.122,36.445" id="Fill-74" fill="#F0E394"></path>
            <path d="M76.3451,40.9528 C75.6651,41.2278 74.9651,41.0838 74.7811,40.6298 C74.5971,40.1768 75.0001,39.5858 75.6811,39.3098 C76.3611,39.0348 77.0621,39.1798 77.2451,39.6338 C77.4281,40.0868 77.0261,40.6778 76.3451,40.9528" id="Fill-76" fill="#CBBC2D"></path>
            <path d="M81.246,36.2389 C80.565,36.5139 79.865,36.3699 79.682,35.9169 C79.498,35.4629 79.901,34.8719 80.581,34.5959 C81.262,34.3209 81.962,34.4669 82.146,34.9199 C82.329,35.3739 81.926,35.9649 81.246,36.2389" id="Fill-78" fill="#CBBC2D"></path>
            <path d="M70.8769,40.4323 C70.1959,40.7073 69.4959,40.5633 69.3129,40.1103 C69.1289,39.6563 69.5319,39.0653 70.2119,38.7893 C70.8929,38.5153 71.5929,38.6603 71.7769,39.1133 C71.9599,39.5673 71.5569,40.1583 70.8769,40.4323" id="Fill-80" fill="#CBBC2D"></path>
            <path d="M47.3686,38.6384 C47.0286,38.7764 46.6786,38.7034 46.5866,38.4764 C46.4946,38.2494 46.6966,37.9544 47.0366,37.8174 C47.3766,37.6794 47.7266,37.7514 47.8186,37.9784 C47.9106,38.2054 47.7086,38.5004 47.3686,38.6384" id="Fill-82" fill="#CBBC2D"></path>
            <path d="M37.078,42.7995 C36.738,42.9375 36.388,42.8645 36.296,42.6385 C36.204,42.4115 36.406,42.1155 36.746,41.9785 C37.086,41.8405 37.436,41.9135 37.528,42.1405 C37.62,42.3665 37.418,42.6625 37.078,42.7995" id="Fill-84" fill="#CBBC2D"></path>
            <path d="M18.5478,31.402 C18.2078,31.54 17.8578,31.466 17.7658,31.24 C17.6738,31.013 17.8758,30.717 18.2158,30.581 C18.5558,30.443 18.9058,30.515 18.9978,30.742 C19.0898,30.968 18.8878,31.264 18.5478,31.402" id="Fill-86" fill="#CBBC2D"></path>
            <path d="M22.3827,33.6188 C22.0427,33.7568 21.6927,33.6838 21.6007,33.4578 C21.5087,33.2308 21.7107,32.9348 22.0497,32.7978 C22.3907,32.6598 22.7407,32.7328 22.8327,32.9598 C22.9247,33.1858 22.7227,33.4818 22.3827,33.6188" id="Fill-88" fill="#CBBC2D"></path>
            <path d="M77.8149,37.7145 C77.4749,37.8525 77.1249,37.7795 77.0329,37.5525 C76.9409,37.3255 77.1429,37.0305 77.4819,36.8935 C77.8229,36.7555 78.1729,36.8275 78.2649,37.0545 C78.3569,37.2805 78.1549,37.5765 77.8149,37.7145" id="Fill-90" fill="#CBBC2D"></path>
            <path d="M42.4491,40.1061 C41.4221,40.5211 40.3651,40.3021 40.0881,39.6181 C39.8121,38.9331 40.4201,38.0431 41.4471,37.6271 C42.4731,37.2111 43.5301,37.4301 43.8071,38.1151 C44.0841,38.7991 43.4761,39.6911 42.4491,40.1061" id="Fill-92" fill="#CBBC2D"></path>
            <path d="M85.0121,0.7409 C85.0121,0.7409 88.7491,10.8359 91.0661,14.2339 C93.3831,17.6339 100.1581,20.0079 100.4771,29.8719 C100.7971,39.7359 101.4271,57.3779 81.7381,77.7059 C62.0501,98.0339 47.4871,99.5629 41.1641,99.7869 C39.2361,99.8539 36.0151,97.5069 36.1321,95.2149 C36.2821,92.2699 37.0091,88.9409 42.8591,85.0589 C82.3861,58.8289 82.2661,24.9299 86.6501,17.9789 C86.6501,17.9789 84.8501,11.2659 81.3621,6.6169 L85.0121,0.7409 Z" id="Fill-94" fill="#CDA12B"></path>
            <path d="M85.0121,0.7409 L81.3621,6.6169 C84.8501,11.2659 86.6501,17.9789 86.6501,17.9789 C82.2661,24.9299 82.3861,58.8289 42.8591,85.0589 C37.0091,88.9409 36.2821,92.2699 36.1321,95.2149 C36.0161,97.4729 39.1451,99.7879 41.0811,99.7879 C41.1091,99.7879 41.1361,99.7879 41.1641,99.7869 C47.4871,99.5629 62.0501,98.0339 81.7381,77.7059 C101.4271,57.3779 100.7971,39.7359 100.4771,29.8719 C100.1581,20.0079 93.3831,17.6339 91.0661,14.2339 C88.7491,10.8359 85.0121,0.7409 85.0121,0.7409 M90.4741,19.4139 C90.6811,19.5989 90.8891,19.7819 91.0951,19.9649 C93.7741,22.3269 96.3041,24.5589 96.4801,30.0019 L96.4821,30.0879 C96.7951,39.7309 97.3171,55.8719 78.8651,74.9229 C65.7511,88.4629 53.4291,95.2879 41.2051,95.7819 C40.8811,95.6719 40.3841,95.3109 40.1481,95.0279 C40.2571,93.3679 40.6761,91.3079 45.0711,88.3919 C77.2331,67.0489 84.1261,41.0289 87.8291,27.0509 C88.6381,23.9969 89.4031,21.1129 90.0331,20.1129 L90.4741,19.4139" id="Fill-96" fill="#926728"></path>
            <path d="M90.163,21.9216 C86.241,43.3476 85.265,63.7536 47.871,88.5686 C42.337,92.2416 41.142,93.6326 40.999,96.4186 C40.889,98.5866 43.303,98.6096 45.126,98.5456 C51.108,98.3336 64.885,96.8876 83.512,77.6556 C102.139,58.4236 102.012,41.7026 101.24,32.4016 C100.352,21.7106 92.231,16.0856 90.163,21.9216" id="Fill-98" fill="#F9FF00"></path>
            <path d="M43.9237,96.0153 C43.5737,96.0153 43.2227,95.8933 42.9387,95.6453 C42.3147,95.1003 42.2497,94.1533 42.7947,93.5293 C43.8387,92.3323 45.4527,91.0653 48.5527,89.0083 C61.4387,80.4573 70.7567,71.9163 77.0417,62.9003 C77.5147,62.2183 78.4517,62.0533 79.1297,62.5273 C79.8097,63.0003 79.9767,63.9353 79.5027,64.6153 C72.9987,73.9483 63.4167,82.7443 50.2107,91.5083 C47.3907,93.3793 45.8967,94.5363 45.0547,95.5013 C44.7587,95.8413 44.3427,96.0153 43.9237,96.0153" id="Fill-100" fill="#F0E394"></path>
            <path d="M81.2138,60.6364 C80.9588,60.6364 80.6998,60.5714 80.4638,60.4344 C79.7468,60.0194 79.5018,59.1024 79.9158,58.3844 C85.8898,48.0574 87.5838,38.3024 89.3788,27.9744 C89.6468,26.4334 89.9148,24.8894 90.1978,23.3404 C90.3478,22.5254 91.1268,21.9864 91.9438,22.1344 C92.7588,22.2834 93.2988,23.0654 93.1498,23.8804 C92.8668,25.4204 92.6008,26.9554 92.3338,28.4884 C90.5738,38.6194 88.7538,49.0964 82.5138,59.8864 C82.2348,60.3664 81.7318,60.6364 81.2138,60.6364" id="Fill-102" fill="#F0E394"></path>
            <path d="M83.1869,3.6784 C83.1869,3.6784 88.2229,19.3774 89.6449,16.8064 L91.0659,14.2344 L85.0119,0.7404 L83.1869,3.6784 Z" id="Fill-104" fill="#F9FF00"></path>
            <path d="M82.475,0.4108 C80.821,1.1598 80.139,8.2778 82.601,5.9978 C84.14,4.5728 85.348,2.0028 85.012,0.7408 C84.81,-0.0172 84.052,-0.3032 82.475,0.4108" id="Fill-106" fill="#82806F"></path>
            <path d="M90.1567,57.8405 C89.9087,58.5545 89.3507,58.9885 88.9117,58.8095 C88.4717,58.6305 88.3157,57.9055 88.5637,57.1925 C88.8117,56.4775 89.3697,56.0435 89.8097,56.2225 C90.2497,56.4015 90.4047,57.1255 90.1567,57.8405" id="Fill-108" fill="#CBBC2D"></path>
            <path d="M90.0126,50.7712 C89.7646,51.4862 89.2066,51.9192 88.7666,51.7412 C88.3266,51.5622 88.1716,50.8372 88.4196,50.1232 C88.6676,49.4092 89.2256,48.9752 89.6646,49.1542 C90.1046,49.3332 90.2606,50.0572 90.0126,50.7712" id="Fill-110" fill="#CBBC2D"></path>
            <path d="M86.2333,61.6579 C85.9853,62.3729 85.4273,62.8059 84.9873,62.6279 C84.5473,62.4489 84.3923,61.7239 84.6403,61.0099 C84.8883,60.2959 85.4463,59.8619 85.8853,60.0409 C86.3253,60.2199 86.4813,60.9439 86.2333,61.6579" id="Fill-112" fill="#CBBC2D"></path>
            <path d="M69.6786,78.3825 C69.5546,78.7395 69.2756,78.9565 69.0556,78.8665 C68.8356,78.7775 68.7586,78.4155 68.8826,78.0585 C69.0056,77.7005 69.2846,77.4845 69.5046,77.5735 C69.7246,77.6625 69.8026,78.0255 69.6786,78.3825" id="Fill-114" fill="#CBBC2D"></path>
            <path d="M65.9277,89.1862 C65.8037,89.5432 65.5247,89.7602 65.3047,89.6702 C65.0857,89.5822 65.0077,89.2192 65.1317,88.8622 C65.2557,88.5042 65.5337,88.2882 65.7547,88.3772 C65.9737,88.4662 66.0517,88.8292 65.9277,89.1862" id="Fill-116" fill="#CBBC2D"></path>
            <path d="M45.8236,95.3395 C45.6996,95.6965 45.4206,95.9135 45.2006,95.8235 C44.9806,95.7355 44.9036,95.3725 45.0276,95.0155 C45.1516,94.6575 45.4296,94.4415 45.6496,94.5305 C45.8696,94.6195 45.9476,94.9825 45.8236,95.3395" id="Fill-118" fill="#CBBC2D"></path>
            <path d="M49.8842,93.9665 C49.7602,94.3235 49.4812,94.5405 49.2612,94.4505 C49.0412,94.3625 48.9642,93.9995 49.0882,93.6425 C49.2122,93.2845 49.4902,93.0685 49.7102,93.1575 C49.9302,93.2475 50.0082,93.6095 49.8842,93.9665" id="Fill-120" fill="#CBBC2D"></path>
            <path d="M88.8237,54.4352 C88.6997,54.7922 88.4207,55.0092 88.2007,54.9202 C87.9807,54.8312 87.9037,54.4682 88.0277,54.1112 C88.1517,53.7542 88.4297,53.5372 88.6497,53.6262 C88.8697,53.7162 88.9477,54.0782 88.8237,54.4352" id="Fill-122" fill="#CBBC2D"></path>
            <path d="M67.5165,83.1794 C67.1425,84.2574 66.3005,84.9124 65.6375,84.6424 C64.9735,84.3724 64.7385,83.2804 65.1125,82.2014 C65.4875,81.1234 66.3285,80.4684 66.9925,80.7394 C67.6565,81.0084 67.8915,82.1014 67.5165,83.1794" id="Fill-124" fill="#CBBC2D"></path>
            <path d="M91.6479,16.2878 C91.6479,16.2878 99.4089,24.6148 94.4209,35.1428 C89.4329,45.6718 86.2189,53.3108 65.5299,64.7738 C65.5299,64.7738 56.1129,76.3468 49.4859,80.7028 C49.4859,80.7028 61.8769,70.6728 58.8519,67.5558 C58.8519,67.5558 43.5929,71.5718 33.2899,67.5558 L40.4289,63.7578 L91.6479,16.2878 Z" id="Fill-126" fill="#CBBC2D"></path>
            <path d="M91.6479,16.2878 C91.6479,16.2878 99.4089,24.6148 94.4209,35.1428 C89.4329,45.6718 86.2189,53.3108 65.5299,64.7738 C65.5299,64.7738 56.1129,76.3468 49.4859,80.7028 C49.4859,80.7028 61.8769,70.6728 58.8519,67.5558 C58.8519,67.5558 43.5929,71.5718 33.2899,67.5558 L40.4289,63.7578 L91.6479,16.2878 Z" id="Fill-128" fill="#CBBC2D"></path>
            <path d="M93.747,2.0134 C93.747,2.0134 91.495,12.2284 91.648,16.2874 C91.801,20.3474 96.345,26.2074 91.276,34.2344 C86.208,42.2604 77.196,56.6494 49.244,61.2564 C21.292,65.8644 7.933,58.5394 2.371,55.0084 C0.676,53.9324 -0.824,50.1764 0.517,48.4244 C2.242,46.1724 4.67,43.9524 11.807,44.2984 C60.025,46.6344 78.283,19.6264 85.819,16.6734 C85.819,16.6734 87.907,10.2844 87.424,4.5424 L93.747,2.0134 Z" id="Fill-130" fill="#CDA12B"></path>
            <path d="M93.747,2.0134 L87.424,4.5424 C87.907,10.2844 85.819,16.6734 85.819,16.6734 C78.595,19.5044 61.521,44.4424 17.637,44.4424 C15.746,44.4424 13.799,44.3954 11.807,44.2984 C11.309,44.2754 10.833,44.2634 10.38,44.2634 C4.335,44.2634 2.121,46.3294 0.517,48.4244 C-0.824,50.1764 0.676,53.9324 2.371,55.0084 C6.67,57.7384 15.626,62.7344 32.382,62.7344 C37.303,62.7344 42.899,62.3024 49.244,61.2564 C77.196,56.6494 86.208,42.2604 91.276,34.2344 C96.345,26.2074 91.801,20.3474 91.648,16.2874 C91.495,12.2284 93.747,2.0134 93.747,2.0134 M88.296,19.9984 C88.405,20.3844 88.52,20.7724 88.637,21.1654 C89.651,24.5774 90.608,27.7994 87.894,32.0984 L87.85,32.1684 C82.929,39.9624 74.691,53.0074 48.593,57.3094 C42.862,58.2544 37.408,58.7344 32.382,58.7344 C17.528,58.7344 9.422,54.7324 4.608,51.6904 C4.374,51.4364 4.108,50.8434 4.025,50.4334 C4.892,49.3774 6.24,48.2634 10.38,48.2634 C10.772,48.2634 11.187,48.2734 11.613,48.2944 C13.637,48.3924 15.663,48.4424 17.637,48.4424 C52.971,48.4424 71.664,32.9124 81.705,24.5694 C83.932,22.7194 86.234,20.8074 87.279,20.3984 L88.296,19.9984" id="Fill-132" fill="#926728"></path>
            <path d="M86.707,21.8669 C71.727,36.5939 59.835,52.2379 14.218,50.0279 C7.467,49.7009 5.686,50.1049 4.054,52.2349 C2.785,53.8929 4.849,55.3279 6.453,56.3459 C11.715,59.6859 24.353,66.6159 50.797,62.2569 C77.241,57.8969 86.188,44.5359 90.562,36.6919 C95.589,27.6759 91.647,18.4419 86.707,21.8669" id="Fill-134" fill="#F9FF00"></path>
            <path d="M22.9618,53.9655 C20.2488,53.9655 17.4408,53.8955 14.5308,53.7535 C11.0878,53.5865 9.1718,53.6305 7.9218,53.9035 C7.1098,54.0785 6.3138,53.5675 6.1358,52.7595 C5.9588,51.9495 6.4718,51.1505 7.2808,50.9735 C8.8258,50.6355 10.8988,50.5745 14.6758,50.7575 C30.3988,51.5195 43.0448,50.1975 53.3358,46.7185 C54.1208,46.4535 54.9718,46.8735 55.2368,47.6585 C55.5028,48.4435 55.0818,49.2945 54.2968,49.5605 C45.5688,52.5115 35.2588,53.9655 22.9618,53.9655" id="Fill-136" fill="#F0E394"></path>
            <path d="M58.8524,47.693 C58.2744,47.693 57.7244,47.357 57.4774,46.795 C57.1454,46.036 57.4904,45.151 58.2484,44.818 C68.9634,40.123 75.6964,33.374 82.8254,26.228 C83.8904,25.16 84.9574,24.09 86.0404,23.025 C86.6314,22.445 87.5824,22.453 88.1624,23.043 C88.7434,23.633 88.7354,24.584 88.1444,25.165 C87.0674,26.222 86.0064,27.286 84.9494,28.346 C77.9374,35.375 70.6874,42.642 59.4544,47.566 C59.2574,47.652 59.0534,47.693 58.8524,47.693" id="Fill-138" fill="#F0E394"></path>
            <path d="M90.5854,3.278 C90.5854,3.278 86.4154,18.708 89.0314,17.498 L91.6474,16.288 L93.7474,2.013 L90.5854,3.278 Z" id="Fill-140" fill="#F9FF00"></path>
            <path d="M91.7431,0.2643 C89.9131,-0.1107 85.4711,5.1453 88.8251,4.7783 C90.9211,4.5473 93.3521,3.2143 93.7471,2.0133 C93.9831,1.2933 93.4861,0.6203 91.7431,0.2643" id="Fill-142" fill="#82806F"></path>
            <path d="M67.247,50.4069 C66.647,50.8289 65.932,50.8469 65.651,50.4469 C65.369,50.0469 65.627,49.3799 66.228,48.9579 C66.828,48.5359 67.543,48.5169 67.825,48.9179 C68.106,49.3179 67.848,49.9849 67.247,50.4069" id="Fill-144" fill="#CBBC2D"></path>
            <path d="M70.9516,44.7048 C70.3516,45.1278 69.6366,45.1448 69.3546,44.7448 C69.0736,44.3448 69.3316,43.6778 69.9316,43.2558 C70.5326,42.8338 71.2476,42.8148 71.5286,43.2158 C71.8106,43.6158 71.5526,44.2828 70.9516,44.7048" id="Fill-146" fill="#CBBC2D"></path>
            <path d="M61.8031,51.1403 C61.2031,51.5623 60.4881,51.5793 60.2061,51.1793 C59.9251,50.7803 60.1831,50.1133 60.7831,49.6913 C61.3841,49.2683 62.0991,49.2503 62.3801,49.6513 C62.6621,50.0503 62.4031,50.7173 61.8031,51.1403" id="Fill-148" fill="#CBBC2D"></path>
            <path d="M38.4999,54.7214 C38.1999,54.9324 37.8429,54.9424 37.7019,54.7424 C37.5609,54.5414 37.6899,54.2074 37.9899,53.9964 C38.2909,53.7854 38.6479,53.7774 38.7889,53.9774 C38.9299,54.1774 38.7999,54.5104 38.4999,54.7214" id="Fill-150" fill="#CBBC2D"></path>
            <path d="M29.4213,61.1081 C29.1213,61.3191 28.7633,61.3281 28.6233,61.1281 C28.4823,60.9271 28.6113,60.5941 28.9113,60.3831 C29.2113,60.1711 29.5683,60.1631 29.7103,60.3631 C29.8503,60.5631 29.7213,60.8961 29.4213,61.1081" id="Fill-152" fill="#CBBC2D"></path>
            <path d="M8.7895,54.2067 C8.4895,54.4187 8.1315,54.4277 7.9915,54.2277 C7.8505,54.0267 7.9795,53.6937 8.2795,53.4817 C8.5795,53.2707 8.9365,53.2627 9.0785,53.4627 C9.2185,53.6627 9.0895,53.9957 8.7895,54.2067" id="Fill-154" fill="#CBBC2D"></path>
            <path d="M13.0268,55.4977 C12.7268,55.7087 12.3688,55.7177 12.2288,55.5177 C12.0878,55.3167 12.2168,54.9837 12.5168,54.7727 C12.8178,54.5617 13.1748,54.5527 13.3158,54.7527 C13.4568,54.9527 13.3268,55.2867 13.0268,55.4977" id="Fill-156" fill="#CBBC2D"></path>
            <path d="M67.9443,46.9196 C67.6443,47.1306 67.2863,47.1396 67.1463,46.9396 C67.0053,46.7386 67.1343,46.4056 67.4343,46.1946 C67.7353,45.9826 68.0923,45.9746 68.2333,46.1746 C68.3733,46.3746 68.2443,46.7086 67.9443,46.9196" id="Fill-158" fill="#CBBC2D"></path>
            <path d="M34.0414,57.2663 C33.1354,57.9033 32.0564,57.9303 31.6314,57.3273 C31.2074,56.7223 31.5974,55.7163 32.5024,55.0783 C33.4094,54.4423 34.4874,54.4143 34.9124,55.0193 C35.3374,55.6223 34.9474,56.6283 34.0414,57.2663" id="Fill-160" fill="#CBBC2D"></path>
        </g>
    </g>
</svg>