<?xml version="1.0" encoding="UTF-8"?>
<svg width="112px" height="115px" viewBox="0 0 112 115" version="1.1" xmlns="http://www.w3.org/2000/svg" xmlns:xlink="http://www.w3.org/1999/xlink">
    <!-- Generator: Sketch 51.3 (57544) - http://www.bohemiancoding.com/sketch -->
    <title>Artboard 2 Copy</title>
    <desc>Created with Sketch.</desc>
    <defs>
        <polygon id="path-1" points="0.847002892 0.6828 47.5023 0.6828 47.5023 60 0.847002892 60"></polygon>
        <polygon id="path-3" points="0 0.2896 39.8437593 0.2896 39.8437593 31.9836 0 31.9836"></polygon>
    </defs>
    <g id="Artboard-2-Copy" stroke="none" stroke-width="1" fill="none" fill-rule="evenodd">
        <g id="Group-45" transform="translate(19.000000, 9.000000)">
            <path d="M44.2856,49.0791 C44.2856,49.0791 53.5356,76.9751 50.2856,83.9871 C47.0356,90.9991 61.7856,85.9981 61.0356,64.8741 C60.2856,43.7491 44.2856,38.2571 44.2856,38.2571 L44.2856,49.0791 Z" id="Fill-1" fill="#926728"></path>
            <path d="M37.2426,2.584 C37.2556,1.794 37.4006,1.12 37.6446,0.549 C33.8036,-0.825 30.6006,0.365 30.5356,4.311 C32.5676,17.909 35.4076,30.855 33.0536,46.358 C35.1976,45.19 37.2166,43.287 39.5536,42.632 C39.7156,42.586 39.8796,42.552 40.0416,42.511 C41.8436,27.939 39.1806,15.556 37.2426,2.584" id="Fill-3" fill="#BFBEBE"></path>
            <path d="M44.1938,41.8076 C45.7868,41.6306 47.3868,41.5076 48.9648,41.2826 C50.9488,40.9966 52.6318,40.5416 54.0428,39.8876 C54.0448,39.8426 54.0448,39.7996 54.0468,39.7546 C51.4378,40.0396 48.7958,40.1936 46.2598,40.9046 C45.5458,41.1056 44.8618,41.4296 44.1938,41.8076" id="Fill-5" fill="#F0E394"></path>
            <path d="M39.7602,44.6308 C41.2482,43.8208 42.6782,42.6628 44.1942,41.8078 C42.7962,41.9618 41.4062,42.1658 40.0422,42.5108 C39.9552,43.2138 39.8682,43.9168 39.7602,44.6308" id="Fill-7" fill="#F0E394"></path>
            <path d="M48.2514,11.4092 C45.5894,5.5322 41.3244,1.8642 37.6444,0.5492 C37.4004,1.1202 37.2554,1.7942 37.2424,2.5842 C39.1814,15.5552 41.8434,27.9392 40.0424,42.5112 C41.4054,42.1662 42.7954,41.9622 44.1934,41.8072 C44.8624,41.4302 45.5454,41.1052 46.2604,40.9042 C48.7954,40.1932 51.4374,40.0402 54.0464,39.7552 C54.6154,26.8472 51.0444,17.5742 48.2514,11.4092" id="Fill-9" fill="#ECE5C0"></path>
            <g id="Group-13" transform="translate(8.000000, 37.722100)">
                <mask id="mask-2" fill="white">
                    <use xlink:href="#path-1"></use>
                </mask>
                <g id="Clip-12"></g>
                <path d="M44.6283,1.3638 C42.8843,1.6078 41.1183,1.6578 39.3743,1.8918 C37.2843,2.1738 35.4773,3.5558 33.4603,3.7368 C30.4783,4.0048 27.8843,1.8408 24.9973,0.8048 C23.2123,13.4428 18.0483,28.9168 4.6003,45.8378 C0.1543,51.4298 0.5393,54.6978 1.3613,57.4128 C2.0013,59.5238 5.9263,60.4988 7.7903,59.7498 C13.9023,57.2938 27.6473,50.7198 40.2183,25.3338 C44.9393,15.8018 46.9803,7.6338 47.5023,0.6828 C46.6523,0.9838 45.7003,1.2138 44.6283,1.3638" id="Fill-11" fill="#CDA12B" mask="url(#mask-2)"></path>
            </g>
            <path d="M55.5019,38.4053 C54.6519,38.7063 53.6999,38.9353 52.6279,39.0863 C50.8839,39.3303 49.1189,39.3803 47.3739,39.6143 C45.2839,39.8953 42.4769,44.2783 40.4599,44.4593 C40.3859,44.4663 40.3109,44.4693 40.2379,44.4693 C37.3969,44.4693 35.8129,39.5373 32.9979,38.5273 C31.2129,51.1653 26.0489,66.6383 12.5999,83.5593 C8.1539,89.1523 8.5389,92.4203 9.3609,95.1353 C9.8569,96.7693 12.3199,97.7213 14.2729,97.7213 C14.8419,97.7213 15.3689,97.6403 15.7899,97.4713 C21.9029,95.0153 35.6479,88.4423 48.2189,63.0553 C52.9389,53.5233 54.9809,45.3553 55.5019,38.4053 M50.8389,43.2983 C49.7899,49.0393 47.7119,55.0653 44.6339,61.2803 C36.2189,78.2753 26.3299,88.8863 14.4059,93.7173 C14.3769,93.7193 14.3329,93.7213 14.2729,93.7213 C13.8019,93.7213 13.3239,93.5823 13.0389,93.4533 C12.6509,91.9993 12.5469,90.0543 15.7309,86.0483 C25.6959,73.5113 32.3419,60.2713 35.5499,46.5923 C36.7669,47.6463 38.2789,48.4693 40.2379,48.4693 C40.4289,48.4693 40.6229,48.4613 40.8179,48.4433 C43.2169,48.2273 45.0459,46.4923 46.6599,44.9603 C47.1219,44.5213 47.8579,43.8223 48.2679,43.5333 C48.9049,43.4583 49.5679,43.4033 50.2629,43.3453 C50.4539,43.3303 50.6459,43.3143 50.8389,43.2983" id="Fill-14" fill="#926728"></path>
            <path d="M50.3637,40.6953 C46.7747,41.1123 44.7777,41.7893 41.7077,43.6913 C40.9817,44.1413 40.4077,44.4913 39.7017,44.7313 C37.4907,55.7973 31.6557,68.5933 18.6587,84.9453 C14.4537,90.2363 13.7417,91.9193 14.5197,94.4873 C15.1257,96.4853 17.4947,95.6463 19.2577,94.9373 C25.0417,92.6143 38.0447,86.3953 49.9377,62.3793 C54.2497,53.6703 56.2507,46.1433 56.8777,39.6933 C54.7727,40.3103 52.5257,40.4443 50.3637,40.6953" id="Fill-16" fill="#F9FF00"></path>
            <path d="M16.7543,93.2246 C16.5563,93.2246 16.3543,93.1856 16.1603,93.1016 C15.4003,92.7726 15.0493,91.8896 15.3783,91.1296 C16.0043,89.6786 17.1663,87.9596 19.5193,84.9986 C29.3143,72.6756 35.6213,61.6356 38.8013,51.2486 C39.0433,50.4556 39.8823,50.0106 40.6743,50.2536 C41.4663,50.4956 41.9123,51.3346 41.6693,52.1266 C38.3783,62.8796 31.9003,74.2436 21.8673,86.8656 C19.7213,89.5666 18.6393,91.1466 18.1323,92.3196 C17.8873,92.8856 17.3353,93.2246 16.7543,93.2246" id="Fill-18" fill="#F0E394"></path>
            <path d="M49.9155,42.1045 C49.9085,42.8385 49.5055,43.4295 49.0165,43.4245 C48.5265,43.4185 48.1365,42.8205 48.1435,42.0865 C48.1505,41.3525 48.5535,40.7615 49.0425,40.7665 C49.5325,40.7715 49.9225,41.3715 49.9155,42.1045" id="Fill-20" fill="#CBBC2D"></path>
            <path d="M47.3334,46.9531 C47.3264,47.6861 46.9234,48.2781 46.4344,48.2721 C45.9444,48.2671 45.5544,47.6691 45.5614,46.9351 C45.5694,46.2011 45.9714,45.6101 46.4604,45.6151 C46.9504,45.6201 47.3404,46.2191 47.3334,46.9531" id="Fill-22" fill="#CBBC2D"></path>
            <path d="M36.642,67.9668 C36.638,68.3328 36.437,68.6288 36.192,68.6258 C35.948,68.6238 35.752,68.3238 35.756,67.9568 C35.76,67.5908 35.961,67.2948 36.206,67.2978 C36.451,67.2998 36.646,67.5998 36.642,67.9668" id="Fill-24" fill="#CBBC2D"></path>
            <path d="M36.5292,79.0654 C36.5252,79.4324 36.3242,79.7284 36.0792,79.7254 C35.8352,79.7234 35.6392,79.4234 35.6432,79.0564 C35.6472,78.6894 35.8482,78.3944 36.0932,78.3964 C36.3382,78.3994 36.5322,78.6994 36.5292,79.0654" id="Fill-26" fill="#CBBC2D"></path>
            <path d="M18.8847,91.792 C18.8807,92.159 18.6797,92.455 18.4347,92.452 C18.1907,92.449 17.9947,92.15 17.9987,91.783 C18.0027,91.416 18.2037,91.121 18.4487,91.123 C18.6937,91.126 18.8887,91.426 18.8847,91.792" id="Fill-28" fill="#CBBC2D"></path>
            <path d="M22.4057,89.1045 C22.4017,89.4715 22.2007,89.7665 21.9557,89.7645 C21.7117,89.7615 21.5157,89.4615 21.5197,89.0955 C21.5237,88.7285 21.7247,88.4325 21.9697,88.4355 C22.2147,88.4375 22.4097,88.7375 22.4057,89.1045" id="Fill-30" fill="#CBBC2D"></path>
            <path d="M36.1064,73.0723 C36.0954,74.1793 35.4874,75.0713 34.7494,75.0633 C34.0104,75.0563 33.4204,74.1523 33.4324,73.0453 C33.4434,71.9373 34.0514,71.0453 34.7894,71.0523 C35.5284,71.0603 36.1174,71.9653 36.1064,73.0723" id="Fill-32" fill="#CBBC2D"></path>
            <path d="M53.8554,43.5957 C52.6004,41.1197 51.0874,39.6037 49.5544,38.8087 C36.9224,40.8847 38.9194,48.1587 38.9194,48.1587 C38.9194,48.1587 40.8864,44.7037 43.6034,42.7287 C46.3194,40.7527 49.7854,40.2557 52.7854,46.1707 C58.7854,57.9987 49.0354,73.7487 66.2854,81.2487 C75.7904,85.3817 73.8314,83.7267 70.7024,80.0767 C69.7884,79.7137 68.6984,79.2577 67.3554,78.6737 C50.1054,71.1737 59.8554,55.4237 53.8554,43.5957" id="Fill-34" fill="#CDA12B"></path>
            <path d="M66.2856,69.2256 C69.5356,61.2486 75.6786,38.2496 57.1106,38.2566 C54.1336,38.2586 51.6496,38.4646 49.5546,38.8086 C51.0876,39.6036 52.5996,41.1206 53.8556,43.5956 C59.8556,55.4236 50.1056,71.1736 67.3556,78.6736 C68.6986,79.2576 69.7876,79.7136 70.7026,80.0776 C68.1526,77.1036 64.8266,72.8066 66.2856,69.2256" id="Fill-36" fill="#ECE5C0"></path>
            <g id="Group-40" transform="translate(0.000000, 39.722100)">
                <mask id="mask-4" fill="white">
                    <use xlink:href="#path-3"></use>
                </mask>
                <g id="Clip-39"></g>
                <path d="M34.2123,0.2896 C32.1923,0.2896 29.8783,1.1326 27.8163,3.3376 C19.0533,12.7056 21.1443,26.2756 5.1593,28.3526 C4.7933,28.4006 4.4663,28.4406 4.1373,28.4806 C1.0033,30.7126 -1.5957,31.9836 1.1723,31.9836 C2.1353,31.9836 3.7443,31.8306 6.2053,31.5106 C22.1903,29.4346 20.0993,15.8626 28.8613,6.4946 C30.9233,4.2896 32.5733,3.4466 33.8893,3.4466 C35.3693,3.4466 36.4273,4.5126 37.1793,5.9056 C38.4163,8.1976 38.8233,8.3466 38.9073,8.3466 C38.9203,8.3466 38.9253,8.3436 38.9253,8.3436 C38.9253,8.3436 40.1493,6.4736 39.7713,3.8656 C39.5873,3.5646 39.3783,3.2016 39.1333,2.7486 C38.3813,1.3546 36.4833,0.2896 34.2123,0.2896" id="Fill-38" fill="#926728" mask="url(#mask-4)"></path>
            </g>
            <path d="M27.8158,43.0595 C32.1968,38.3745 37.7128,39.8375 39.1338,42.4705 C39.3788,42.9235 39.5878,43.2875 39.7718,43.5875 C39.3568,40.7285 36.9988,36.9855 29.0028,33.8475 C28.0298,34.3345 27.0578,35.0355 26.1358,36.0205 C18.9258,43.7295 19.0558,54.2775 10.4258,58.9315 C10.4068,59.2905 10.3918,59.6385 10.3818,59.9565 C10.2818,63.3475 6.9878,66.1725 4.1378,68.2035 C4.4668,68.1635 4.7938,68.1225 5.1598,68.0755 C21.1448,65.9975 19.0528,52.4275 27.8158,43.0595" id="Fill-41" fill="#CDA12B"></path>
            <path d="M26.1362,36.0205 C27.0572,35.0355 28.0302,34.3345 29.0032,33.8475 C28.7542,33.7495 28.5162,33.6505 28.2562,33.5535 C14.4032,28.4155 10.8942,49.8095 10.4262,58.9315 C19.0552,54.2775 18.9262,43.7295 26.1362,36.0205" id="Fill-43" fill="#FFFFFF"></path>
        </g>
    </g>
</svg>