<?xml version="1.0" encoding="UTF-8"?>
<svg width="250px" height="150px" viewBox="0 0 250 150" version="1.1" xmlns="http://www.w3.org/2000/svg" xmlns:xlink="http://www.w3.org/1999/xlink">
    <!-- Generator: Sketch 51.3 (57544) - http://www.bohemiancoding.com/sketch -->
    <title>Artboard 3</title>
    <desc>Created with Sketch.</desc>
    <defs></defs>
    <g id="Artboard-3" stroke="none" stroke-width="1" fill="none" fill-rule="evenodd">
        <g id="Group-11" transform="translate(88.000000, 20.000000)">
            <path d="M66.924,81.492 C70.174,73.516 76.316,50.517 57.749,50.524 C56.669,50.524 55.675,50.56 54.72,50.611 C54.812,46.303 54.439,42.421 53.808,38.93 C47.318,39.798 40.837,40.644 34.413,41.621 C34.535,43.881 34.602,46.165 34.55,48.506 C33.214,47.687 31.599,46.882 29.642,46.114 C29.393,46.016 29.155,45.917 28.895,45.821 C15.042,40.682 11.533,62.076 11.064,71.199 C11.046,71.558 11.03,71.905 11.021,72.224 C10.92,75.615 7.627,78.439 4.776,80.47 C0.553,83.477 -2.699,84.739 6.844,83.499 C22.829,81.423 20.737,67.852 29.5,58.484 C30.724,57.176 31.797,56.361 32.746,55.903 C30.353,67.511 24.927,81.121 13.238,95.826 C8.793,101.419 9.178,104.686 10,107.401 C10.64,109.513 14.565,110.487 16.429,109.739 C19.205,108.623 23.557,106.651 28.657,102.461 C34.64,98.251 42.144,90.795 49.351,77.045 C51.154,84.659 52.489,92.877 50.924,96.254 C48.404,101.692 56.707,99.898 60.212,88.967 C61.8,90.685 63.955,92.225 66.924,93.516 C76.429,97.649 74.47,95.993 71.341,92.344 C68.791,89.37 65.465,85.073 66.924,81.492" id="Fill-2107" fill="#C1A23F"></path>
            <path d="M44.924,49.346 C44.924,49.346 54.174,77.241 50.924,84.254 C47.674,91.266 62.424,86.264 61.674,65.14 C60.924,44.016 44.924,38.524 44.924,38.524 L44.924,49.346" id="Fill-2108" fill="#865F2C"></path>
            <path d="M37.881,2.85 C37.895,2.06 38.039,1.387 38.283,0.815 C34.442,-0.559 31.239,0.632 31.174,4.577 C33.207,18.176 36.046,31.122 33.692,46.625 C35.836,45.457 37.855,43.554 40.192,42.898 C40.354,42.853 40.518,42.818 40.681,42.777 C42.482,28.206 39.82,15.823 37.881,2.85" id="Fill-2109" fill="#EBE5BB"></path>
            <path d="M44.833,42.074 C46.425,41.898 48.026,41.775 49.604,41.549 C51.588,41.264 53.271,40.808 54.682,40.154 L54.685,40.021 C52.076,40.306 49.435,40.46 46.899,41.171 C46.184,41.372 45.5,41.697 44.833,42.074" id="Fill-2110" fill="#EFE393"></path>
            <path d="M40.399,44.898 C41.887,44.088 43.317,42.93 44.833,42.074 C43.434,42.229 42.044,42.433 40.681,42.777 C40.594,43.481 40.507,44.184 40.399,44.898" id="Fill-2111" fill="#EFE393"></path>
            <path d="M48.89,11.676 C46.229,5.799 41.963,2.131 38.283,0.815 C38.039,1.387 37.895,2.06 37.881,2.85 C39.82,15.823 42.482,28.206 40.681,42.777 C42.044,42.433 43.434,42.229 44.833,42.074 C45.5,41.697 46.184,41.372 46.899,41.171 C49.435,40.46 52.076,40.306 54.685,40.021 C55.254,27.115 51.683,17.841 48.89,11.676" id="Fill-2112" fill="#FFFFFE"></path>
            <path d="M53.267,39.352 C51.523,39.597 49.757,39.646 48.013,39.881 C45.923,40.162 44.116,41.545 42.099,41.726 C39.116,41.993 36.523,39.829 33.636,38.794 C31.851,51.431 26.688,66.906 13.239,83.826 C8.793,89.419 9.178,92.686 10,95.401 C10.64,97.514 14.565,98.487 16.429,97.739 C22.542,95.283 36.286,88.709 48.857,63.323 C53.578,53.791 55.619,45.622 56.141,38.672 C55.291,38.973 54.339,39.202 53.267,39.352" id="Fill-2113" fill="#C49C33"></path>
            <path d="M56.141,38.672 C55.291,38.973 54.339,39.202 53.267,39.352 C51.523,39.597 49.757,39.646 48.013,39.881 C45.923,40.162 43.116,44.545 41.099,44.726 L40.876,44.736 C38.035,44.736 36.451,39.804 33.636,38.794 C31.851,51.431 26.688,66.906 13.239,83.826 C8.793,89.419 9.178,92.686 10,95.401 C10.495,97.036 12.959,97.989 14.911,97.989 C15.481,97.989 16.007,97.908 16.429,97.739 C22.542,95.283 36.286,88.709 48.857,63.323 C53.578,53.791 55.619,45.622 56.141,38.672 Z M51.478,43.565 C50.428,49.306 48.351,55.332 45.273,61.548 C36.857,78.542 26.968,89.154 15.044,93.984 L14.911,93.989 C14.441,93.989 13.962,93.848 13.677,93.721 C13.29,92.266 13.186,90.322 16.37,86.315 C26.334,73.778 32.98,60.538 36.188,46.859 C37.405,47.913 38.917,48.736 40.876,48.736 C41.067,48.736 41.261,48.727 41.457,48.71 C43.856,48.494 45.685,46.759 47.299,45.227 C47.761,44.788 48.497,44.089 48.906,43.8 C49.544,43.724 50.207,43.67 50.901,43.613 C51.092,43.597 51.284,43.581 51.478,43.565 Z" id="Fill-2114" fill="#865F2C"></path>
            <path d="M51.002,40.962 C47.414,41.379 45.417,42.056 42.347,43.958 C41.62,44.409 41.047,44.758 40.34,44.998 C38.129,56.064 32.294,68.861 19.298,85.212 C15.092,90.503 14.381,92.185 15.159,94.754 C15.764,96.752 18.133,95.913 19.896,95.204 C25.68,92.881 38.683,86.662 50.576,62.645 C54.889,53.936 56.89,46.41 57.517,39.96 C55.411,40.577 53.165,40.711 51.002,40.962" id="Fill-2115" fill="#F2C425"></path>
            <path d="M17.393,93.492 C17.195,93.492 16.993,93.452 16.799,93.368 C16.039,93.039 15.688,92.157 16.017,91.396 C16.644,89.945 17.805,88.226 20.158,85.266 C29.953,72.942 36.26,61.902 39.44,51.515 C39.682,50.722 40.521,50.277 41.313,50.52 C42.105,50.763 42.551,51.601 42.308,52.393 C39.017,63.146 32.54,74.51 22.506,87.132 C20.36,89.833 19.278,91.413 18.771,92.586 C18.526,93.153 17.974,93.492 17.393,93.492" id="Fill-2116" fill="#EFE393"></path>
            <path d="M50.554,42.371 C50.546,43.105 50.144,43.696 49.655,43.691 C49.166,43.686 48.775,43.087 48.782,42.353 C48.79,41.619 49.192,41.029 49.682,41.034 C50.171,41.038 50.562,41.638 50.554,42.371" id="Fill-2117" fill="#C4B633"></path>
            <path d="M47.972,47.22 C47.964,47.954 47.562,48.545 47.073,48.54 C46.583,48.534 46.193,47.936 46.2,47.202 C46.208,46.468 46.61,45.877 47.1,45.882 C47.589,45.887 47.979,46.486 47.972,47.22" id="Fill-2118" fill="#C4B633"></path>
            <path d="M37.281,68.233 C37.277,68.6 37.076,68.895 36.831,68.893 C36.586,68.89 36.391,68.591 36.395,68.224 C36.398,67.857 36.6,67.562 36.844,67.564 C37.089,67.567 37.284,67.866 37.281,68.233" id="Fill-2119" fill="#C4B633"></path>
            <path d="M37.168,79.332 C37.164,79.7 36.963,79.995 36.718,79.993 C36.474,79.99 36.278,79.69 36.282,79.324 C36.286,78.956 36.487,78.661 36.731,78.663 C36.976,78.666 37.171,78.966 37.168,79.332" id="Fill-2120" fill="#C4B633"></path>
            <path d="M19.523,92.059 C19.52,92.426 19.318,92.722 19.074,92.719 C18.829,92.717 18.634,92.417 18.638,92.05 C18.641,91.683 18.843,91.388 19.087,91.39 C19.332,91.392 19.527,91.692 19.523,92.059" id="Fill-2121" fill="#C4B633"></path>
            <path d="M23.044,89.371 C23.041,89.738 22.839,90.034 22.595,90.031 C22.35,90.029 22.155,89.729 22.159,89.362 C22.162,88.995 22.364,88.7 22.608,88.702 C22.853,88.704 23.048,89.004 23.044,89.371" id="Fill-2122" fill="#C4B633"></path>
            <path d="M36.745,73.339 C36.733,74.446 36.126,75.338 35.388,75.33 C34.649,75.323 34.06,74.419 34.071,73.311 C34.082,72.204 34.69,71.312 35.428,71.32 C36.167,71.327 36.756,72.231 36.745,73.339" id="Fill-2123" fill="#C4B633"></path>
            <path d="M54.494,43.862 C53.239,41.388 51.727,39.87 50.193,39.076 C37.561,41.152 39.559,48.426 39.559,48.426 C39.559,48.426 41.525,44.972 44.242,42.995 C46.958,41.02 50.424,40.523 53.424,46.437 C59.424,58.266 49.674,74.016 66.924,81.516 C76.429,85.649 74.47,83.993 71.341,80.344 C70.427,79.98 69.337,79.525 67.994,78.941 C50.744,71.441 60.494,55.691 54.494,43.862" id="Fill-2124" fill="#C49C33"></path>
            <path d="M66.924,69.492 C70.174,61.516 76.317,38.517 57.749,38.524 C54.772,38.525 52.289,38.731 50.193,39.076 C51.727,39.87 53.239,41.388 54.494,43.862 C60.494,55.691 50.744,71.441 67.994,78.941 C69.337,79.525 70.427,79.98 71.341,80.344 C68.791,77.37 65.465,73.073 66.924,69.492" id="Fill-2125" fill="#FFFFFE"></path>
            <path d="M34.851,40.278 C32.831,40.278 30.517,41.121 28.455,43.326 C19.692,52.695 21.783,66.265 5.798,68.342 C5.432,68.389 5.105,68.43 4.776,68.47 C1.642,70.701 -0.957,71.972 1.812,71.972 C2.773,71.972 4.383,71.819 6.844,71.499 C22.829,69.423 20.738,55.852 29.5,46.484 C31.563,44.279 33.212,43.436 34.528,43.436 C36.008,43.436 37.066,44.501 37.818,45.895 C39.055,48.187 39.461,48.335 39.546,48.335 L39.564,48.332 C39.564,48.332 40.788,46.462 40.41,43.855 C40.227,43.554 40.017,43.19 39.772,42.737 C39.021,41.344 37.122,40.278 34.851,40.278" id="Fill-2126" fill="#865F2C"></path>
            <path d="M28.455,43.326 C32.836,38.642 38.352,40.104 39.772,42.737 C40.017,43.19 40.227,43.554 40.41,43.855 C39.996,40.995 37.638,37.252 29.642,34.114 C28.668,34.602 27.696,35.302 26.774,36.287 C19.564,43.996 19.694,54.544 11.064,59.199 C11.046,59.558 11.03,59.905 11.021,60.224 C10.92,63.615 7.627,66.439 4.776,68.47 C5.105,68.43 5.432,68.389 5.798,68.342 C21.783,66.265 19.692,52.695 28.455,43.326" id="Fill-2127" fill="#C49C33"></path>
            <path d="M26.774,36.287 C27.696,35.302 28.668,34.602 29.642,34.114 C29.393,34.016 29.155,33.917 28.895,33.821 C15.042,28.682 11.533,50.076 11.064,59.199 C19.694,54.544 19.564,43.996 26.774,36.287" id="Fill-2128" fill="#FFFFFE"></path>
        </g>
    </g>
</svg>