<?xml version="1.0" encoding="UTF-8"?>
<svg width="250px" height="150px" viewBox="0 0 250 150" version="1.1" xmlns="http://www.w3.org/2000/svg" xmlns:xlink="http://www.w3.org/1999/xlink">
    <!-- Generator: Sketch 51.3 (57544) - http://www.bohemiancoding.com/sketch -->
    <title>Artboard 3 Copy</title>
    <desc>Created with Sketch.</desc>
    <defs>
        <path d="M0.72,18.186 L19.498,0.783 C16.241,5.68 12.045,10.894 6.476,15.999 C4.652,16.771 2.735,17.505 0.72,18.186 Z" id="path-1"></path>
    </defs>
    <g id="Artboard-3-Copy" stroke="none" stroke-width="1" fill="none" fill-rule="evenodd">
        <g id="Group-18" transform="translate(73.000000, 17.000000)">
            <path d="M103.555,47.926 C103.407,46.159 103.061,44.534 102.578,43.073 C101.487,35.931 96.638,33.384 94.128,30.68 L96.06,17.537 C96.298,16.817 95.801,16.145 94.057,15.787 C92.581,15.485 89.409,18.844 89.995,19.963 L89.738,20.066 C89.785,20.636 89.802,21.212 89.804,21.787 L87.326,16.265 C87.124,15.507 86.366,15.22 84.79,15.935 C83.455,16.539 82.754,21.283 83.824,21.901 L83.676,22.14 C85.979,25.21 87.541,29.167 88.34,31.51 C88.215,31.947 88.134,32.197 88.134,32.197 C80.597,35.15 62.339,62.158 14.121,59.823 C6.985,59.477 4.556,61.696 2.832,63.948 C1.49,65.7 2.99,69.456 4.686,70.532 C7.211,72.136 11.353,74.519 17.731,76.214 C23.475,78.211 31.659,79.747 43.085,78.964 L42.76,79.264 L42.625,79.343 L35.668,83.045 C33.714,83.996 31.678,84.922 29.547,85.815 C22.957,88.577 21.722,91.626 21.136,94.401 C20.68,96.56 23.651,99.303 25.645,99.544 C28.615,99.904 33.379,100.271 39.866,99.053 C42.999,98.705 46.666,97.966 50.866,96.549 C49.064,97.91 47.172,99.256 45.173,100.583 C39.323,104.464 38.596,107.794 38.446,110.738 C38.329,113.03 41.55,115.378 43.478,115.311 C46.349,115.209 50.925,114.832 56.904,112.552 C64.072,110.457 73.963,105.427 85.826,93.179 C104.452,73.947 104.326,57.227 103.555,47.926" id="Fill-2174" fill="#C1A23F"></path>
            <path d="M71.025,35.405 C63.769,47.12 51.3,61.164 27.247,71.246 C20.657,74.008 19.421,77.057 18.836,79.832 C18.38,81.991 21.35,84.735 23.344,84.976 C29.884,85.766 45.096,86.622 68.337,70.424 C88.059,56.679 92.439,42.452 93.995,32.699 C86.276,33.01 78.573,33.85 71.025,35.405" id="Fill-2175" fill="#C49C33"></path>
            <path d="M93.995,32.699 C86.276,33.01 78.573,33.85 71.025,35.405 C63.769,47.12 51.3,61.164 27.247,71.246 C20.657,74.008 19.421,77.057 18.836,79.832 C18.38,81.991 21.35,84.735 23.344,84.976 C24.775,85.149 26.621,85.325 28.875,85.325 C36.924,85.325 50.18,83.079 68.337,70.424 C88.059,56.679 92.439,42.452 93.995,32.699 M89.029,36.986 C86.826,45.469 81.427,56.424 66.05,67.143 C52.548,76.553 40.04,81.324 28.875,81.324 C26.808,81.324 25.157,81.163 23.934,81.018 C23.613,80.888 23.118,80.469 22.866,80.133 C23.226,78.672 24.068,76.916 28.793,74.936 C48.589,66.638 63.227,54.87 73.487,38.994 C78.408,38.054 83.612,37.381 89.029,36.986" id="Fill-2176" fill="#865F2C"></path>
            <path d="M79.527,33.955 C73.378,48.339 63.104,62.294 31.89,75.378 C25.657,77.99 24.223,79.123 23.669,81.748 C23.237,83.792 25.718,84.196 27.604,84.424 C33.791,85.173 48.182,85.982 70.169,70.658 C90.451,56.522 93.998,41.885 94.872,32.666 C89.739,32.846 84.611,33.258 79.527,33.955" id="Fill-2177" fill="#F2C425"></path>
            <path d="M26.959,81.903 C26.511,81.903 26.069,81.704 25.773,81.323 C25.264,80.669 25.383,79.727 26.037,79.219 C27.284,78.249 29.13,77.302 32.618,75.839 C47.137,69.754 57.98,63.114 65.767,55.542 C66.361,54.965 67.311,54.977 67.888,55.571 C68.466,56.165 68.453,57.114 67.859,57.692 C59.797,65.531 48.649,72.372 33.778,78.606 C30.596,79.94 28.886,80.804 27.878,81.588 C27.605,81.8 27.28,81.903 26.959,81.903" id="Fill-2178" fill="#EFE393"></path>
            <path d="M70.519,54.191 C70.171,54.191 69.822,54.07 69.539,53.826 C68.911,53.284 68.842,52.337 69.384,51.71 C73.346,47.123 76.732,41.578 79.448,35.232 C79.774,34.47 80.653,34.116 81.417,34.443 C82.178,34.769 82.532,35.65 82.206,36.412 C79.368,43.043 75.818,48.849 71.654,53.671 C71.358,54.014 70.939,54.191 70.519,54.191" id="Fill-2179" fill="#EFE393"></path>
            <path d="M79.911,52.878 C79.551,53.517 78.914,53.841 78.487,53.601 C78.061,53.362 78.007,52.649 78.367,52.009 C78.727,51.369 79.364,51.045 79.791,51.285 C80.217,51.525 80.271,52.238 79.911,52.878" id="Fill-2180" fill="#C4B633"></path>
            <path d="M80.798,46.136 C80.438,46.776 79.8,47.1 79.375,46.86 C78.948,46.62 78.894,45.907 79.254,45.267 C79.614,44.628 80.252,44.304 80.678,44.544 C81.104,44.783 81.158,45.496 80.798,46.136" id="Fill-2181" fill="#C4B633"></path>
            <path d="M75.314,55.884 C74.954,56.524 74.316,56.848 73.89,56.608 C73.464,56.368 73.409,55.655 73.769,55.015 C74.13,54.376 74.767,54.052 75.193,54.292 C75.619,54.531 75.674,55.244 75.314,55.884" id="Fill-2182" fill="#C4B633"></path>
            <path d="M55.826,69.155 C55.646,69.475 55.328,69.636 55.114,69.516 C54.901,69.397 54.874,69.04 55.054,68.72 C55.234,68.4 55.552,68.238 55.766,68.358 C55.979,68.478 56.006,68.835 55.826,69.155" id="Fill-2183" fill="#C4B633"></path>
            <path d="M50.383,78.828 C50.204,79.148 49.885,79.311 49.671,79.19 C49.459,79.07 49.431,78.714 49.611,78.394 C49.791,78.074 50.11,77.912 50.323,78.032 C50.536,78.152 50.563,78.508 50.383,78.828" id="Fill-2184" fill="#C4B633"></path>
            <path d="M28.792,81.488 C28.611,81.808 28.292,81.97 28.08,81.85 C27.866,81.73 27.839,81.373 28.019,81.054 C28.199,80.734 28.518,80.572 28.731,80.692 C28.944,80.811 28.971,81.168 28.792,81.488" id="Fill-2185" fill="#C4B633"></path>
            <path d="M33.171,80.827 C32.992,81.147 32.673,81.309 32.459,81.189 C32.247,81.069 32.219,80.713 32.399,80.393 C32.58,80.073 32.898,79.911 33.111,80.031 C33.325,80.151 33.352,80.507 33.171,80.827" id="Fill-2186" fill="#C4B633"></path>
            <path d="M79.037,49.43 C78.858,49.75 78.539,49.912 78.326,49.792 C78.113,49.672 78.086,49.316 78.266,48.996 C78.446,48.676 78.764,48.514 78.978,48.634 C79.191,48.754 79.218,49.11 79.037,49.43" id="Fill-2187" fill="#C4B633"></path>
            <path d="M52.899,73.372 C52.355,74.337 51.393,74.826 50.75,74.464 C50.106,74.102 50.025,73.025 50.568,72.06 C51.111,71.095 52.073,70.606 52.717,70.968 C53.36,71.33 53.441,72.406 52.899,73.372" id="Fill-2188" fill="#C4B633"></path>
            <path d="M85.026,1.696 C85.026,1.696 88.763,11.79 91.08,15.189 C93.397,18.588 100.172,20.962 100.491,30.827 C100.811,40.691 101.441,58.332 81.752,78.66 C62.063,98.988 47.501,100.518 41.178,100.741 C39.25,100.81 36.029,98.461 36.145,96.169 C36.296,93.224 37.023,89.896 42.873,86.014 C82.399,59.783 82.28,25.885 86.663,18.934 C86.663,18.934 84.864,12.222 81.375,7.571 L85.026,1.696" id="Fill-2189" fill="#C49C33"></path>
            <path d="M85.026,1.696 L81.375,7.571 C84.864,12.221 86.663,18.934 86.663,18.934 C82.28,25.885 82.399,59.783 42.873,86.014 C37.023,89.896 36.296,93.224 36.145,96.169 C36.031,98.429 39.159,100.743 41.095,100.743 L41.178,100.741 C47.501,100.518 62.063,98.988 81.752,78.66 C101.441,58.332 100.811,40.691 100.491,30.827 C100.172,20.962 93.397,18.588 91.08,15.189 C88.763,11.79 85.026,1.696 85.026,1.696 M90.489,20.368 C90.695,20.553 90.903,20.737 91.109,20.919 C93.787,23.281 96.318,25.513 96.493,30.956 L96.496,31.042 C96.809,40.685 97.331,56.826 78.879,75.877 C65.765,89.417 53.443,96.242 41.219,96.737 C40.894,96.626 40.397,96.266 40.162,95.982 C40.27,94.322 40.69,92.263 45.084,89.346 C77.247,68.003 84.14,41.984 87.844,28.005 C88.652,24.951 89.417,22.068 90.047,21.068 L90.489,20.368" id="Fill-2190" fill="#865F2C"></path>
            <path d="M90.176,22.876 C86.254,44.303 85.279,64.708 47.885,89.524 C42.351,93.197 41.156,94.587 41.013,97.373 C40.903,99.541 43.316,99.564 45.14,99.5 C51.122,99.289 64.899,97.842 83.526,78.61 C102.152,59.379 102.025,42.657 101.254,33.357 C100.366,22.666 92.245,17.04 90.176,22.876" id="Fill-2191" fill="#F2C425"></path>
            <path d="M43.938,96.97 C43.587,96.97 43.236,96.848 42.951,96.599 C42.327,96.055 42.263,95.107 42.808,94.483 C43.853,93.286 45.467,92.019 48.567,89.963 C61.452,81.411 70.771,72.871 77.056,63.854 C77.529,63.174 78.464,63.008 79.144,63.481 C79.823,63.955 79.99,64.89 79.517,65.569 C73.013,74.902 63.431,83.699 50.226,92.463 C47.405,94.334 45.911,95.491 45.068,96.456 C44.771,96.796 44.355,96.97 43.938,96.97" id="Fill-2192" fill="#EFE393"></path>
            <path d="M81.227,61.59 C80.972,61.59 80.714,61.525 80.477,61.388 C79.76,60.974 79.515,60.057 79.93,59.339 C85.903,49.011 87.598,39.255 89.393,28.927 C89.661,27.387 89.929,25.844 90.212,24.295 C90.361,23.479 91.143,22.939 91.958,23.089 C92.773,23.239 93.313,24.02 93.164,24.835 C92.881,26.375 92.614,27.909 92.349,29.44 C90.589,39.573 88.767,50.05 82.527,60.841 C82.249,61.322 81.745,61.59 81.227,61.59" id="Fill-2193" fill="#EFE393"></path>
            <path d="M83.201,4.633 C83.201,4.633 88.237,20.333 89.658,17.761 C91.08,15.189 91.08,15.189 91.08,15.189 L85.026,1.696 L83.201,4.633" id="Fill-2194" fill="#F2C425"></path>
            <path d="M82.489,1.366 C80.834,2.115 80.152,9.233 82.615,6.952 C84.153,5.528 85.362,2.958 85.026,1.696 C84.824,0.938 84.066,0.652 82.489,1.366" id="Fill-2195" fill="#7B7967"></path>
            <path d="M90.17,58.795 C89.922,59.509 89.365,59.943 88.925,59.764 C88.485,59.585 88.33,58.861 88.578,58.146 C88.826,57.432 89.383,56.998 89.823,57.177 C90.263,57.356 90.418,58.08 90.17,58.795" id="Fill-2196" fill="#C4B633"></path>
            <path d="M90.026,51.726 C89.778,52.44 89.221,52.874 88.781,52.696 C88.341,52.516 88.186,51.792 88.434,51.078 C88.682,50.364 89.239,49.93 89.679,50.108 C90.119,50.287 90.274,51.012 90.026,51.726" id="Fill-2197" fill="#C4B633"></path>
            <path d="M86.247,62.613 C85.999,63.327 85.441,63.761 85.001,63.582 C84.562,63.403 84.406,62.679 84.654,61.965 C84.902,61.25 85.46,60.816 85.899,60.995 C86.339,61.174 86.495,61.898 86.247,62.613" id="Fill-2198" fill="#C4B633"></path>
            <path d="M69.692,79.337 C69.568,79.694 69.29,79.911 69.069,79.822 C68.85,79.732 68.772,79.37 68.896,79.013 C69.02,78.656 69.299,78.439 69.519,78.528 C69.738,78.618 69.816,78.98 69.692,79.337" id="Fill-2199" fill="#C4B633"></path>
            <path d="M65.941,90.141 C65.817,90.498 65.539,90.715 65.319,90.625 C65.099,90.536 65.021,90.174 65.145,89.817 C65.269,89.459 65.548,89.243 65.768,89.332 C65.988,89.422 66.065,89.784 65.941,90.141" id="Fill-2200" fill="#C4B633"></path>
            <path d="M45.837,96.294 C45.713,96.651 45.435,96.868 45.215,96.779 C44.995,96.689 44.917,96.327 45.041,95.97 C45.165,95.613 45.444,95.396 45.664,95.485 C45.884,95.575 45.961,95.937 45.837,96.294" id="Fill-2201" fill="#C4B633"></path>
            <path d="M49.898,94.921 C49.774,95.279 49.495,95.495 49.275,95.406 C49.055,95.316 48.978,94.954 49.102,94.597 C49.226,94.24 49.504,94.023 49.724,94.113 C49.944,94.202 50.022,94.564 49.898,94.921" id="Fill-2202" fill="#C4B633"></path>
            <path d="M88.837,55.39 C88.713,55.747 88.435,55.964 88.215,55.875 C87.995,55.785 87.917,55.423 88.041,55.066 C88.165,54.709 88.444,54.492 88.664,54.581 C88.884,54.671 88.961,55.033 88.837,55.39" id="Fill-2203" fill="#C4B633"></path>
            <path d="M67.53,84.135 C67.156,85.213 66.314,85.868 65.651,85.597 C64.987,85.327 64.752,84.234 65.126,83.156 C65.501,82.078 66.342,81.423 67.006,81.693 C67.67,81.963 67.905,83.056 67.53,84.135" id="Fill-2204" fill="#C4B633"></path>
            <g id="Group-2207" transform="translate(50.000000, 37.000000)">
                <mask id="mask-2" fill="white">
                    <use xlink:href="#path-1"></use>
                </mask>
                <g id="Clip-2206"></g>
                <polygon id="Fill-2205" fill="#96813A" mask="url(#mask-2)" points="0.72 18.186 19.498 18.186 19.498 0.783 0.72 0.783"></polygon>
            </g>
            <path d="M33.305,68.51 C33.304,68.51 33.304,68.51 33.304,68.509 L40.442,64.712 L50.72,55.186 C52.735,54.505 54.652,53.771 56.476,52.999 C50.507,58.471 42.961,63.817 33.305,68.51" id="Fill-2208" fill="#7C6E3A"></path>
            <path d="M72.351,35.139 L84.724,23.672 C84.758,23.726 84.792,23.78 84.826,23.835 C84.091,26.446 83.283,29.778 82.135,33.622 C78.854,34.008 75.589,34.509 72.351,35.139" id="Fill-2209" fill="#96813A"></path>
            <path d="M84.826,23.835 C84.792,23.78 84.758,23.726 84.724,23.672 L84.925,23.486 C84.892,23.601 84.859,23.717 84.826,23.835" id="Fill-2210" fill="#7C6E3A"></path>
            <path d="M42.965,70.269 C41.729,70.228 40.484,70.133 39.253,69.971 C53.854,62.144 65.124,51.934 73.487,38.994 C74.813,38.741 76.159,38.507 77.524,38.293 C72.016,49.3 63.059,60.026 42.965,70.269" id="Fill-2211" fill="#7F6B39"></path>
            <path d="M39.253,69.971 C37.188,69.699 35.166,69.235 33.305,68.51 C51.969,59.439 62.75,47.929 69.498,37.783 L72.351,35.139 C75.589,34.509 78.854,34.008 82.135,33.622 L82.135,33.623 C81.265,33.725 80.395,33.836 79.527,33.955 C78.907,35.405 78.245,36.852 77.524,38.293 C76.159,38.507 74.813,38.741 73.487,38.994 C65.124,51.934 53.854,62.144 39.253,69.971" id="Fill-2212" fill="#5F482D"></path>
            <path d="M54.069,77.533 C56.637,74.987 59.334,71.822 59.341,69.758 C59.342,69.274 59.196,68.85 58.865,68.509 C58.865,68.509 57.708,68.814 55.816,69.172 C55.82,69.166 55.823,69.16 55.826,69.155 C56.006,68.835 55.979,68.478 55.766,68.358 C55.718,68.331 55.665,68.319 55.609,68.319 C55.417,68.319 55.194,68.472 55.054,68.72 C54.934,68.933 54.906,69.162 54.964,69.327 C53.968,69.502 52.82,69.681 51.565,69.836 C58.01,66.049 63.405,62.023 67.859,57.692 C68.453,57.114 68.466,56.165 67.888,55.571 C67.594,55.269 67.204,55.117 66.814,55.117 C66.437,55.117 66.059,55.258 65.767,55.542 C60.279,60.879 53.272,65.752 44.531,70.295 C44.524,70.295 44.517,70.295 44.51,70.295 C43.998,70.295 43.482,70.287 42.965,70.269 C63.059,60.026 72.016,49.3 77.524,38.293 C78.245,36.852 78.907,35.405 79.527,33.955 C80.395,33.836 81.265,33.725 82.135,33.623 C82.03,33.974 81.922,34.33 81.811,34.69 C81.696,34.59 81.564,34.506 81.417,34.443 C81.224,34.36 81.023,34.321 80.826,34.321 C80.244,34.321 79.691,34.663 79.448,35.232 C76.732,41.578 73.346,47.123 69.384,51.71 C68.842,52.337 68.911,53.284 69.539,53.826 C69.822,54.07 70.171,54.191 70.519,54.191 C70.939,54.191 71.358,54.014 71.654,53.671 C74.189,50.736 76.497,47.435 78.555,43.805 C75.758,50.582 71.721,58.121 65.544,65.728 C65.543,65.729 65.543,65.729 65.543,65.729 C65.543,65.729 64.576,66.918 63.042,68.678 C60.411,71.647 57.438,74.613 54.069,77.533" id="Fill-2213" fill="#937C39"></path>
            <path d="M44.531,70.295 C53.272,65.752 60.279,60.879 65.767,55.542 C66.059,55.258 66.437,55.117 66.814,55.117 C67.204,55.117 67.594,55.269 67.888,55.571 C68.466,56.165 68.453,57.114 67.859,57.692 C63.405,62.023 58.01,66.049 51.565,69.836 C49.452,70.098 47.035,70.294 44.531,70.295" id="Fill-2214" fill="#8F8A3B"></path>
            <path d="M70.519,54.191 C70.171,54.191 69.822,54.07 69.539,53.826 C68.911,53.284 68.842,52.337 69.384,51.71 C73.346,47.123 76.732,41.578 79.448,35.232 C79.691,34.663 80.244,34.321 80.826,34.321 C81.023,34.321 81.224,34.36 81.417,34.443 C81.564,34.506 81.696,34.59 81.811,34.69 C80.945,37.502 79.891,40.567 78.555,43.805 C76.497,47.435 74.189,50.736 71.654,53.671 C71.358,54.014 70.939,54.191 70.519,54.191" id="Fill-2215" fill="#8F8A3B"></path>
            <path d="M54.964,69.327 C54.906,69.162 54.934,68.933 55.054,68.72 C55.194,68.472 55.417,68.319 55.609,68.319 C55.665,68.319 55.718,68.331 55.766,68.358 C55.979,68.478 56.006,68.835 55.826,69.155 C55.823,69.16 55.82,69.166 55.816,69.172 C55.547,69.222 55.262,69.275 54.964,69.327" id="Fill-2216" fill="#7C793C"></path>
            <path d="M74.456,60.328 C82.622,47.715 85.745,35.927 87.844,28.005 C88.652,24.951 89.417,22.068 90.047,21.068 L90.489,20.368 C90.695,20.553 90.903,20.737 91.109,20.919 C91.182,20.983 91.255,21.047 91.327,21.111 C90.854,21.497 90.459,22.08 90.176,22.876 C88.22,33.564 86.996,44.001 81.619,54.855 C79.632,56.616 77.284,58.427 74.456,60.328" id="Fill-2217" fill="#7F6B39"></path>
            <path d="M49.5,81.657 C49.5,81.657 51.731,79.851 54.069,77.533 C57.438,74.613 60.411,71.647 63.042,68.678 C59.792,72.407 54.002,78.698 49.5,81.657 M65.544,65.728 C79.366,48.705 82.485,32.007 84.925,23.486 L91.661,17.243 C91.661,17.243 92.843,18.51 93.987,20.681 C93.646,20.58 93.312,20.529 92.991,20.529 C92.378,20.529 91.811,20.717 91.327,21.111 C91.255,21.047 91.182,20.983 91.109,20.919 C90.903,20.737 90.695,20.553 90.489,20.368 L90.047,21.068 C89.417,22.068 88.652,24.951 87.844,28.005 C85.745,35.927 82.622,47.715 74.456,60.328 C71.904,62.045 68.963,63.834 65.543,65.729" id="Fill-2218" fill="#5F482D"></path>
            <path d="M81.619,54.855 C86.996,44.001 88.22,33.564 90.176,22.876 C90.459,22.08 90.854,21.497 91.327,21.111 C91.811,20.717 92.378,20.529 92.991,20.529 C93.312,20.529 93.646,20.58 93.987,20.681 C95.06,22.717 96.101,25.546 96.106,28.87 C96.11,31.089 95.652,33.528 94.434,36.098 C92.527,40.124 90.879,43.727 88.414,47.284 C90.301,41.226 91.335,35.276 92.349,29.44 C92.614,27.909 92.881,26.375 93.164,24.835 C93.313,24.02 92.773,23.239 91.958,23.089 C91.866,23.072 91.775,23.064 91.685,23.064 C90.975,23.064 90.344,23.571 90.212,24.295 C89.929,25.844 89.661,27.387 89.393,28.927 C87.922,37.394 86.517,45.477 82.768,53.806 C82.399,54.153 82.016,54.504 81.619,54.855" id="Fill-2219" fill="#937C39"></path>
            <path d="M82.768,53.806 C86.517,45.477 87.922,37.394 89.393,28.927 C89.661,27.387 89.929,25.844 90.212,24.295 C90.344,23.571 90.975,23.064 91.685,23.064 C91.775,23.064 91.866,23.072 91.958,23.089 C92.773,23.239 93.313,24.02 93.164,24.835 C92.881,26.375 92.614,27.909 92.349,29.44 C91.335,35.276 90.301,41.226 88.414,47.284 C86.915,49.447 85.114,51.593 82.768,53.806" id="Fill-2220" fill="#8F8A3B"></path>
            <path d="M93.761,2.969 C93.761,2.969 91.509,13.182 91.662,17.243 C91.814,21.302 96.358,27.162 91.29,35.188 C86.222,43.215 77.209,57.603 49.258,62.211 C21.306,66.819 7.947,59.494 2.385,55.963 C0.689,54.887 -0.811,51.131 0.531,49.379 C2.256,47.127 4.684,44.908 11.82,45.253 C60.039,47.589 78.297,20.581 85.833,17.628 C85.833,17.628 87.921,11.239 87.438,5.497 L93.761,2.969" id="Fill-2221" fill="#C49C33"></path>
            <path d="M93.761,2.969 L87.438,5.497 C87.921,11.239 85.833,17.628 85.833,17.628 C78.608,20.459 61.535,45.396 17.651,45.396 C15.759,45.396 13.813,45.35 11.82,45.253 C11.322,45.229 10.847,45.218 10.394,45.218 C4.349,45.218 2.135,47.284 0.531,49.379 C-0.811,51.131 0.689,54.887 2.385,55.963 C6.685,58.693 15.64,63.688 32.396,63.688 C37.316,63.688 42.913,63.257 49.258,62.211 C77.209,57.603 86.222,43.215 91.29,35.188 C96.358,27.162 91.814,21.302 91.662,17.243 C91.509,13.182 93.761,2.969 93.761,2.969 Z M88.31,20.954 C88.418,21.339 88.534,21.727 88.651,22.12 C89.665,25.532 90.622,28.755 87.908,33.053 L87.864,33.123 C82.942,40.917 74.705,53.962 48.607,58.264 C42.875,59.209 37.421,59.688 32.396,59.688 C17.542,59.688 9.436,55.687 4.622,52.645 C4.388,52.39 4.122,51.798 4.039,51.388 C4.906,50.332 6.254,49.218 10.394,49.218 C10.786,49.218 11.201,49.228 11.627,49.249 C13.65,49.347 15.677,49.396 17.651,49.396 C52.984,49.396 71.677,33.867 81.719,25.524 C83.945,23.675 86.248,21.762 87.292,21.352 L88.31,20.954 Z" id="Fill-2222" fill="#865F2C"></path>
            <path d="M86.721,22.821 C71.741,37.548 59.849,53.192 14.231,50.982 C7.48,50.655 5.699,51.059 4.068,53.19 C2.798,54.848 4.862,56.282 6.467,57.301 C11.729,60.641 24.367,67.571 50.811,63.211 C77.254,58.852 86.203,45.491 90.576,37.646 C95.603,28.63 91.661,19.396 86.721,22.821" id="Fill-2223" fill="#F2C425"></path>
            <path d="M22.976,54.92 C20.263,54.92 17.455,54.849 14.544,54.708 C11.097,54.542 9.183,54.585 7.936,54.858 C7.123,55.032 6.326,54.523 6.15,53.714 C5.973,52.904 6.485,52.105 7.294,51.928 C8.838,51.591 10.913,51.53 14.689,51.712 C30.41,52.473 43.059,51.152 53.35,47.673 C54.136,47.407 54.986,47.828 55.251,48.613 C55.517,49.398 55.095,50.249 54.311,50.514 C45.583,53.466 35.273,54.92 22.976,54.92" id="Fill-2224" fill="#EFE393"></path>
            <path d="M58.866,48.647 C58.289,48.647 57.738,48.312 57.491,47.749 C57.159,46.99 57.504,46.105 58.263,45.773 C68.977,41.077 75.71,34.328 82.839,27.182 C83.904,26.115 84.971,25.045 86.055,23.979 C86.646,23.399 87.595,23.407 88.176,23.997 C88.757,24.588 88.749,25.538 88.158,26.119 C87.082,27.177 86.021,28.24 84.963,29.301 C77.951,36.329 70.701,43.597 59.467,48.521 C59.271,48.607 59.067,48.647 58.866,48.647" id="Fill-2225" fill="#EFE393"></path>
            <path d="M90.599,4.233 C90.599,4.233 86.429,19.662 89.045,18.452 C91.662,17.243 91.662,17.243 91.662,17.243 L93.761,2.969 L90.599,4.233" id="Fill-2226" fill="#F2C425"></path>
            <path d="M91.757,1.219 C89.927,0.844 85.485,6.1 88.838,5.732 C90.935,5.502 93.366,4.169 93.761,2.969 C93.997,2.248 93.5,1.576 91.757,1.219" id="Fill-2227" fill="#7B7967"></path>
            <path d="M67.261,51.362 C66.661,51.784 65.946,51.802 65.665,51.401 C65.383,51.001 65.641,50.334 66.242,49.912 C66.842,49.49 67.557,49.472 67.838,49.872 C68.12,50.272 67.861,50.939 67.261,51.362" id="Fill-2228" fill="#C4B633"></path>
            <path d="M70.965,45.659 C70.365,46.082 69.65,46.099 69.369,45.7 C69.087,45.299 69.346,44.633 69.946,44.21 C70.546,43.788 71.261,43.77 71.542,44.17 C71.824,44.571 71.566,45.237 70.965,45.659" id="Fill-2229" fill="#C4B633"></path>
            <path d="M61.817,52.095 C61.217,52.517 60.502,52.534 60.22,52.135 C59.939,51.734 60.197,51.068 60.797,50.645 C61.398,50.223 62.113,50.205 62.394,50.605 C62.676,51.006 62.417,51.672 61.817,52.095" id="Fill-2230" fill="#C4B633"></path>
            <path d="M38.514,55.676 C38.214,55.888 37.856,55.896 37.715,55.696 C37.575,55.496 37.704,55.162 38.004,54.951 C38.304,54.741 38.662,54.731 38.802,54.931 C38.943,55.132 38.814,55.465 38.514,55.676" id="Fill-2231" fill="#C4B633"></path>
            <path d="M29.435,62.062 C29.135,62.273 28.777,62.283 28.637,62.082 C28.496,61.882 28.625,61.549 28.925,61.338 C29.226,61.126 29.583,61.118 29.724,61.318 C29.864,61.518 29.735,61.851 29.435,62.062" id="Fill-2232" fill="#C4B633"></path>
            <path d="M8.803,55.161 C8.503,55.373 8.146,55.382 8.005,55.181 C7.864,54.982 7.993,54.648 8.293,54.437 C8.594,54.226 8.951,54.217 9.092,54.417 C9.232,54.617 9.103,54.951 8.803,55.161" id="Fill-2233" fill="#C4B633"></path>
            <path d="M13.041,56.452 C12.741,56.663 12.383,56.672 12.242,56.472 C12.102,56.272 12.231,55.939 12.531,55.727 C12.831,55.516 13.188,55.508 13.329,55.707 C13.47,55.908 13.341,56.241 13.041,56.452" id="Fill-2234" fill="#C4B633"></path>
            <path d="M67.958,47.874 C67.658,48.085 67.3,48.094 67.16,47.894 C67.019,47.694 67.148,47.361 67.448,47.149 C67.749,46.938 68.106,46.929 68.247,47.129 C68.387,47.329 68.258,47.663 67.958,47.874" id="Fill-2235" fill="#C4B633"></path>
            <path d="M34.055,58.221 C33.149,58.858 32.07,58.885 31.646,58.281 C31.221,57.677 31.611,56.671 32.517,56.034 C33.423,55.396 34.501,55.369 34.926,55.973 C35.351,56.577 34.961,57.584 34.055,58.221" id="Fill-2236" fill="#C4B633"></path>
        </g>
    </g>
</svg>