<?xml version="1.0" encoding="UTF-8"?>
<svg width="112px" height="115px" viewBox="0 0 112 115" version="1.1" xmlns="http://www.w3.org/2000/svg" xmlns:xlink="http://www.w3.org/1999/xlink">
    <!-- Generator: Sketch 51.3 (57544) - http://www.bohemiancoding.com/sketch -->
    <title>Artboard 2 Copy</title>
    <desc>Created with Sketch.</desc>
    <defs></defs>
    <g id="Artboard-2-Copy" stroke="none" stroke-width="1" fill="none" fill-rule="evenodd">
        <g id="Group-200" transform="translate(4.000000, 0.000000)">
            <path d="M104.2416,46.9711 C104.0956,45.2041 103.7476,43.5791 103.2656,42.1181 C102.1746,34.9761 97.3266,32.4291 94.8156,29.7251 L96.7486,16.5821 C96.9856,15.8631 96.4886,15.1901 94.7446,14.8321 C93.2686,14.5311 90.0956,17.8901 90.6826,19.0081 L90.4256,19.1121 C90.4726,19.6811 90.4896,20.2571 90.4916,20.8321 L88.0136,15.3101 C87.8116,14.5521 87.0536,14.2661 85.4766,14.9801 C84.1426,15.5841 83.4416,20.3281 84.5126,20.9471 L84.3636,21.1861 C86.6666,24.2551 88.2276,28.2121 89.0276,30.5551 C88.9026,30.9921 88.8216,31.2421 88.8216,31.2421 C81.2846,34.1961 63.0266,61.2031 14.8086,58.8671 C7.6726,58.5221 5.2436,60.7411 3.5186,62.9921 C2.1776,64.7451 3.6776,68.5001 5.3726,69.5771 C7.8986,71.1811 12.0406,73.5641 18.4186,75.2591 C24.1626,77.2561 32.3466,78.7921 43.7726,78.0081 L43.4476,78.3101 C43.4026,78.3361 43.3576,78.3631 43.3126,78.3881 L36.3556,82.0901 C34.4016,83.0411 32.3656,83.9671 30.2346,84.8611 C23.6456,87.6221 22.4096,90.6711 21.8236,93.4471 C21.3676,95.6061 24.3386,98.3491 26.3326,98.5901 C29.3026,98.9491 34.0676,99.3161 40.5536,98.0991 C43.6866,97.7501 47.3546,97.0111 51.5536,95.5941 C49.7516,96.9541 47.8596,98.3011 45.8606,99.6271 C40.0116,103.5101 39.2836,106.8381 39.1336,109.7841 C39.0166,112.0751 42.2376,114.4231 44.1656,114.3551 C47.0366,114.2541 51.6136,113.8761 57.5916,111.5981 C64.7596,109.5021 74.6506,104.4721 86.5136,92.2241 C105.1396,72.9921 105.0136,56.2721 104.2416,46.9711" id="Fill-1" fill="#BFBEBE"></path>
            <path d="M71.7123,34.4506 C64.4563,46.1656 51.9873,60.2096 27.9343,70.2916 C21.3453,73.0536 20.1083,76.1016 19.5233,78.8776 C19.0663,81.0366 22.0383,83.7796 24.0313,84.0206 C30.5723,84.8116 45.7833,85.6676 69.0243,69.4696 C88.7463,55.7236 93.1263,41.4976 94.6823,31.7436 C86.9633,32.0546 79.2603,32.8946 71.7123,34.4506" id="Fill-3" fill="#CDA12B"></path>
            <path d="M94.6825,31.7436 C86.9635,32.0556 79.2605,32.8946 71.7125,34.4506 C64.4565,46.1656 51.9875,60.2096 27.9335,70.2916 C21.3455,73.0536 20.1085,76.1016 19.5225,78.8776 C19.0665,81.0366 22.0375,83.7796 24.0315,84.0206 C25.4625,84.1936 27.3085,84.3696 29.5625,84.3696 C37.6115,84.3696 50.8675,82.1246 69.0245,69.4696 C88.7455,55.7236 93.1255,41.4976 94.6825,31.7436 M89.7165,36.0306 C87.5135,44.5146 82.1155,55.4706 66.7375,66.1876 C53.2355,75.5986 40.7275,80.3696 29.5625,80.3696 C27.4955,80.3696 25.8445,80.2086 24.6215,80.0626 C24.3005,79.9336 23.8055,79.5146 23.5535,79.1796 C23.9135,77.7176 24.7555,75.9616 29.4805,73.9806 C49.2755,65.6826 63.9145,53.9156 74.1745,38.0396 C79.0955,37.0986 84.2995,36.4276 89.7165,36.0306" id="Fill-5" fill="#926728"></path>
            <path d="M80.2148,33.0004 C74.0658,47.3844 63.7918,61.3394 32.5778,74.4234 C26.3438,77.0354 24.9108,78.1684 24.3558,80.7934 C23.9248,82.8364 26.4048,83.2414 28.2918,83.4694 C34.4788,84.2184 48.8698,85.0274 70.8568,69.7034 C91.1388,55.5664 94.6858,40.9314 95.5598,31.7104 C90.4268,31.8914 85.2978,32.3034 80.2148,33.0004" id="Fill-7" fill="#F9FF00"></path>
            <path d="M27.6459,80.9487 C27.1989,80.9487 26.7559,80.7497 26.4599,80.3687 C25.9519,79.7147 26.0699,78.7717 26.7249,78.2637 C27.9719,77.2947 29.8169,76.3467 33.3059,74.8847 C47.8249,68.7997 58.6669,62.1597 66.4549,54.5867 C67.0489,54.0107 67.9979,54.0217 68.5759,54.6157 C69.1529,55.2107 69.1399,56.1597 68.5459,56.7367 C60.4849,64.5767 49.3369,71.4177 34.4659,77.6507 C31.2829,78.9847 29.5739,79.8487 28.5649,80.6337 C28.2919,80.8447 27.9679,80.9487 27.6459,80.9487" id="Fill-9" fill="#F0E394"></path>
            <path d="M71.206,53.2358 C70.858,53.2358 70.51,53.1158 70.226,52.8718 C69.599,52.3298 69.53,51.3818 70.071,50.7558 C74.033,46.1688 77.419,40.6238 80.135,34.2768 C80.461,33.5148 81.341,33.1618 82.104,33.4888 C82.866,33.8138 83.219,34.6958 82.893,35.4578 C80.056,42.0888 76.506,47.8948 72.342,52.7158 C72.045,53.0598 71.626,53.2358 71.206,53.2358" id="Fill-11" fill="#F0E394"></path>
            <path d="M80.5986,51.9233 C80.2386,52.5633 79.6016,52.8873 79.1746,52.6473 C78.7486,52.4063 78.6946,51.6943 79.0546,51.0543 C79.4146,50.4143 80.0516,50.0903 80.4776,50.3303 C80.9046,50.5703 80.9586,51.2833 80.5986,51.9233" id="Fill-13" fill="#CBBC2D"></path>
            <path d="M81.4858,45.1811 C81.1258,45.8211 80.4888,46.1451 80.0618,45.9051 C79.6358,45.6651 79.5818,44.9521 79.9418,44.3131 C80.3008,43.6731 80.9388,43.3491 81.3648,43.5891 C81.7918,43.8281 81.8458,44.5411 81.4858,45.1811" id="Fill-15" fill="#CBBC2D"></path>
            <path d="M76.0014,54.9291 C75.6414,55.5691 75.0034,55.8931 74.5774,55.6541 C74.1514,55.4131 74.0974,54.7001 74.4574,54.0611 C74.8164,53.4211 75.4544,53.0971 75.8804,53.3371 C76.3074,53.5761 76.3614,54.2891 76.0014,54.9291" id="Fill-17" fill="#CBBC2D"></path>
            <path d="M56.5136,68.1996 C56.3336,68.5186 56.0146,68.6806 55.8016,68.5616 C55.5886,68.4416 55.5616,68.0856 55.7416,67.7646 C55.9216,67.4456 56.2406,67.2836 56.4536,67.4036 C56.6666,67.5226 56.6936,67.8796 56.5136,68.1996" id="Fill-19" fill="#CBBC2D"></path>
            <path d="M51.0712,77.8735 C50.8912,78.1935 50.5722,78.3555 50.3592,78.2355 C50.1462,78.1155 50.1192,77.7595 50.2992,77.4385 C50.4792,77.1195 50.7972,76.9575 51.0102,77.0775 C51.2242,77.1975 51.2512,77.5545 51.0712,77.8735" id="Fill-21" fill="#CBBC2D"></path>
            <path d="M29.4789,80.5326 C29.2989,80.8526 28.9799,81.0146 28.7669,80.8946 C28.5539,80.7746 28.5269,80.4186 28.7069,80.0986 C28.8869,79.7786 29.2059,79.6166 29.4189,79.7366 C29.6319,79.8566 29.6589,80.2136 29.4789,80.5326" id="Fill-23" fill="#CBBC2D"></path>
            <path d="M33.8593,79.8725 C33.6793,80.1915 33.3603,80.3535 33.1473,80.2335 C32.9343,80.1145 32.9073,79.7585 33.0873,79.4375 C33.2673,79.1185 33.5853,78.9565 33.7983,79.0755 C34.0123,79.1955 34.0393,79.5525 33.8593,79.8725" id="Fill-25" fill="#CBBC2D"></path>
            <path d="M79.7255,48.475 C79.5455,48.795 79.2265,48.957 79.0135,48.837 C78.8005,48.717 78.7735,48.361 78.9535,48.041 C79.1335,47.721 79.4525,47.559 79.6645,47.679 C79.8785,47.799 79.9055,48.156 79.7255,48.475" id="Fill-27" fill="#CBBC2D"></path>
            <path d="M53.5859,72.4164 C53.0429,73.3824 52.0809,73.8704 51.4379,73.5094 C50.7939,73.1464 50.7119,72.0704 51.2549,71.1054 C51.7989,70.1404 52.7609,69.6504 53.4039,70.0134 C54.0479,70.3754 54.1289,71.4514 53.5859,72.4164" id="Fill-29" fill="#CBBC2D"></path>
            <path d="M85.7133,0.7406 C85.7133,0.7406 89.4503,10.8356 91.7673,14.2336 C94.0853,17.6336 100.8593,20.0076 101.1793,29.8716 C101.4983,39.7356 102.1283,57.3776 82.4403,77.7056 C62.7513,98.0336 48.1883,99.5626 41.8653,99.7866 C39.9373,99.8546 36.7163,97.5066 36.8333,95.2146 C36.9833,92.2696 37.7103,88.9406 43.5603,85.0586 C83.0873,58.8286 82.9673,24.9296 87.3513,17.9786 C87.3513,17.9786 85.5513,11.2656 82.0633,6.6166 L85.7133,0.7406 Z" id="Fill-31" fill="#CDA12B"></path>
            <path d="M85.7133,0.7406 L82.0633,6.6166 C85.5513,11.2656 87.3513,17.9786 87.3513,17.9786 C82.9673,24.9296 83.0873,58.8286 43.5603,85.0586 C37.7103,88.9406 36.9833,92.2696 36.8333,95.2146 C36.7173,97.4726 39.8473,99.7876 41.7823,99.7876 C41.8103,99.7876 41.8383,99.7876 41.8653,99.7866 C48.1883,99.5626 62.7513,98.0336 82.4403,77.7056 C102.1283,57.3776 101.4983,39.7356 101.1793,29.8716 C100.8593,20.0076 94.0853,17.6336 91.7673,14.2336 C89.4503,10.8356 85.7133,0.7406 85.7133,0.7406 M91.1753,19.4136 C91.3823,19.5986 91.5903,19.7816 91.7963,19.9646 C94.4753,22.3266 97.0053,24.5586 97.1813,30.0016 L97.1843,30.0876 C97.4963,39.7306 98.0183,55.8716 79.5663,74.9226 C66.4523,88.4626 54.1303,95.2876 41.9063,95.7816 C41.5823,95.6716 41.0853,95.3106 40.8503,95.0276 C40.9583,93.3676 41.3783,91.3076 45.7723,88.3916 C77.9343,67.0486 84.8273,41.0286 88.5313,27.0506 C89.3393,23.9966 90.1043,21.1126 90.7343,20.1126 L91.1753,19.4136" id="Fill-33" fill="#926728"></path>
            <path d="M90.8642,21.9213 C86.9422,43.3473 85.9662,63.7533 48.5722,88.5683 C43.0382,92.2413 41.8432,93.6323 41.7002,96.4183 C41.5902,98.5863 44.0042,98.6093 45.8272,98.5453 C51.8092,98.3333 65.5862,96.8873 84.2132,77.6553 C102.8402,58.4243 102.7132,41.7023 101.9412,32.4013 C101.0542,21.7103 92.9322,16.0853 90.8642,21.9213" id="Fill-35" fill="#F9FF00"></path>
            <path d="M44.6249,96.0151 C44.2749,96.0151 43.9229,95.8931 43.6389,95.6451 C43.0149,95.1001 42.9509,94.1531 43.4959,93.5281 C44.5399,92.3311 46.1549,91.0651 49.2539,89.0081 C62.1399,80.4561 71.4579,71.9161 77.7429,62.9001 C78.2159,62.2191 79.1509,62.0531 79.8309,62.5271 C80.5109,63.0001 80.6779,63.9351 80.2039,64.6151 C73.6999,73.9481 64.1189,82.7441 50.9129,91.5081 C48.0919,93.3791 46.5979,94.5361 45.7549,95.5011 C45.4589,95.8411 45.0429,96.0151 44.6249,96.0151" id="Fill-37" fill="#F0E394"></path>
            <path d="M81.9145,60.6362 C81.6595,60.6362 81.4015,60.5712 81.1645,60.4342 C80.4475,60.0192 80.2025,59.1022 80.6175,58.3842 C86.5905,48.0562 88.2865,38.3002 90.0805,27.9722 C90.3485,26.4322 90.6165,24.8892 90.8995,23.3402 C91.0485,22.5252 91.8305,21.9852 92.6455,22.1342 C93.4605,22.2832 93.9995,23.0652 93.8515,23.8802 C93.5685,25.4202 93.3025,26.9542 93.0365,28.4862 C91.2755,38.6182 89.4555,49.0962 83.2145,59.8862 C82.9365,60.3662 82.4325,60.6362 81.9145,60.6362" id="Fill-39" fill="#F0E394"></path>
            <path d="M83.8881,3.6781 C83.8881,3.6781 88.9241,19.3771 90.3461,16.8061 L91.7671,14.2341 L85.7131,0.7401 L83.8881,3.6781 Z" id="Fill-41" fill="#F9FF00"></path>
            <path d="M83.1767,0.4106 C81.5217,1.1596 80.8407,8.2776 83.3017,5.9976 C84.8407,4.5726 86.0497,2.0026 85.7137,0.7406 C85.5107,-0.0174 84.7537,-0.3034 83.1767,0.4106" id="Fill-43" fill="#82806F"></path>
            <path d="M90.8583,57.8403 C90.6103,58.5543 90.0523,58.9883 89.6123,58.8093 C89.1723,58.6303 89.0173,57.9053 89.2653,57.1923 C89.5133,56.4773 90.0703,56.0433 90.5103,56.2223 C90.9503,56.4023 91.1063,57.1253 90.8583,57.8403" id="Fill-45" fill="#CBBC2D"></path>
            <path d="M90.7138,50.7709 C90.4658,51.4859 89.9078,51.9189 89.4678,51.7409 C89.0288,51.5619 88.8728,50.8369 89.1208,50.1239 C89.3688,49.4089 89.9268,48.9749 90.3668,49.1539 C90.8058,49.3329 90.9618,50.0569 90.7138,50.7709" id="Fill-47" fill="#CBBC2D"></path>
            <path d="M86.9345,61.6576 C86.6865,62.3726 86.1285,62.8056 85.6885,62.6276 C85.2495,62.4486 85.0935,61.7236 85.3415,61.0096 C85.5895,60.2956 86.1475,59.8616 86.5875,60.0406 C87.0265,60.2196 87.1825,60.9436 86.9345,61.6576" id="Fill-49" fill="#CBBC2D"></path>
            <path d="M70.3798,78.3823 C70.2558,78.7393 69.9768,78.9563 69.7568,78.8663 C69.5368,78.7783 69.4598,78.4153 69.5838,78.0583 C69.7078,77.7003 69.9858,77.4843 70.2058,77.5733 C70.4258,77.6623 70.5038,78.0253 70.3798,78.3823" id="Fill-51" fill="#CBBC2D"></path>
            <path d="M66.6293,89.186 C66.5053,89.543 66.2263,89.76 66.0063,89.67 C65.7863,89.582 65.7093,89.219 65.8333,88.862 C65.9573,88.504 66.2353,88.288 66.4553,88.377 C66.6753,88.466 66.7533,88.829 66.6293,89.186" id="Fill-53" fill="#CBBC2D"></path>
            <path d="M46.5248,95.3393 C46.4008,95.6963 46.1218,95.9133 45.9018,95.8233 C45.6818,95.7353 45.6048,95.3723 45.7288,95.0153 C45.8528,94.6573 46.1308,94.4413 46.3508,94.5303 C46.5708,94.6193 46.6488,94.9823 46.5248,95.3393" id="Fill-55" fill="#CBBC2D"></path>
            <path d="M50.5854,93.9662 C50.4614,94.3232 50.1824,94.5402 49.9624,94.4512 C49.7434,94.3622 49.6654,93.9992 49.7894,93.6422 C49.9134,93.2852 50.1914,93.0682 50.4124,93.1572 C50.6314,93.2472 50.7094,93.6092 50.5854,93.9662" id="Fill-57" fill="#CBBC2D"></path>
            <path d="M89.5248,54.435 C89.4008,54.792 89.1218,55.009 88.9018,54.92 C88.6818,54.831 88.6048,54.468 88.7288,54.111 C88.8528,53.754 89.1308,53.537 89.3508,53.626 C89.5708,53.716 89.6488,54.079 89.5248,54.435" id="Fill-59" fill="#CBBC2D"></path>
            <path d="M68.2182,83.1791 C67.8432,84.2571 67.0022,84.9121 66.3382,84.6421 C65.6752,84.3721 65.4402,83.2801 65.8142,82.2011 C66.1882,81.1231 67.0302,80.4681 67.6942,80.7391 C68.3572,81.0081 68.5922,82.1021 68.2182,83.1791" id="Fill-61" fill="#CBBC2D"></path>
            <path d="M92.3495,16.2875 C92.3495,16.2875 100.1095,24.6145 95.1215,35.1425 C90.1345,45.6715 86.9195,53.3105 66.2305,64.7735 C66.2305,64.7735 56.8145,76.3465 50.1875,80.7025 C50.1875,80.7025 62.5785,70.6725 59.5525,67.5555 C59.5525,67.5555 44.2935,71.5715 33.9915,67.5555 L41.1295,63.7575 L92.3495,16.2875 Z" id="Fill-63" fill="#CBBC2D"></path>
            <path d="M92.3495,16.2875 C92.3495,16.2875 100.1095,24.6145 95.1215,35.1425 C90.1345,45.6715 86.9195,53.3105 66.2305,64.7735 C66.2305,64.7735 56.8145,76.3465 50.1875,80.7025 C50.1875,80.7025 62.5785,70.6725 59.5525,67.5555 C59.5525,67.5555 44.2935,71.5715 33.9915,67.5555 L41.1295,63.7575 L92.3495,16.2875 Z" id="Fill-65" fill="#CBBC2D"></path>
            <path d="M94.4482,2.0131 C94.4482,2.0131 92.1972,12.2281 92.3492,16.2871 C92.5022,20.3471 97.0462,26.2071 91.9782,34.2341 C86.9092,42.2601 77.8972,56.6491 49.9452,61.2561 C21.9932,65.8641 8.6342,58.5391 3.0732,55.0081 C1.3772,53.9321 -0.1228,50.1761 1.2192,48.4241 C2.9432,46.1721 5.3722,43.9521 12.5082,44.2981 C60.7262,46.6341 78.9842,19.6261 86.5212,16.6731 C86.5212,16.6731 88.6082,10.2841 88.1252,4.5421 L94.4482,2.0131 Z" id="Fill-67" fill="#CDA12B"></path>
            <path d="M94.4482,2.0131 L88.1252,4.5421 C88.6082,10.2841 86.5212,16.6731 86.5212,16.6731 C79.2962,19.5041 62.2222,44.4421 18.3382,44.4421 C16.4472,44.4421 14.5002,44.3951 12.5082,44.2981 C12.0102,44.2751 11.5342,44.2631 11.0812,44.2631 C5.0362,44.2631 2.8232,46.3291 1.2192,48.4241 C-0.1228,50.1761 1.3772,53.9321 3.0732,55.0081 C7.3722,57.7381 16.3272,62.7341 33.0842,62.7341 C38.0042,62.7341 43.6002,62.3021 49.9452,61.2561 C77.8972,56.6491 86.9092,42.2601 91.9782,34.2341 C97.0462,26.2071 92.5022,20.3471 92.3492,16.2871 C92.1972,12.2281 94.4482,2.0131 94.4482,2.0131 M88.9972,19.9991 C89.1062,20.3841 89.2212,20.7721 89.3382,21.1651 C90.3522,24.5771 91.3102,27.7991 88.5952,32.0981 L88.5512,32.1681 C83.6302,39.9621 75.3922,53.0071 49.2952,57.3101 C43.5632,58.2541 38.1092,58.7341 33.0842,58.7341 C18.2292,58.7341 10.1242,54.7321 5.3092,51.6901 C5.0752,51.4361 4.8092,50.8431 4.7262,50.4331 C5.5942,49.3771 6.9412,48.2631 11.0812,48.2631 C11.4732,48.2631 11.8882,48.2731 12.3142,48.2941 C14.3382,48.3921 16.3642,48.4421 18.3382,48.4421 C53.6722,48.4421 72.3652,32.9121 82.4062,24.5691 C84.6332,22.7191 86.9352,20.8071 87.9802,20.3981 L88.9972,19.9991" id="Fill-69" fill="#926728"></path>
            <path d="M87.4086,21.8666 C72.4286,36.5936 60.5366,52.2376 14.9196,50.0276 C8.1676,49.7006 6.3866,50.1046 4.7556,52.2356 C3.4856,53.8926 5.5506,55.3276 7.1546,56.3456 C12.4156,59.6856 25.0546,66.6156 51.4976,62.2566 C77.9426,57.8976 86.8896,44.5356 91.2626,36.6916 C96.2906,27.6756 92.3486,18.4416 87.4086,21.8666" id="Fill-71" fill="#F9FF00"></path>
            <path d="M23.6635,53.9652 C20.9505,53.9652 18.1425,53.8952 15.2315,53.7532 C11.7845,53.5872 9.8705,53.6302 8.6235,53.9032 C7.8095,54.0762 7.0135,53.5682 6.8375,52.7592 C6.6605,51.9492 7.1725,51.1502 7.9815,50.9732 C9.5255,50.6362 11.6005,50.5742 15.3765,50.7572 C31.0975,51.5192 43.7465,50.1972 54.0375,46.7182 C54.8235,46.4522 55.6735,46.8732 55.9385,47.6582 C56.2045,48.4432 55.7825,49.2942 54.9975,49.5602 C46.2705,52.5112 35.9605,53.9652 23.6635,53.9652" id="Fill-73" fill="#F0E394"></path>
            <path d="M59.5536,47.6928 C58.9756,47.6928 58.4256,47.3568 58.1786,46.7948 C57.8456,46.0358 58.1916,45.1508 58.9506,44.8178 C69.6646,40.1228 76.3976,33.3738 83.5266,26.2278 C84.5916,25.1598 85.6586,24.0898 86.7416,23.0248 C87.3336,22.4438 88.2826,22.4528 88.8636,23.0428 C89.4446,23.6328 89.4366,24.5838 88.8456,25.1648 C87.7686,26.2218 86.7086,27.2858 85.6506,28.3458 C78.6386,35.3748 71.3876,42.6418 60.1546,47.5658 C59.9586,47.6518 59.7546,47.6928 59.5536,47.6928" id="Fill-75" fill="#F0E394"></path>
            <path d="M91.2865,3.2777 C91.2865,3.2777 87.1175,18.7077 89.7335,17.4977 L92.3495,16.2877 L94.4485,2.0127 L91.2865,3.2777 Z" id="Fill-77" fill="#F9FF00"></path>
            <path d="M92.4442,0.2641 C90.6142,-0.1109 86.1732,5.1451 89.5262,4.7781 C91.6222,4.5471 94.0542,3.2141 94.4482,2.0131 C94.6842,1.2931 94.1872,0.6201 92.4442,0.2641" id="Fill-79" fill="#82806F"></path>
            <path d="M67.9487,50.4067 C67.3477,50.8287 66.6337,50.8467 66.3517,50.4467 C66.0707,50.0467 66.3287,49.3797 66.9287,48.9577 C67.5297,48.5357 68.2437,48.5167 68.5257,48.9177 C68.8077,49.3177 68.5487,49.9847 67.9487,50.4067" id="Fill-81" fill="#CBBC2D"></path>
            <path d="M71.6532,44.7045 C71.0522,45.1275 70.3382,45.1445 70.0562,44.7445 C69.7752,44.3445 70.0332,43.6785 70.6332,43.2555 C71.2342,42.8335 71.9482,42.8145 72.2302,43.2155 C72.5112,43.6155 72.2532,44.2825 71.6532,44.7045" id="Fill-83" fill="#CBBC2D"></path>
            <path d="M62.5043,51.1401 C61.9043,51.5621 61.1893,51.5791 60.9073,51.1801 C60.6263,50.7801 60.8843,50.1131 61.4853,49.6911 C62.0853,49.2681 62.8003,49.2501 63.0823,49.6511 C63.3633,50.0511 63.1053,50.7171 62.5043,51.1401" id="Fill-85" fill="#CBBC2D"></path>
            <path d="M39.2016,54.7211 C38.9016,54.9321 38.5436,54.9421 38.4036,54.7421 C38.2626,54.5411 38.3916,54.2071 38.6916,53.9961 C38.9916,53.7851 39.3486,53.7771 39.4906,53.9771 C39.6306,54.1771 39.5016,54.5101 39.2016,54.7211" id="Fill-87" fill="#CBBC2D"></path>
            <path d="M30.1225,61.1078 C29.8225,61.3188 29.4645,61.3278 29.3245,61.1278 C29.1835,60.9268 29.3125,60.5938 29.6125,60.3828 C29.9135,60.1708 30.2705,60.1628 30.4115,60.3628 C30.5515,60.5628 30.4225,60.8958 30.1225,61.1078" id="Fill-89" fill="#CBBC2D"></path>
            <path d="M9.4906,54.2065 C9.1906,54.4185 8.8326,54.4275 8.6926,54.2275 C8.5516,54.0265 8.6806,53.6935 8.9806,53.4815 C9.2816,53.2705 9.6386,53.2625 9.7796,53.4625 C9.9196,53.6625 9.7906,53.9955 9.4906,54.2065" id="Fill-91" fill="#CBBC2D"></path>
            <path d="M13.7284,55.4975 C13.4284,55.7085 13.0704,55.7175 12.9304,55.5175 C12.7894,55.3165 12.9184,54.9835 13.2184,54.7725 C13.5184,54.5615 13.8754,54.5525 14.0174,54.7525 C14.1574,54.9525 14.0284,55.2865 13.7284,55.4975" id="Fill-93" fill="#CBBC2D"></path>
            <path d="M68.6454,46.9193 C68.3454,47.1303 67.9874,47.1393 67.8474,46.9393 C67.7064,46.7383 67.8354,46.4053 68.1354,46.1943 C68.4364,45.9833 68.7934,45.9743 68.9344,46.1743 C69.0744,46.3743 68.9454,46.7083 68.6454,46.9193" id="Fill-95" fill="#CBBC2D"></path>
            <path d="M34.7426,57.266 C33.8366,57.904 32.7586,57.93 32.3326,57.327 C31.9086,56.722 32.2986,55.716 33.2046,55.078 C34.1106,54.442 35.1886,54.414 35.6146,55.019 C36.0386,55.622 35.6486,56.628 34.7426,57.266" id="Fill-97" fill="#CBBC2D"></path>
        </g>
    </g>
</svg>