<?xml version="1.0" encoding="UTF-8"?>
<svg width="20px" height="21px" viewBox="0 0 20 21" version="1.1" xmlns="http://www.w3.org/2000/svg" xmlns:xlink="http://www.w3.org/1999/xlink">
    <!-- Generator: Sketch 51.3 (57544) - http://www.bohemiancoding.com/sketch -->
    <title>Artboard</title>
    <desc>Created with Sketch.</desc>
    <defs></defs>
    <g id="Artboard" stroke="none" stroke-width="1" fill="none" fill-rule="evenodd">
        <g id="Tron.network_logo" fill="#2F354B" fill-rule="nonzero">
            <path d="M3.88064834,10.6291951 C1.65202586,4.91602176 -0.0881314216,0.134344091 0.00345580369,0.0101446713 C0.125572104,-0.0830048937 3.75853204,0.475892497 8.06313163,1.25213887 L15.939633,2.71148206 L17.985081,4.79182234 L20,6.90321248 L14.321592,13.9515296 C11.1770973,17.8327615 8.46000961,20.9998467 8.27683516,20.9998467 C8.09366071,21.0308965 6.1397999,16.3423684 3.88064834,10.6291951 Z M8.64318406,12.7095354 C8.91794574,10.442896 9.10112019,8.5488548 9.04006204,8.48675509 C8.97900389,8.45570524 7.75784088,7.43106002 6.32297435,6.25116553 C2.26260736,2.86673133 2.53736904,3.02198061 3.02583424,4.26397481 C3.27006684,4.85392205 4.49122984,7.95890756 5.74292192,11.1570426 C6.994614,14.3241278 8.03260256,16.9012658 8.06313163,16.8702159 C8.09366071,16.8391661 8.36842238,14.9761748 8.64318406,12.7095354 Z M13.4362489,12.4921864 C15.3901097,10.1013476 16.9165634,8.11415683 16.8860343,8.05205712 C16.7944471,7.95890756 10.8412775,8.98355277 10.658103,9.10775219 C10.5054576,9.20090176 9.71170169,15.348773 9.68117261,16.3423684 C9.68117261,16.7460165 9.74223076,17.0254652 9.80328891,16.9633655 C9.86434706,16.9012658 11.5129171,14.8830252 13.4362489,12.4921864 Z M15.2679934,6.74796321 L17.3744995,6.34431509 L16.4586273,5.41281944 C15.4206387,4.35712437 15.3290515,4.38817423 13.0393709,6.43746466 C12.2456149,7.15161132 12.1234986,7.36896031 12.5814347,7.24476089 C12.9172546,7.18266118 14.1384176,6.93426234 15.2679934,6.74796321 Z M11.8487369,5.4438693 C12.8867255,4.5434235 13.6194233,3.79822698 13.4667779,3.73612727 C12.4593184,3.48772843 4.36911354,2.09048496 4.18593909,2.15258467 C3.94170649,2.24573423 9.34535279,6.99636205 9.74223076,7.0274119 C9.83381799,7.05846176 10.7802193,6.34431509 11.8487369,5.4438693 Z" id="Shape"></path>
        </g>
    </g>
</svg>