<?xml version="1.0" standalone="no"?>
<!DOCTYPE svg PUBLIC "-//W3C//DTD SVG 20010904//EN"
 "http://www.w3.org/TR/2001/REC-SVG-20010904/DTD/svg10.dtd">
<svg version="1.0" xmlns="http://www.w3.org/2000/svg"
 width="500.000000pt" height="500.000000pt" viewBox="0 0 500.000000 500.000000"
 preserveAspectRatio="xMidYMid meet">
<metadata>
Created by potrace 1.11, written by Peter Selinger 2001-2013
</metadata>
<g transform="translate(0.000000,500.000000) scale(0.100000,-0.100000)"
fill="#000000" stroke="none">
<path d="M110 4957 c0 -21 80 -260 163 -492 67 -185 237 -641 255 -685 6 -14
43 -110 83 -215 39 -104 77 -203 84 -220 7 -16 28 -68 45 -115 61 -162 319
-816 430 -1090 182 -449 493 -1202 534 -1295 8 -16 28 -64 46 -105 183 -426
306 -686 334 -709 14 -12 25 -4 94 65 74 76 191 204 317 348 33 38 65 74 70
80 12 14 121 140 155 180 14 17 41 48 61 70 67 77 395 467 608 725 20 24 48
58 62 75 15 17 124 150 243 296 120 146 230 281 246 300 99 120 798 974 871
1064 49 61 86 112 83 115 -3 4 -101 104 -217 225 -117 120 -333 339 -481 488
-295 296 -257 268 -401 293 -16 2 -41 7 -55 10 -14 3 -52 10 -85 16 -33 5 -94
16 -135 24 -110 21 -264 49 -545 100 -137 25 -261 47 -275 50 -14 3 -52 10
-85 15 -33 6 -82 15 -110 21 -75 15 -655 119 -695 125 -19 3 -57 9 -85 14 -27
6 -67 12 -89 16 -21 3 -48 7 -60 10 -23 4 -192 33 -241 40 -16 3 -37 7 -45 9
-8 2 -40 7 -70 10 -30 4 -58 8 -61 10 -3 2 -25 6 -50 9 -24 3 -53 8 -64 10
-11 2 -42 7 -70 10 -27 4 -57 9 -65 11 -8 2 -33 6 -55 10 -22 3 -53 8 -70 11
-31 5 -41 7 -140 19 -33 4 -63 9 -66 11 -3 2 -33 6 -65 10 -32 3 -61 7 -64 9
-3 2 -37 6 -75 10 -39 4 -79 9 -90 11 -11 2 -55 7 -97 10 -68 6 -78 5 -78 -9z
m1162 -512 c13 -3 84 -13 158 -25 74 -11 146 -22 160 -25 13 -2 42 -7 65 -10
22 -3 47 -8 55 -10 8 -2 35 -6 60 -9 25 -3 55 -8 66 -10 12 -2 39 -7 60 -10
22 -4 75 -13 119 -21 44 -7 96 -16 115 -19 19 -3 116 -19 215 -36 99 -17 194
-33 210 -36 17 -2 41 -6 55 -9 14 -3 39 -7 55 -10 17 -3 93 -16 170 -30 77
-14 176 -32 220 -40 83 -15 112 -21 155 -30 14 -3 36 -7 50 -10 62 -12 80 -17
80 -25 0 -63 -561 -556 -829 -728 -62 -41 -64 -41 -95 -25 -65 33 -509 386
-640 508 -6 6 -60 53 -121 105 -60 52 -115 99 -121 105 -6 5 -50 46 -99 90
-142 128 -285 267 -308 299 l-20 29 71 -7 c39 -4 81 -9 94 -11z m-198 -499
c116 -93 213 -172 216 -175 3 -3 28 -24 55 -47 151 -123 558 -454 595 -484 24
-19 85 -69 135 -110 50 -41 111 -91 135 -110 23 -19 48 -38 56 -43 13 -8 13
-103 -1 -237 -3 -30 -8 -74 -10 -98 -2 -23 -7 -68 -10 -100 -3 -31 -12 -113
-20 -182 -8 -69 -17 -150 -20 -180 -3 -30 -8 -66 -10 -80 -2 -14 -6 -52 -10
-85 -4 -33 -8 -71 -10 -85 -5 -35 -15 -108 -21 -155 -4 -40 -9 -73 -19 -151
-3 -23 -8 -59 -10 -80 -3 -22 -7 -55 -10 -74 -3 -19 -7 -48 -9 -65 -4 -28 -16
-112 -21 -145 -1 -8 -11 -68 -21 -133 -10 -64 -22 -116 -27 -114 -5 1 -40 77
-78 167 -38 91 -73 174 -79 185 -5 11 -59 144 -120 295 -61 151 -142 352 -180
445 -38 94 -193 481 -344 860 -151 380 -318 797 -371 928 -53 131 -94 245 -91
253 10 25 68 -14 300 -200z m2816 -114 c19 -9 113 -93 208 -186 l173 -171 -58
-12 c-32 -6 -71 -14 -88 -16 -16 -3 -127 -24 -245 -46 -118 -22 -244 -45 -280
-50 -91 -15 -115 -19 -200 -36 -105 -21 -113 -23 -156 -29 -22 -4 -46 -8 -54
-11 -16 -4 -72 -14 -105 -18 -56 -6 -5 60 157 203 159 140 166 147 218 189 25
20 47 38 50 41 3 3 25 21 48 39 161 126 232 148 332 103z m260 -769 c0 -10
-315 -422 -375 -490 -5 -6 -50 -62 -100 -123 -49 -62 -180 -221 -289 -354
-109 -132 -233 -284 -275 -336 -42 -52 -81 -99 -87 -105 -6 -5 -40 -46 -75
-90 -55 -69 -234 -286 -289 -351 -10 -12 -60 -72 -111 -134 -67 -81 -95 -108
-103 -100 -18 18 -11 348 9 430 2 8 6 46 10 83 3 37 8 76 10 85 1 9 6 44 9 77
4 33 9 71 11 85 2 14 6 50 10 80 4 30 8 66 10 80 5 32 34 252 41 305 2 22 7
51 9 65 3 14 7 45 10 70 3 25 9 70 15 100 5 30 12 75 15 100 14 107 48 266 58
277 18 18 203 55 667 134 129 22 246 42 260 44 14 3 45 8 70 11 25 3 54 8 65
10 11 2 31 6 45 8 14 3 45 8 70 11 25 3 83 12 130 19 94 15 180 20 180 9z"/>
</g>
</svg>
