<?xml version="1.0" standalone="no"?>
<!DOCTYPE svg PUBLIC "-//W3C//DTD SVG 20010904//EN"
 "http://www.w3.org/TR/2001/REC-SVG-20010904/DTD/svg10.dtd">
<svg version="1.0" xmlns="http://www.w3.org/2000/svg"
 width="600.000000pt" height="600.000000pt" viewBox="0 0 600.000000 600.000000"
 preserveAspectRatio="xMidYMid meet">
<metadata>
Created by potrace 1.11, written by Peter Selinger 2001-2013
</metadata>
<g transform="translate(0.000000,600.000000) scale(0.100000,-0.100000)"
fill="#000000" stroke="none">
<path d="M2445 4633 c-565 -793 -949 -1331 -1024 -1434 -23 -31 -41 -61 -41
-67 0 -6 46 -34 103 -63 56 -28 129 -66 162 -84 73 -40 354 -188 530 -280 72
-37 144 -76 160 -85 17 -10 98 -52 180 -95 83 -43 164 -86 180 -95 79 -45 304
-160 315 -160 9 0 795 410 1035 539 28 15 173 92 323 171 149 78 272 146 272
151 0 5 -545 775 -676 954 -8 11 -93 130 -190 265 -96 135 -182 254 -190 265
-7 11 -101 142 -206 290 -106 149 -201 281 -211 295 -10 14 -50 69 -88 123
-39 53 -71 97 -72 96 -1 0 -254 -354 -562 -786z"/>
<path d="M1380 2745 c0 -4 69 -97 153 -208 188 -248 500 -660 716 -947 89
-118 167 -222 174 -230 7 -8 125 -163 262 -345 137 -181 264 -350 283 -375 19
-25 37 -46 41 -47 3 -1 67 80 142 180 75 100 201 268 281 372 79 105 236 312
348 460 112 149 252 333 310 410 58 77 198 262 310 410 112 149 212 280 223
293 11 12 17 22 12 22 -8 0 -153 -72 -240 -120 -27 -15 -117 -62 -200 -105
-82 -43 -154 -81 -160 -85 -5 -4 -68 -38 -140 -75 -71 -37 -172 -90 -222 -116
-51 -27 -137 -72 -190 -100 -54 -28 -134 -71 -178 -94 -44 -23 -128 -68 -187
-99 l-107 -57 -173 92 c-95 50 -220 116 -278 146 -58 31 -136 72 -175 93 -38
21 -158 84 -265 140 -107 56 -235 124 -285 150 -49 26 -135 71 -190 100 -55
29 -137 72 -182 97 -46 24 -83 41 -83 38z"/>
</g>
</svg>
